SplineFontDB: 3.0
FontName: Umpush
FullName: Umpush
FamilyName: Umpush
Weight: Book
Copyright: Copyright (c) 2003 NECTEC. All rights reserved.\nCopyright (c) 2007 Widhaya Trisarnwadhana. All rights reserved.\nModified under GNU General Public License by TLWG.
Version: 0.9.13: 2012-01-06
ItalicAngle: 0
UnderlinePosition: -170
UnderlineWidth: 20
Ascent: 1638
Descent: 410
LayerCount: 2
Layer: 0 0 "Back"  1
Layer: 1 0 "Fore"  0
NeedsXUIDChange: 1
FSType: 0
OS2Version: 0
OS2_WeightWidthSlopeOnly: 0
OS2_UseTypoMetrics: 0
CreationTime: 1153662374
ModificationTime: 1325862876
PfmFamily: 33
TTFWeight: 400
TTFWidth: 5
LineGap: 0
VLineGap: 0
Panose: 2 11 5 4 2 2 2 2 2 4
OS2TypoAscent: 0
OS2TypoAOffset: 1
OS2TypoDescent: 0
OS2TypoDOffset: 1
OS2TypoLinegap: 0
OS2WinAscent: 0
OS2WinAOffset: 1
OS2WinDescent: 0
OS2WinDOffset: 1
HheadAscent: 0
HheadAOffset: 1
HheadDescent: 0
HheadDOffset: 1
OS2Vendor: 'PfEd'
Lookup: 4 0 1 "'liga' Standard Ligatures lookup 0"  {"'liga' Standard Ligatures lookup 0"  } ['liga' ('latn' <'dflt' > ) ]
Lookup: 6 0 0 "'ccmp' Thai Conditional Descender Removal"  {"'ccmp' Thai Conditional Descender Removal"  } ['ccmp' ('DFLT' <'dflt' > 'thai' <'KUY ' 'PAL ' 'THA ' 'dflt' > ) ]
Lookup: 6 0 0 "'ccmp' Thai General Composition"  {"'ccmp' Thai Below Vowel Tone Reordering"  "'ccmp' Thai General Composition"  } ['ccmp' ('DFLT' <'dflt' > 'thai' <'KUY ' 'PAL ' 'THA ' 'dflt' > ) ]
Lookup: 5 0 0 "Required Thai Descender Removal"  {"Required Thai Descender Removal"  } [' RQD' ('thai' <'PAL ' > ) ]
Lookup: 1 0 0 "Thai Descender Removal Single Substitution"  {"Thai Descender Removal Single Substitution" ("descless" ) } []
Lookup: 2 0 0 "Thai Sara Am Decomposition"  {"Thai Sara Am Decomposition"  } []
Lookup: 2 0 0 "Thai Tone Nikhahit Attachment"  {"Thai Tone Nikhahit Attachment"  } []
Lookup: 1 0 0 "Thai Sara Am Lakkhang"  {"Thai Sara Am Lakkhang"  } []
Lookup: 1 0 0 "Thai Tone Low Variant"  {"Thai Tone Low Variant" ("low" ) } []

StartChar: .notdef
Encoding: 65536 -1 0
Width: 1536
Flags: W
HStem: 0 32<288 1248> 1248 32<288 1248>
VStem: 256 32<32 1248> 1248 32<32 1248>
LayerCount: 2
Fore
SplineSet
256 0 m 1
 256 1280 l 1
 1280 1280 l 1
 1280 0 l 1
 256 0 l 1
288 32 m 1
 1248 32 l 1
 1248 1248 l 1
 288 1248 l 1
 288 32 l 1
EndSplineSet
EndChar

StartChar: uni0E4D.high
Encoding: 63262 63262 2
Width: 0
VWidth: 2558
Flags: W
HStem: 2056 72<-329.618 -198.931> 2284 74<-329.64 -196.467>
VStem: -412 69<2143.55 2269.61> -183 70<2144.38 2269.76>
AnchorPoint: "AboveMark" -262 2070 mark 0
LayerCount: 2
Fore
SplineSet
-412 2205 m 0
 -412 2285 -349 2358 -261 2358 c 0
 -181 2358 -113 2293 -113 2205 c 0
 -113 2118 -186 2056 -261 2056 c 0
 -336 2056 -412 2115 -412 2205 c 0
-343 2205 m 0
 -343 2159 -301 2128 -263 2128 c 0
 -220 2128 -183 2168 -183 2205 c 0
 -183 2258 -227 2284 -262 2284 c 0
 -320 2284 -343 2237 -343 2205 c 0
EndSplineSet
EndChar

StartChar: exclam
Encoding: 33 33 5
Width: 569
Flags: W
HStem: 0 194<206 370> 1430 20G<198 378>
VStem: 198 180<0 194 792.431 1450>
LayerCount: 2
Fore
SplineSet
198 999 m 1
 198 1450 l 1
 378 1450 l 1
 378 999 l 1
 335 365 l 1
 242 365 l 1
 198 999 l 1
206 194 m 1
 370 194 l 1
 370 0 l 1
 206 0 l 1
 206 194 l 1
EndSplineSet
EndChar

StartChar: quotedbl
Encoding: 34 34 6
Width: 727
Flags: W
HStem: 1430 20G<106 286 439 619>
VStem: 106 180<1139.59 1450> 156 85<947 1024.41> 439 180<1136.36 1450> 487 85<947 1027.64>
LayerCount: 2
Fore
SplineSet
156 947 m 1xa0
 106 1217 l 1
 106 1450 l 1
 286 1450 l 1
 286 1217 l 1xc0
 241 947 l 1
 156 947 l 1xa0
487 947 m 1x88
 439 1217 l 1
 439 1450 l 1
 619 1450 l 1
 619 1217 l 1x90
 572 947 l 1
 487 947 l 1x88
EndSplineSet
EndChar

StartChar: numbersign
Encoding: 35 35 7
Width: 1139
Flags: W
HStem: -10 21G<87 271.405 546 729.405> 385 180<21 174 384 632 842 1113> 895 180<21 278 488 737 947 1113> 1450 20G<390.595 575 849.595 1034>
VStem: 87 180<-10 170> 395 180<1290 1470> 546 179<-10 169> 854 180<1290 1470>
DStem2: 87 -10 267 -10 0.203743 0.979024<36.6737 404.44 623.451 924.932 1143.94 1511.71> 546 -10 725 -10 0.204377 0.978892<36.5835 404.239 623.359 924.933 1144.05 1511.71>
LayerCount: 2
Fore
SplineSet
87 -10 m 1xfb
 174 385 l 1
 21 385 l 1
 21 565 l 1
 204 565 l 1
 278 895 l 1
 21 895 l 1
 21 1075 l 1
 308 1075 l 1
 395 1470 l 1
 575 1470 l 1xfd
 488 1075 l 1
 767 1075 l 1
 854 1470 l 1
 1034 1470 l 1
 947 1075 l 1
 1113 1075 l 1
 1113 895 l 1
 917 895 l 1
 842 565 l 1
 1113 565 l 1
 1113 385 l 1
 812 385 l 1
 725 -10 l 1
 546 -10 l 1
 632 385 l 1
 354 385 l 1
 267 -10 l 1
 87 -10 l 1xfb
384 565 m 1
 662 565 l 1
 737 895 l 1
 458 895 l 1
 384 565 l 1
EndSplineSet
EndChar

StartChar: dollar
Encoding: 36 36 8
Width: 1139
Flags: W
HStem: -17 140<383.791 491> 651 159<391.414 491> 1271 138<390.829 491 634 726.615>
VStem: 76 179<278.013 417> 106 180<911.631 1172.26> 491 143<-118 -15 123 629 810 1269 1404.59 1488> 833 175<1050 1158.58> 858 184<237.747 524.811>
LayerCount: 2
Fore
SplineSet
491 -17 m 1xe5
 251.109 14.0095 77.1999 143.414 76 417 c 1
 255 417 l 1xf5
 277.852 255.476 360.5 143.5 491 123 c 1
 491 651 l 1
 318.5 693 106 780.5 106 1031 c 0
 106 1243.3 266.524 1393.87 491 1409 c 1
 491 1488 l 1
 634 1488 l 1
 634 1409 l 1
 839.993 1389.47 997.225 1257.7 1008 1050 c 1
 833 1050 l 1xee
 820.018 1143.28 736.562 1252.52 634 1269 c 1
 634 790 l 1
 635 789 l 1
 852.785 740.259 1042 647.5 1042 397 c 0
 1042 165.15 861.048 -4.27161 634 -15 c 1
 634 -118 l 1
 491 -118 l 1
 491 -17 l 1xe5
491 1271 m 1
 381.93 1257.43 286 1158.5 286 1044 c 0xec
 286 909.805 379.477 842.862 491 810 c 1
 491 1271 l 1
858 386 m 0xe5
 858 532 769.23 585.552 634 629 c 1
 634 123 l 1
 755.093 148.827 858 236.646 858 386 c 0xe5
EndSplineSet
EndChar

StartChar: percent
Encoding: 37 37 9
Width: 1821
Flags: W
HStem: -49.5 123<1278.58 1475.16> -10 21G<458 648.113> 599.5 125<1277.53 1482.95> 717 123<332.079 528.663> 1366 125<331.03 536.449>
VStem: 119 157<900.834 1307.03> 458 180<-10 170> 590 155<901.83 1309.67> 1065.5 157<134.334 540.536> 1217 180<1311 1491> 1536.5 155<135.33 543.168>
DStem2: 458 -10 638 -10 0.451252 0.892397<81.2253 1681.99>
LayerCount: 2
Fore
SplineSet
1065.5 347.5 m 0xaca0
 1065.5 549.634 1171.5 724.5 1372.5 724.5 c 0
 1585.5 724.5 1691.5 561 1691.5 337.5 c 0
 1691.5 120 1581 -49.5 1374.5 -49.5 c 0
 1171.5 -49.5 1065.5 115.5 1065.5 347.5 c 0xaca0
1378.5 599.5 m 0
 1261.5 599.5 1222.5 487.715 1222.5 329.5 c 0
 1222.5 178.5 1270.5 73.5 1378.5 73.5 c 0
 1491 73.5 1536.5 183 1536.5 343.5 c 0
 1536.5 493.5 1500 599.5 1378.5 599.5 c 0
119 1114 m 0
 119 1316.13 225 1491 426 1491 c 0
 639 1491 745 1327.5 745 1104 c 0
 745 886.5 634.5 717 428 717 c 0x1d20
 225 717 119 882 119 1114 c 0
432 1366 m 0
 315 1366 276 1254.21 276 1096 c 0
 276 945 324 840 432 840 c 0
 544.5 840 590 949.5 590 1110 c 0
 590 1260 553.5 1366 432 1366 c 0
1217 1491 m 1x4e60
 1397 1491 l 1
 638 -10 l 1
 458 -10 l 1
 1217 1491 l 1x4e60
EndSplineSet
EndChar

StartChar: ampersand
Encoding: 38 38 10
Width: 1366
Flags: W
HStem: -25 158<409.479 714.335> 1343 148<513.337 739.184>
VStem: 88 195<264.626 550.536> 272 185<1069.83 1286.72> 793 184<1042.28 1286.5> 1032 189<541.708 652.11>
DStem2: 606 938 436 842 0.625325 -0.780364<-280.527 -31.3903 150.083 576.746>
LayerCount: 2
Fore
SplineSet
973 172 m 1xdc
 856 41 720 -25 553 -25 c 0
 284 -25 89.8686 164.128 88 403 c 0xec
 88 586 204 733 436 842 c 1
 358.564 941.011 272 1032 272 1163 c 0
 272 1352 440 1491 637 1491 c 0
 832 1491 977 1348 977 1178 c 0
 977 1039 885 920 700 821 c 1
 963 485 l 1
 993 542 1016 611 1032 690 c 1
 1221 649 l 1
 1188 522 1144 417 1090 334 c 1
 1157 247 1233 172 1319 109 c 1
 1198 -35 l 1
 1126 13 1051 82 973 172 c 1xdc
606 938 m 1
 726.2 1011.58 793 1048 793 1174 c 0
 793 1268 720.114 1344.79 627 1343 c 0
 535.835 1345.24 457 1268 457 1182 c 0xdc
 457 1100 554.502 998.249 606 938 c 1
530 725 m 1
 384.847 632.506 283 548 283 416 c 0xec
 283 288 380 133 555 133 c 0
 688 133 797.042 220.454 860 315 c 1
 530 725 l 1
EndSplineSet
EndChar

StartChar: quotesingle
Encoding: 39 39 11
Width: 391
Flags: W
HStem: 1446 20G<90 295>
VStem: 90 205<1139.17 1466> 136 111<947 1028.83>
LayerCount: 2
Fore
SplineSet
136 947 m 1xa0
 90 1221 l 1
 90 1466 l 1
 295 1466 l 1
 295 1221 l 1xc0
 247 947 l 1
 136 947 l 1xa0
EndSplineSet
EndChar

StartChar: parenleft
Encoding: 40 40 12
Width: 682
Flags: W
VStem: 124 185<190.202 888.53>
LayerCount: 2
Fore
SplineSet
479 -431 m 1
 279.268 -171.758 124 160 124 531 c 0
 124 945 280.981 1239.33 479 1491 c 1
 608 1491 l 1
 411.5 1154.93 309 960 309 530 c 0
 309 210 409 -111 608 -431 c 1
 479 -431 l 1
EndSplineSet
EndChar

StartChar: parenright
Encoding: 41 41 13
Width: 682
Flags: W
VStem: 420 185<190.202 888.53>
LayerCount: 2
Fore
SplineSet
250 -431 m 1
 449.731 -171.758 605 160 605 531 c 0
 605 945 448.019 1239.33 250 1491 c 1
 121 1491 l 1
 317.5 1154.93 420 960 420 530 c 0
 420 210 320 -111 121 -431 c 1
 250 -431 l 1
EndSplineSet
EndChar

StartChar: asterisk
Encoding: 42 42 14
Width: 797
Flags: W
VStem: 321 145<1247.64 1491>
LayerCount: 2
Fore
SplineSet
64 1197 m 1
 110 1339 l 1
 216 1302 293 1269 341 1242 c 1
 328 1363 322 1446 321 1491 c 1
 466 1491 l 1
 464 1425 456 1342 443 1243 c 1
 512 1278 590 1310 679 1339 c 1
 725 1197 l 1
 640 1169 557 1150 476 1141 c 1
 517 1106 574 1043 648 952 c 1
 528 867 l 1
 489 920 444 991 391 1082 c 1
 342 988 298 916 261 867 c 1
 143 952 l 1
 220 1047 276 1110 309 1141 c 1
 223 1158 141 1176 64 1197 c 1
EndSplineSet
EndChar

StartChar: plus
Encoding: 43 43 15
Width: 1196
Flags: W
HStem: 639 168<114 513 683 1082>
VStem: 513 170<237 639 807 1206>
LayerCount: 2
Fore
SplineSet
513 237 m 1
 513 639 l 1
 114 639 l 1
 114 807 l 1
 513 807 l 1
 513 1206 l 1
 683 1206 l 1
 683 807 l 1
 1082 807 l 1
 1082 639 l 1
 683 639 l 1
 683 237 l 1
 513 237 l 1
EndSplineSet
EndChar

StartChar: comma
Encoding: 44 44 16
Width: 569
Flags: W
HStem: 0 205<182 284>
VStem: 182 205<0 205> 284 103<-157.622 0>
LayerCount: 2
Fore
SplineSet
182 0 m 1xc0
 182 205 l 1
 387 205 l 1
 387 0 l 2xc0
 386.406 -156.799 331.865 -240.866 220 -290 c 1
 170 -213 l 1
 250.676 -175.845 279.79 -117.423 284 0 c 1xa0
 182 0 l 1xc0
EndSplineSet
EndChar

StartChar: hyphen
Encoding: 45 45 17
Width: 682
Flags: W
HStem: 440 181<65 618>
LayerCount: 2
Fore
SplineSet
65 440 m 1
 65 621 l 1
 618 621 l 1
 618 440 l 1
 65 440 l 1
EndSplineSet
EndChar

StartChar: period
Encoding: 46 46 18
Width: 569
Flags: W
HStem: 0 205<186 391>
VStem: 186 205<0 205>
LayerCount: 2
Fore
SplineSet
186 0 m 1
 186 205 l 1
 391 205 l 1
 391 0 l 1
 186 0 l 1
EndSplineSet
EndChar

StartChar: slash
Encoding: 47 47 19
Width: 595
Flags: W
HStem: -10 21G<-81 109.919> 1450 20G<498.068 688>
VStem: -81 183<-10 173> 506 182<1288 1470>
DStem2: -81 -10 102 -10 0.368682 0.929556<67.4688 1592.16>
LayerCount: 2
Fore
SplineSet
-81 -10 m 1
 506 1470 l 1
 688 1470 l 1
 102 -10 l 1
 -81 -10 l 1
EndSplineSet
EndChar

StartChar: zero
Encoding: 48 48 20
Width: 1139
Flags: W
HStem: -10 150<425.767 698.88> 1309 150<421.284 698.732>
VStem: 86 184<362.402 1101.73> 856 184<358.726 1085.23>
LayerCount: 2
Fore
SplineSet
86 723 m 0
 86 1160 196 1459 563 1459 c 0
 881 1459 1040 1214 1040 723 c 0
 1040 288 920.14 -10 563 -10 c 0
 207.86 -10 86 300 86 723 c 0
270 723 m 0
 270 392 344 140 563 140 c 0
 758.003 140 856 336 856 723 c 0
 856 1114 758 1309 561 1309 c 0
 316 1309 270 1032 270 723 c 0
EndSplineSet
EndChar

StartChar: one
Encoding: 49 49 21
Width: 1139
Flags: W
HStem: 0 21G<583 763> 907 197<223 301.934> 1452 20G<557.162 763>
VStem: 583 180<0 1135 1376.31 1472>
LayerCount: 2
Fore
SplineSet
763 0 m 1
 583 0 l 1
 583 1135 l 1
 520.02 1033.39 368.069 936.577 223 907 c 1
 223 1104 l 1
 377.063 1175.22 531.324 1308.34 583 1472 c 1
 763 1472 l 1
 763 0 l 1
EndSplineSet
EndChar

StartChar: two
Encoding: 50 50 22
Width: 1139
Flags: W
HStem: 0 173<312 1031> 1333 149<404.848 724.988>
VStem: 96 185<1039 1205.68> 844 185<905.671 1217.7>
LayerCount: 2
Fore
SplineSet
1031 173 m 1
 1031 0 l 1
 62 0 l 1
 61.6893 174.446 225 365 437 542 c 0
 655.204 724.18 844 855 844 1079 c 0
 844 1228.1 723.336 1333 568 1333 c 0
 395 1333 282.716 1219.94 281 1039 c 1
 96 1039 l 1
 93.2352 1304.11 295 1482 572 1482 c 0
 830.505 1482 1029 1325.77 1029 1075 c 0
 1029 785 800 630 596 455 c 0
 492.668 366.357 383.559 297.543 312 173 c 1
 1031 173 l 1
EndSplineSet
EndChar

StartChar: three
Encoding: 51 51 23
Width: 1139
Flags: W
HStem: -10 166<391.337 715.429> 1070 21G<104 295.346> 1317 165<393.873 702.437>
VStem: 86 180<280.938 427> 104 180<1070 1202.73> 789 185<968.563 1231.95> 855 191<293.113 603.922>
LayerCount: 2
Fore
SplineSet
86 427 m 1xf2
 266 427 l 1
 266.87 263.042 392 156 553 156 c 0
 723.852 156 855 273.595 855 445 c 0xf2
 855 612 744 713 576 713 c 0
 533 713 488 707 441 694 c 1
 441 852 l 1
 626.587 832.7 789 940 789 1105 c 0
 789 1237.26 689.622 1317 549 1317 c 0
 396 1317 306.691 1228.44 284 1070 c 1
 104 1070 l 1
 110.165 1300.92 300 1482 545 1482 c 0
 776 1482 974 1327.9 974 1101 c 0xec
 974 964 883.37 843.608 772 794 c 1
 949.326 749.35 1046 640 1046 449 c 0
 1046 181.383 832.18 -10 552 -10 c 0
 291.81 -10 89.2383 170.396 86 427 c 1xf2
EndSplineSet
EndChar

StartChar: four
Encoding: 52 52 24
Width: 1139
Flags: W
HStem: 0 21G<662 842> 347 175<251 662 842 1040> 1452 20G<648.611 842>
VStem: 662 180<0 347 522 1117>
DStem2: 26 522 251 522 0.556314 0.830972<125.171 848.244>
LayerCount: 2
Fore
SplineSet
662 0 m 1
 662 347 l 1
 26 347 l 1
 26 522 l 1
 662 1472 l 1
 842 1472 l 1
 842 522 l 1
 1040 522 l 1
 1040 347 l 1
 842 347 l 1
 842 0 l 1
 662 0 l 1
662 522 m 1
 662 1117 l 1
 251 522 l 1
 662 522 l 1
EndSplineSet
EndChar

StartChar: five
Encoding: 53 53 25
Width: 1139
Flags: W
HStem: -10 164<398.272 716.116> 817 170<397.312 729.392> 1292 180<423 988>
VStem: 85 189<280.857 415> 866 191<307.842 675.898>
DStem2: 117 708 344 920 0.182734 0.983162<12.9072 75.0338 249.911 630.083>
LayerCount: 2
Fore
SplineSet
85 415 m 1
 274 415 l 1
 302.745 248.884 388 154 556 154 c 0
 744.54 154 866 296 866 496 c 0
 866 696 752 817 553 817 c 0
 454 817 372 773 306 686 c 1
 117 708 l 1
 259 1472 l 1
 988 1472 l 1
 988 1292 l 1
 423 1292 l 1
 344 920 l 1
 397 964 484 987 591 987 c 0
 868 987 1057 796 1057 512 c 0
 1057 224 857.59 -10 556 -10 c 0
 279.82 -10 109.141 158.082 85 415 c 1
EndSplineSet
EndChar

StartChar: six
Encoding: 54 54 26
Width: 1139
Flags: W
HStem: -10 165<437.308 732.82> 807 170<427.667 730.553> 1305 177<436.085 744.928>
VStem: 77 194<842 1086.31> 840 179<1103 1202.46> 861 184<294.172 668.865>
LayerCount: 2
Fore
SplineSet
1019 1103 m 1xf8
 840 1103 l 1xf8
 807.996 1234.91 736.314 1303.27 592 1305 c 0
 383 1305 276 1151 271 842 c 1
 346.377 933.643 443.154 977 594 977 c 0
 852 977 1045 765.94 1045 491 c 0xf4
 1045 216 865.26 -10 586 -10 c 0
 207.87 -10 77 292 77 701 c 0
 77 1168 216 1482 603 1482 c 0
 825.573 1482 1020.72 1326.52 1019 1103 c 1xf8
306 490 m 0
 306 308 404.527 155 583 155 c 0
 764 155 861 300 861 480 c 0xf4
 861 667.437 760 807 576 807 c 0
 404 807 306 670.145 306 490 c 0
EndSplineSet
EndChar

StartChar: seven
Encoding: 55 55 27
Width: 1139
Flags: W
HStem: 0 21G<293 511> 1292 180<97 795>
VStem: 293 218<0 345.203>
LayerCount: 2
Fore
SplineSet
97 1292 m 1
 97 1472 l 1
 1046 1472 l 1
 1046 1292 l 1
 895 1111 772 911 675 692 c 0
 566 446 511 215 511 0 c 1
 293 0 l 1
 294 235 359 494 486 776 c 0
 577 979 680 1151 795 1292 c 1
 97 1292 l 1
EndSplineSet
EndChar

StartChar: eight
Encoding: 56 56 28
Width: 1139
Flags: W
HStem: -10 157<406.39 740.896> 699 181<418.377 715.905> 1326 156<414.604 714.489>
VStem: 83 185<283.759 591.105> 142 184<969.067 1244.03> 804 185<967.733 1239.66> 865 184<274.584 586.62>
LayerCount: 2
Fore
SplineSet
362 805 m 1xf2
 215 859 142 959 142 1104 c 0
 142 1340 327.883 1482 563 1482 c 0
 804 1482 989 1332 989 1099 c 0xec
 989 957.817 908.117 855.921 773 805 c 1
 948.002 743.023 1049 632 1049 434 c 0
 1049 152 854.34 -10 566 -10 c 0
 292.13 -10 83 164 83 439 c 0
 83 644 192.564 762.716 362 805 c 1xf2
326 1110 m 0
 326 972 423.592 880 567 880 c 0
 704 880 804 967.042 804 1100 c 0
 804 1236 708 1326 565 1326 c 0
 430.671 1326 326 1248 326 1110 c 0
268 438 m 0xf2
 268 268 398.118 147 568 147 c 0
 748 147 865 259.726 865 432 c 0
 865 612 740 699 562 699 c 0
 388.771 699 268 608.865 268 438 c 0xf2
EndSplineSet
EndChar

StartChar: nine
Encoding: 57 57 29
Width: 1139
Flags: W
HStem: -10 177<413.07 724.706> 495 170<429.627 734.618> 1317 165<425.943 718.742>
VStem: 113 184<808.187 1179.98> 139 179<263.697 369> 887 194<395.332 630>
LayerCount: 2
Fore
SplineSet
139 369 m 1xec
 318 369 l 1xec
 350.004 237.088 421.676 167 566 167 c 0
 780 167 882 321 887 630 c 1
 811.623 538.357 714.845 495 564 495 c 0
 316 495 113 704 113 981 c 0xf4
 113 1260.2 294.455 1482 572 1482 c 0
 936 1482 1081 1188 1081 771 c 0
 1081 332 952.13 -10 555 -10 c 0
 332.43 -10 137.279 145.482 139 369 c 1xec
852 982 m 0
 854.32 1167.24 753.473 1317 575 1317 c 0
 396 1317 297 1177.82 297 992 c 0xf4
 297 804 399.455 665 582 665 c 0
 760 665 855.141 801.882 852 982 c 0
EndSplineSet
EndChar

StartChar: colon
Encoding: 58 58 30
Width: 569
Flags: W
HStem: 0 205<185 390> 857 205<185 390>
VStem: 185 205<0 205 857 1062>
LayerCount: 2
Fore
SplineSet
185 857 m 1
 185 1062 l 1
 390 1062 l 1
 390 857 l 1
 185 857 l 1
185 0 m 1
 185 205 l 1
 390 205 l 1
 390 0 l 1
 185 0 l 1
EndSplineSet
EndChar

StartChar: semicolon
Encoding: 59 59 31
Width: 569
Flags: W
HStem: 0 205<182 284> 857 205<182 387>
VStem: 182 205<0 205 857 1062> 284 103<-156.137 0>
LayerCount: 2
Fore
SplineSet
182 857 m 1xe0
 182 1062 l 1
 387 1062 l 1
 387 857 l 1
 182 857 l 1xe0
182 0 m 1
 182 205 l 1
 387 205 l 1
 387 0 l 2xe0
 388.097 -150.419 327.794 -245.139 220 -290 c 1
 170 -213 l 1
 249.748 -177.615 280.807 -109.81 284 0 c 1xd0
 182 0 l 1
EndSplineSet
EndChar

StartChar: less
Encoding: 60 60 32
Width: 1196
Flags: W
HStem: 226 179<904 1083> 1040 179<904 1083>
DStem2: 112 809 313 724 0.921242 0.38899<152.105 984.383> 313 724 112 641 0.919536 -0.393005<0 833.412>
LayerCount: 2
Fore
SplineSet
112 641 m 1
 112 809 l 1
 1083 1219 l 1
 1083 1040 l 1
 313 724 l 1
 1083 405 l 1
 1083 226 l 1
 112 641 l 1
EndSplineSet
EndChar

StartChar: equal
Encoding: 61 61 33
Width: 1196
Flags: W
HStem: 417 168<114 1082> 862 168<114 1082>
LayerCount: 2
Fore
SplineSet
1082 862 m 1
 114 862 l 1
 114 1030 l 1
 1082 1030 l 1
 1082 862 l 1
1082 417 m 1
 114 417 l 1
 114 585 l 1
 1082 585 l 1
 1082 417 l 1
EndSplineSet
EndChar

StartChar: greater
Encoding: 62 62 34
Width: 1196
Flags: W
HStem: 226 179<112 291> 1040 179<112 291>
DStem2: 112 1219 112 1040 0.921242 -0.38899<69.6292 900.985> 112 405 112 226 0.919536 0.393005<0 832.492>
LayerCount: 2
Fore
SplineSet
1083 641 m 1
 112 226 l 1
 112 405 l 1
 881 724 l 1
 112 1040 l 1
 112 1219 l 1
 1083 809 l 1
 1083 641 l 1
EndSplineSet
EndChar

StartChar: question
Encoding: 63 63 35
Width: 1139
Flags: W
HStem: 0 205<461 666> 1341 163<413.156 731.937>
VStem: 90 185<1046 1191.95> 461 205<0 205> 472 173<361 558.608> 853 187<950.027 1223.98>
LayerCount: 2
Fore
SplineSet
90 1046 m 1xec
 103.875 1301.69 280 1504 565 1504 c 0
 834.463 1495.46 1040 1330 1040 1105 c 0
 1040 745 645 757.672 645 361 c 1
 472 361 l 1
 474 436 l 2
 500.598 805.042 846.345 821.814 853 1088 c 0
 853 1202.11 763.486 1341 568 1341 c 0
 390.945 1339.74 301.005 1221.54 275 1046 c 1
 90 1046 l 1xec
461 0 m 1xf4
 461 205 l 1
 666 205 l 1
 666 0 l 1
 461 0 l 1xf4
EndSplineSet
EndChar

StartChar: at
Encoding: 64 64 36
Width: 2079
Flags: W
HStem: -431 157<784.406 1450.83> -33 196<1276.8 1537.39> -3 164<774.291 1036.38> 925 159<882.805 1158.3> 1338 155<813.743 1363.85>
VStem: 111 158<212.012 774.578> 502 181<263.187 675.035> 1799 157<502.838 943.219>
LayerCount: 2
Fore
SplineSet
1354 -33 m 0xdf
 1199.6 -33 1168.4 46.9651 1161 121 c 1
 1090 38 987 -3 854 -3 c 0xbf
 642.8 -3 502 198.962 502 461 c 0
 502 805.048 762.748 1084 1011 1084 c 0
 1153 1084 1254 1035 1313 938 c 1
 1347 1079 l 1
 1526 1079 l 1
 1380 379 l 2
 1367 315 1358 265 1352 229 c 1
 1355.29 173.099 1399.88 163 1422 163 c 0
 1605.19 163 1799 481.543 1799 716 c 0
 1799 1101.66 1481.05 1338 1093 1338 c 0
 598.6 1338 269 975.234 269 485 c 0
 269 -10.781 593.755 -274 1120 -274 c 0
 1555.43 -274 1751.1 -86.5129 1824 19 c 1
 2005 19 l 1
 1873.36 -252.509 1544.18 -431 1123 -431 c 0
 526.912 -431 111 -123.886 111 469 c 0
 111 1060.56 507.4 1493 1102 1493 c 0
 1586.37 1493 1956 1181 1956 713 c 0
 1956 364.982 1686.93 -33 1354 -33 c 0xdf
683 453 m 0
 683 271.381 766.2 161 891 161 c 0
 1107.23 161 1243 421.263 1243 649 c 0
 1243 881.52 1111.6 925 1024 925 c 0
 795.324 925 683 640.154 683 453 c 0
EndSplineSet
EndChar

StartChar: A
Encoding: 65 65 37
Width: 1366
Flags: W
HStem: 0 21G<-2 211.025 1140.46 1368> 471 182<435 903> 1430 20G<551.262 776.276>
VStem: -2 205<0 205> 1149 219<0 219>
DStem2: -2 0 203 0 0.360832 0.932631<73.9705 581.437 766.691 1392.17> 559 1450 659 1237 0.360832 0.932631<-788.05 -162.567> 768 1450 659 1237 0.382352 -0.924017<155.139 788.059> 1368 0 948 471 0.382352 -0.924017<-595.8 -83.735>
LayerCount: 2
Fore
SplineSet
559 1450 m 1
 768 1450 l 1
 1368 0 l 1
 1149 0 l 1
 948 471 l 1
 392 471 l 1
 203 0 l 1
 -2 0 l 1
 559 1450 l 1
903 653 m 1
 659 1237 l 1
 435 653 l 1
 903 653 l 1
EndSplineSet
EndChar

StartChar: B
Encoding: 66 66 38
Width: 1366
Flags: W
HStem: 0 173<344 940.594> 669 173<344 911.662> 1277 173<344 904.188>
VStem: 164 180<173 669 842 1277> 995 191<917.319 1193.66> 1056 201<267.507 571.758>
LayerCount: 2
Fore
SplineSet
981 772 m 1xf8
 1189.21 711.174 1257 565 1257 421 c 0xf4
 1257 140 1055 3.02483e-05 709 0 c 2
 164 0 l 1
 164 1450 l 1
 709 1450 l 2
 995 1450 1186 1315 1186 1079 c 0
 1186 1000 1153 856.755 981 772 c 1xf8
344 842 m 1
 683 842 l 2
 890 842 995 895 995 1056 c 0xf8
 995 1245 845 1277 709 1277 c 2
 344 1277 l 1
 344 842 l 1
344 173 m 1
 709 173 l 2
 1010 173 1056 295 1056 421 c 0xf4
 1056 605 940 669 683 669 c 2
 344 669 l 1
 344 173 l 1
EndSplineSet
EndChar

StartChar: C
Encoding: 67 67 39
Width: 1479
Flags: W
HStem: -10 180<580.263 1005.46> 1297 180<579.415 1010.89>
VStem: 102 197<493.74 996.01> 1185 188<1050 1238> 1210 188<354.707 480>
LayerCount: 2
Fore
SplineSet
788 170 m 0xf0
 1023.94 170 1192.61 299.563 1210 480 c 1
 1398 480 l 1xe8
 1305.82 116.937 1053.8 -10 791 -10 c 0
 383.88 -10 102 256 102 745 c 0
 102 1191.23 389.094 1477 794 1477 c 0
 1141.4 1477 1310.69 1265.7 1373 1050 c 1
 1185 1050 l 1
 1123.29 1251.8 935.223 1297 790 1297 c 0
 472 1297 298.46 1065.32 299 746 c 0
 299 521.904 396.8 170 788 170 c 0xf0
EndSplineSet
EndChar

StartChar: D
Encoding: 68 68 40
Width: 1479
Flags: W
HStem: 0 173<350 908.284> 1277 173<350 908.134>
VStem: 168 182<173 1277> 1183 197<464.775 1002.12>
LayerCount: 2
Fore
SplineSet
1380 733 m 0
 1380 146.6 1054.12 0 697 0 c 2
 168 0 l 1
 168 1450 l 1
 673 1450 l 2
 1238.6 1450 1380 1141.66 1380 733 c 0
1183 736 m 0
 1183 1168.8 936.063 1277 670 1277 c 2
 350 1277 l 1
 350 173 l 1
 675 173 l 2
 979.8 173 1183 325.288 1183 736 c 0
EndSplineSet
EndChar

StartChar: E
Encoding: 69 69 41
Width: 1366
Flags: W
HStem: 0 179<341 1222> 646 180<341 1021> 1268 182<341 1222>
VStem: 162 179<179 646 826 1268>
LayerCount: 2
Fore
SplineSet
162 0 m 1
 162 1450 l 1
 1222 1450 l 1
 1222 1268 l 1
 341 1268 l 1
 341 826 l 1
 1021 826 l 1
 1021 646 l 1
 341 646 l 1
 341 179 l 1
 1222 179 l 1
 1222 0 l 1
 162 0 l 1
EndSplineSet
EndChar

StartChar: F
Encoding: 70 70 42
Width: 1251
Flags: W
HStem: 0 21G<168 347> 641 179<347 1009> 1271 179<347 1157>
VStem: 168 179<0 641 820 1271>
LayerCount: 2
Fore
SplineSet
168 0 m 1
 168 1450 l 1
 1157 1450 l 1
 1157 1271 l 1
 347 1271 l 1
 347 820 l 1
 1009 820 l 1
 1009 641 l 1
 347 641 l 1
 347 0 l 1
 168 0 l 1
EndSplineSet
EndChar

StartChar: G
Encoding: 71 71 43
Width: 1479
Flags: W
HStem: -10 180<581.136 997.986> 504 180<905 1212> 1297 180<578.508 1010.13>
VStem: 102 197<492.883 1000.32> 1185 188<1050 1238> 1212 192<352.624 504>
LayerCount: 2
Fore
SplineSet
299 746 m 0xf8
 299 520.566 396 170 788 170 c 0
 981.539 170 1213.29 287.141 1212 504 c 1
 905 504 l 1
 905 684 l 1
 1404 684 l 1xf4
 1428 192 1188.13 -10 791 -10 c 0
 431.86 -10 102 212 102 745 c 0
 102 1191.23 384 1477 794 1477 c 0
 1141.4 1477 1310.69 1265.7 1373 1050 c 1
 1185 1050 l 1
 1145.18 1183.94 1031.09 1297 790 1297 c 0
 472 1297 299 1068 299 746 c 0xf8
EndSplineSet
EndChar

StartChar: H
Encoding: 72 72 44
Width: 1479
Flags: W
HStem: 0 21G<164 344 1134 1314> 668 180<344 1134> 1430 20G<164 344 1134 1314>
VStem: 164 180<0 668 848 1450> 1134 180<0 668 848 1450>
LayerCount: 2
Fore
SplineSet
164 0 m 1
 164 1450 l 1
 344 1450 l 1
 344 848 l 1
 1134 848 l 1
 1134 1450 l 1
 1314 1450 l 1
 1314 0 l 1
 1134 0 l 1
 1134 668 l 1
 344 668 l 1
 344 0 l 1
 164 0 l 1
EndSplineSet
EndChar

StartChar: I
Encoding: 73 73 45
Width: 650
Flags: W
HStem: 0 160<25 235 415 625> 1290 160<25 235 415 625>
VStem: 235 180<160 1290>
LayerCount: 2
Fore
SplineSet
625 160 m 1
 625 0 l 1
 25 0 l 1
 25 160 l 1
 235 160 l 1
 235 1290 l 1
 25 1290 l 1
 25 1450 l 1
 625 1450 l 1
 625 1290 l 1
 415 1290 l 1
 415 160 l 1
 625 160 l 1
EndSplineSet
EndChar

StartChar: J
Encoding: 74 74 46
Width: 1024
Flags: W
HStem: -10 180<322.948 612.416> 1280 170<408 685>
VStem: 64 180<261.056 455> 685 180<247.773 1280>
LayerCount: 2
Fore
SplineSet
865 1450 m 1
 865 456 l 2
 865 108 712.2 -10 463 -10 c 0
 125.64 -10 64 215.744 64 455 c 1
 244 455 l 1
 244 244 328 170 462 170 c 0
 616 170 685 256 685 408 c 2
 685 1280 l 1
 408 1280 l 1
 408 1450 l 1
 865 1450 l 1
EndSplineSet
EndChar

StartChar: K
Encoding: 75 75 47
Width: 1366
Flags: W
HStem: 0 21G<150 330 1094.07 1346> 1430 20G<150 330 1049.68 1316>
VStem: 150 180<0 539 785 1450> 1072 244<1206 1450> 1113 233<0 233>
DStem2: 330 785 479 670 0.734489 0.67862<0 31.3976 219.908 996.273>
LayerCount: 2
Fore
SplineSet
150 0 m 1xe8
 150 1450 l 1
 330 1450 l 1
 330 785 l 1
 1072 1450 l 1
 1316 1450 l 1xf0
 610 806 l 1
 1346 0 l 1
 1113 0 l 1
 479 670 l 1
 330 539 l 1
 330 0 l 1
 150 0 l 1xe8
EndSplineSet
EndChar

StartChar: L
Encoding: 76 76 48
Width: 1139
Flags: W
HStem: 0 170<330 1060> 1430 20G<150 330>
VStem: 150 180<170 1450>
LayerCount: 2
Fore
SplineSet
150 0 m 1
 150 1450 l 1
 330 1450 l 1
 330 170 l 1
 1060 170 l 1
 1060 0 l 1
 150 0 l 1
EndSplineSet
EndChar

StartChar: M
Encoding: 77 77 49
Width: 1706
Flags: W
HStem: 0 133<706 996> 1430 20G<152 339.882 1362.12 1550>
VStem: 152 180<0 964> 1370 180<0 964>
DStem2: 332 1450 332 964 0.366636 -0.930365<452.157 1415.57> 851 133 996 0 0.366636 0.930365<0 963.417>
LayerCount: 2
Fore
SplineSet
152 0 m 1
 152 1450 l 1
 332 1450 l 1
 851 133 l 1
 1370 1450 l 1
 1550 1450 l 1
 1550 0 l 1
 1370 0 l 1
 1370 964 l 1
 996 0 l 1
 706 0 l 1
 332 964 l 1
 332 0 l 1
 152 0 l 1
EndSplineSet
EndChar

StartChar: N
Encoding: 78 78 50
Width: 1479
Flags: W
HStem: 0 21G<156 336 1117 1311> 1430 20G<156 350.009 1131 1311>
VStem: 156 180<0 1136> 1131 180<315 1450>
DStem2: 336 1450 336 1136 0.573366 -0.8193<257.26 1385.73>
LayerCount: 2
Fore
SplineSet
156 0 m 1
 156 1450 l 1
 336 1450 l 1
 1131 315 l 1
 1131 1450 l 1
 1311 1450 l 1
 1311 0 l 1
 1131 0 l 1
 336 1136 l 1
 336 0 l 1
 156 0 l 1
EndSplineSet
EndChar

StartChar: O
Encoding: 79 79 51
Width: 1593
Flags: W
HStem: -10 180<576.319 1020.87> 1298 180<571.484 1020.23>
VStem: 104 200<462.716 998.772> 1296 200<473.839 1001.21>
LayerCount: 2
Fore
SplineSet
800 -10 m 0
 369.53 -10 104 306.276 104 714 c 0
 104 1187.74 364.038 1473.94 801 1478 c 0
 1229.65 1478 1496 1175.8 1496 731 c 0
 1496 276.612 1212.39 -10 800 -10 c 0
802 1298 m 0
 403.6 1298 304 1001.83 304 711 c 0
 304 382.54 482.408 170 799 170 c 0
 1121.99 170 1296 383.664 1296 732 c 0
 1296 1071.82 1126.63 1298 802 1298 c 0
EndSplineSet
EndChar

StartChar: P
Encoding: 80 80 52
Width: 1366
Flags: W
HStem: 0 21G<158 338> 580 173<338 958.614> 1277 173<338 970.26>
VStem: 158 180<0 580 753 1277> 1077 200<864.545 1181.77>
LayerCount: 2
Fore
SplineSet
158 0 m 1
 158 1450 l 1
 711 1450 l 2
 1185 1450 1277 1255 1277 1026 c 0
 1277 735 1105 580 728 580 c 2
 338 580 l 1
 338 0 l 1
 158 0 l 1
731 753 m 2
 925 753 1077 806.4 1077 1020 c 0
 1077 1175 1020 1277 727 1277 c 2
 338 1277 l 1
 338 753 l 1
 731 753 l 2
EndSplineSet
EndChar

StartChar: Q
Encoding: 81 81 53
Width: 1659
Flags: W
HStem: -14 189<738.533 1041.1 1319.26 1522.12> 297 178<789.905 1022.11> 1298 180<572.302 1025.94>
VStem: 104 200<454.316 999> 1296 200<460.909 1003.01>
LayerCount: 2
Fore
SplineSet
895 475 m 0
 1075.18 473.02 1174.49 374.809 1194 354 c 1
 1283.92 465.629 1296 642.962 1296 732 c 0
 1296 1080 1126.63 1298 802 1298 c 0
 404 1298 304 1001.83 304 711 c 0
 304 479.656 388.11 317.771 543 230 c 1
 585.966 394.051 751.391 475 895 475 c 0
1496 731 m 0
 1496 396 1390.41 260.727 1317 204 c 1
 1334 185 1358 176 1390 175 c 0
 1429.43 175 1488.24 191.53 1533 228 c 1
 1659 90 l 1
 1585 21 1498 -14 1399 -14 c 0
 1313.43 -14 1214.76 15.8813 1156 88 c 1
 1052.02 21.536 962.3 -10 820 -10 c 0
 372.82 -10 104 284 104 714 c 0
 104 1187.74 368 1478 801 1478 c 0
 1229.65 1478 1496 1175.8 1496 731 c 0
1050 226 m 1
 1010 273 963 297 908 297 c 0
 770.427 297 738.018 174.037 738 174 c 1
 755 169 776 167 803 167 c 0
 923.071 168.559 1014.63 197.057 1050 226 c 1
EndSplineSet
EndChar

StartChar: R
Encoding: 82 82 54
Width: 1400
Flags: W
HStem: 0 21G<158 338 1092.9 1387> 580 173<338 698> 1277 173<338 966.255>
VStem: 158 180<0 580 753 1277> 1077 200<861.246 1181> 1107 280<0 280>
LayerCount: 2
Fore
SplineSet
698 580 m 1xf4
 338 580 l 1
 338 0 l 1
 158 0 l 1
 158 1450 l 1
 711 1450 l 2
 1175 1450 1277 1260 1277 1026 c 0xf8
 1277 799.475 1150.84 630.226 924 596 c 1
 1387 0 l 1
 1107 0 l 1
 698 580 l 1xf4
731 753 m 2
 925 753 1077 806.4 1077 1020 c 0
 1077 1155 1035 1277 727 1277 c 2
 338 1277 l 1
 338 753 l 1
 731 753 l 2
EndSplineSet
EndChar

StartChar: S
Encoding: 83 83 55
Width: 1366
Flags: W
HStem: -10 174<483.503 930.852> 1300 171<448.498 872.308>
VStem: 92 183<359.788 502> 148 187<972.48 1200.51> 1029 186<1019 1205> 1072 187<287.656 532.599>
LayerCount: 2
Fore
SplineSet
1259 429 m 0xd4
 1259 157.466 1014 -10 717 -10 c 0
 203.015 -10 96.9346 291.456 92 502 c 1
 275 502 l 1
 303.137 270.985 466.23 164 708 164 c 0
 897.429 164 1072 238.835 1072 413 c 0xe4
 1074.63 616.516 816.958 624.822 639 666 c 0
 383.86 727.701 148 799.724 148 1067 c 0
 148 1323.07 372 1471 664 1471 c 0
 964 1471 1192.28 1319.28 1215 1019 c 1
 1029 1019 l 1xd8
 1009.25 1191.33 880 1300 672 1300 c 0
 390.97 1300 335 1168 335 1080 c 0
 335 904 559.661 882.553 692 852 c 0
 883.931 807.689 1259 780 1259 429 c 0xd4
EndSplineSet
EndChar

StartChar: T
Encoding: 84 84 56
Width: 1251
Flags: W
HStem: 0 21G<538 718> 1280 170<48 538 718 1210>
VStem: 538 180<0 1280>
LayerCount: 2
Fore
SplineSet
538 0 m 1
 538 1280 l 1
 48 1280 l 1
 48 1450 l 1
 1210 1450 l 1
 1210 1280 l 1
 718 1280 l 1
 718 0 l 1
 538 0 l 1
EndSplineSet
EndChar

StartChar: U
Encoding: 85 85 57
Width: 1479
Flags: W
HStem: -10 180<527.481 962.652> 1430 20G<161 341 1134 1314>
VStem: 161 180<352.477 1450> 1134 180<342.039 1450>
LayerCount: 2
Fore
SplineSet
737 170 m 0
 1054.6 170 1134 337.419 1134 568 c 2
 1134 1450 l 1
 1314 1450 l 1
 1314 567 l 2
 1314 182 1123 -10 741 -10 c 0
 277 -10 161 263.734 161 567 c 2
 161 1450 l 1
 341 1450 l 1
 341 568 l 2
 341 249.6 536.402 170 737 170 c 0
EndSplineSet
EndChar

StartChar: V
Encoding: 86 86 58
Width: 1366
Flags: W
HStem: 0 21G<569.166 783.917> 1430 20G<9 226.822 1143.89 1350>
VStem: 9 210<1240 1450> 1152 198<1252 1450>
DStem2: 219 1450 9 1450 0.364738 -0.93111<0 1257.38> 677 279 776 0 0.368072 0.929797<0 1263.63>
LayerCount: 2
Fore
SplineSet
577 0 m 1
 9 1450 l 1
 219 1450 l 1
 677 279 l 1
 1152 1450 l 1
 1350 1450 l 1
 776 0 l 1
 577 0 l 1
EndSplineSet
EndChar

StartChar: W
Encoding: 87 87 59
Width: 1933
Flags: W
HStem: 0 21G<408.634 617.966 1304.03 1513.37> 1170 280<694 1228>
VStem: 25 199<1251 1450> 1698 199<1251 1450>
DStem2: 224 1450 25 1450 0.259113 -0.965847<0 1098.68> 513 390 612 0 0.285845 0.958276<0 875.514> 1088 1450 961 1170 0.285845 -0.958276<232.015 1107.53> 1409 390 1508 0 0.259113 0.965847<0 1098.68>
LayerCount: 2
Fore
SplineSet
414 0 m 1
 25 1450 l 1
 224 1450 l 1
 513 390 l 1
 834 1450 l 1
 1088 1450 l 1
 1409 390 l 1
 1698 1450 l 1
 1897 1450 l 1
 1508 0 l 1
 1310 0 l 1
 961 1170 l 1
 612 0 l 1
 414 0 l 1
EndSplineSet
EndChar

StartChar: X
Encoding: 88 88 60
Width: 1366
Flags: W
HStem: 0 21G<9 253.421 1108.58 1353> 1430 20G<76 319.686 1068.33 1313>
VStem: 9 230<0 230> 76 230<1220 1450> 1083 230<1220 1450> 1123 230<0 230>
DStem2: 9 0 239 0 0.595201 0.803577<136.896 892.568 1124.8 1804.43> 306 1450 76 1450 0.585409 -0.810738<0 663.813 898.116 1653.85>
LayerCount: 2
Fore
SplineSet
9 0 m 1xe4
 564 756 l 1
 76 1450 l 1
 306 1450 l 1
 681 902 l 1
 1083 1450 l 1
 1313 1450 l 1xd8
 798 756 l 1
 1353 0 l 1
 1123 0 l 1
 681 613 l 1
 239 0 l 1
 9 0 l 1xe4
EndSplineSet
EndChar

StartChar: Y
Encoding: 89 89 61
Width: 1366
Flags: W
HStem: 0 21G<571 765> 1431 20G<6 250.899 1105.23 1350>
VStem: 6 230<1221 1451> 571 194<0 621> 1120 230<1221 1451>
DStem2: 680 855 765 621 0.576103 0.817377<0 740.642>
LayerCount: 2
Fore
SplineSet
571 0 m 1
 571 621 l 1
 6 1451 l 1
 236 1451 l 1
 680 855 l 1
 1120 1451 l 1
 1350 1451 l 1
 765 621 l 1
 765 0 l 1
 571 0 l 1
EndSplineSet
EndChar

StartChar: Z
Encoding: 90 90 62
Width: 1251
Flags: W
HStem: 0 180<325 1200> 1270 180<45 945>
LayerCount: 2
Fore
SplineSet
41 0 m 1
 41 187 l 1
 945 1270 l 1
 45 1270 l 1
 45 1450 l 1
 1213 1450 l 1
 1213 1270 l 1
 325 180 l 1
 1200 180 l 1
 1200 0 l 1
 41 0 l 1
EndSplineSet
EndChar

StartChar: bracketleft
Encoding: 91 91 63
Width: 569
Flags: W
HStem: -407 149<319 536> 1317 149<319 536>
VStem: 139 397<-407 -258 1317 1466> 139 180<-258 1317>
LayerCount: 2
Fore
SplineSet
139 -407 m 1xe0
 139 1466 l 1
 536 1466 l 1
 536 1317 l 1xe0
 319 1317 l 1
 319 -258 l 1xd0
 536 -258 l 1
 536 -407 l 1
 139 -407 l 1xe0
EndSplineSet
EndChar

StartChar: backslash
Encoding: 92 92 64
Width: 569
Flags: W
VStem: 0 145<1346 1491> 425 144<-25 119>
DStem2: 145 1491 0 1491 0.269936 -0.962878<0 1535.31>
LayerCount: 2
Fore
SplineSet
425 -25 m 1
 0 1491 l 1
 145 1491 l 1
 569 -25 l 1
 425 -25 l 1
EndSplineSet
EndChar

StartChar: bracketright
Encoding: 93 93 65
Width: 569
Flags: W
HStem: -407 149<39 256> 1317 149<39 256>
VStem: 39 397<-407 -258 1317 1466> 256 180<-258 1317>
LayerCount: 2
Fore
SplineSet
436 -407 m 1xe0
 39 -407 l 1
 39 -258 l 1xe0
 256 -258 l 1
 256 1317 l 1xd0
 39 1317 l 1
 39 1466 l 1
 436 1466 l 1
 436 -407 l 1xe0
EndSplineSet
EndChar

StartChar: asciicircum
Encoding: 94 94 66
Width: 961
Flags: W
VStem: 54 185<690 875> 726 181<690 871>
DStem2: 54 690 239 690 0.403275 0.915079<74.6058 717.694>
LayerCount: 2
Fore
SplineSet
239 690 m 1
 54 690 l 1
 407 1491 l 1
 552 1491 l 1
 907 690 l 1
 726 690 l 1
 479 1287 l 1
 239 690 l 1
EndSplineSet
EndChar

StartChar: underscore
Encoding: 95 95 67
Width: 1139
Flags: W
HStem: -407 130<-31 1162>
LayerCount: 2
Fore
SplineSet
-31 -407 m 1
 -31 -277 l 1
 1162 -277 l 1
 1162 -407 l 1
 -31 -407 l 1
EndSplineSet
EndChar

StartChar: grave
Encoding: 96 96 68
Width: 682
Flags: W
HStem: 1454 20G<89 339.643>
LayerCount: 2
Fore
SplineSet
465 1194 m 1
 320 1194 l 1
 89 1474 l 1
 330 1474 l 1
 465 1194 l 1
EndSplineSet
EndChar

StartChar: a
Encoding: 97 97 69
Width: 1139
Flags: W
HStem: -24 141<326.23 656.382> 0 21G<854.5 1052> 533 141<657.259 813> 937 149<374.267 738.206>
VStem: 74 192<174.67 389.954> 105 176<757.045 839.294> 813 182<265.553 533 660.176 865.747>
LayerCount: 2
Fore
SplineSet
995 445 m 2xb6
 995 153.367 999.676 93.2732 1052 0 c 1
 864 0 l 1x76
 845 37 833 81 828 131 c 1
 731.532 48.9304 616.491 -24 437 -24 c 0
 148.738 -24 74 155.493 74 280 c 0xba
 74 402 146.088 534.649 332 585 c 0
 450.965 615.591 659.219 620.511 813 674 c 1
 814 699 819.35 716.486 814 721 c 2
 814 849 758.666 937 558 937 c 0
 389.147 937 318.463 882.882 281 735 c 1
 105 759 l 1
 145.71 989.726 321 1086 584 1086 c 0
 998.639 1086 995 864.037 995 685 c 2
 995 445 l 2xb6
266 285 m 0xba
 266 217.8 307.225 117 480 117 c 0
 628.092 117 737.085 187.54 784 287 c 0
 803 328 813 388 813 467 c 2
 813 533 l 1
 581.772 436.951 266 500.283 266 285 c 0xba
EndSplineSet
EndChar

StartChar: b
Encoding: 98 98 70
Width: 1139
Flags: W
HStem: -10 159<443.274 737.519> 921 165<457.959 739.787> 1446 20G<134 314>
VStem: 134 180<0 119 300.638 752.364 943 1466> 883 172<312.421 763.391>
LayerCount: 2
Fore
SplineSet
596 -10 m 0
 419 -10 329.64 81.7677 301 119 c 1
 301 0 l 1
 134 0 l 1
 134 1466 l 1
 314 1466 l 1
 314 943 l 1
 390 1038 487 1086 605 1086 c 0
 886.535 1086 1055 858.64 1055 547 c 0
 1055 227.691 893.456 -10 596 -10 c 0
589 921 m 0
 425.784 921 312 749.481 312 539 c 0
 312 224.058 473.4 149 581 149 c 0
 776.87 150.865 883 306.224 883 532 c 0
 883 852.158 706.6 921 589 921 c 0
EndSplineSet
EndChar

StartChar: c
Encoding: 99 99 71
Width: 1024
Flags: W
HStem: -10 170<402.641 733.313> 916 170<403.529 720.781>
VStem: 80 185<314.723 768.273> 828 177<255.949 403 696 809.561>
LayerCount: 2
Fore
SplineSet
561 160 m 0
 683.376 160.949 822.878 203.254 828 403 c 1
 1005 403 l 1
 996.642 137.202 828.814 -10 563 -10 c 0
 309.807 -10 80 174.001 80 527 c 0
 80 866.849 252.14 1086 564 1086 c 0
 947.497 1086 1003 806.9 1003 696 c 1
 828 696 l 1
 815.792 816.338 713.944 916 571 916 c 0
 365.794 919.796 265 786 265 532 c 0
 265 225 441.801 160 561 160 c 0
EndSplineSet
EndChar

StartChar: d
Encoding: 100 100 72
Width: 1139
Flags: W
HStem: -10 154<395.853 669.161> 917 169<390.001 678.899> 1446 20G<812 991>
VStem: 70 185<300.607 762.478> 817 174<0 122 313.028 748.922 958 1466>
LayerCount: 2
Fore
SplineSet
519 1086 m 0
 694.8 1086 768.504 1013.91 812 958 c 1
 812 1466 l 1
 991 1466 l 1
 991 0 l 1
 824 0 l 1
 824 122 l 1
 764 34 665 -10 527 -10 c 0
 244.399 -8.38854 70 218.516 70 530 c 0
 70 848 228.21 1086 519 1086 c 0
544 917 m 0
 312.8 917 255 708.281 255 530 c 0
 255 210.475 428.4 144 544 144 c 0
 657.849 141.217 817 272.519 817 515 c 0
 817 776 695.709 917 544 917 c 0
EndSplineSet
EndChar

StartChar: e
Encoding: 101 101 73
Width: 1139
Flags: W
HStem: -10 162<402.089 755.956> 485 164<271 862> 914 172<406.153 745.508>
VStem: 75 192<295.922 485 649 777.53> 862 192<249.415 333 649 790.894>
LayerCount: 2
Fore
SplineSet
267 485 m 1
 273.291 212.919 434.738 152 582 152 c 0
 731.867 151.333 825.167 214.078 862 333 c 1
 1048 333 l 1
 1007.59 123.914 836.218 -10 581 -10 c 0
 258.588 -10 75 183.149 75 522 c 0
 75 858.754 252.502 1086 571 1086 c 0
 886.355 1086 1051.84 863.413 1054 520 c 0
 1054 508 1054 496 1053 485 c 1
 267 485 l 1
862 649 m 1
 852.081 756.581 804.2 914 573 914 c 0
 403.013 914 280.882 803.154 271 649 c 1
 862 649 l 1
EndSplineSet
EndChar

StartChar: f
Encoding: 102 102 74
Width: 569
Flags: W
HStem: 0 21G<178 357> 922 140<19 178 357 536> 1343 172<396.119 637.428>
VStem: 178 179<0 922 1062 1307.38>
LayerCount: 2
Fore
SplineSet
501 1343 m 0
 419.528 1346.54 357 1298.75 357 1160 c 2
 357 1062 l 1
 536 1062 l 1
 536 922 l 1
 357 922 l 1
 357 0 l 1
 178 0 l 1
 178 922 l 1
 19 922 l 1
 19 1062 l 1
 178 1062 l 1
 178 1175 l 2
 178 1447 354.701 1515 487 1515 c 0
 538 1515 589 1506 640 1488 c 1
 640 1316 l 1
 585 1334 539 1343 501 1343 c 0
EndSplineSet
EndChar

StartChar: g
Encoding: 103 103 75
Width: 1139
Flags: W
HStem: -435 167<353.527 693.88> 0 175<379.314 700.734> 917 169<387.35 694.924> 1042 20G<836 1002>
VStem: 66 185<318.739 769.204> 102 175<-194.602 -74> 836 166<341.573 736.703 974 1062>
LayerCount: 2
Fore
SplineSet
1002 144 m 2xda
 1002 -296.112 859.35 -435 522 -435 c 0
 276.59 -435 108.444 -309.06 102 -74 c 1
 277 -74 l 1xd6
 275.78 -219.587 400.365 -268 521 -268 c 0
 760 -268 819.853 -112.81 819 139 c 1
 740 46 642 0 525 0 c 0
 239.324 0 66 223.37 66 537 c 0
 66 853.886 234.699 1086 526 1086 c 0xea
 667 1086 770 1049 836 974 c 1
 836 1062 l 1
 1002 1062 l 1
 1002 144 l 2xda
539 917 m 0xea
 348.53 917 251 769.105 251 550 c 0
 251 322.098 333.39 175 542 175 c 0
 729 175 822 298 822 544 c 0
 822 862.63 652.2 917 539 917 c 0xea
EndSplineSet
EndChar

StartChar: h
Encoding: 104 104 76
Width: 1139
Flags: W
HStem: 0 21G<135 315 820 1000> 882 204<434.207 736.96> 1446 20G<135 315>
VStem: 135 180<0 747.97 961 1466> 820 180<0 797.69>
LayerCount: 2
Fore
SplineSet
596 882 m 0
 406 882 315 756 315 532 c 2
 315 0 l 1
 135 0 l 1
 135 1466 l 1
 315 1466 l 1
 315 961 l 1
 381 1048 495 1086 600 1086 c 0
 920 1086 1000 846 1000 664 c 2
 1000 0 l 1
 820 0 l 1
 820 624 l 2
 820 796 745 882 596 882 c 0
EndSplineSet
EndChar

StartChar: i
Encoding: 105 105 77
Width: 455
Flags: W
HStem: 0 21G<136 316> 1042 20G<136 316> 1259 207<136 316>
VStem: 136 180<0 1062 1259 1466>
LayerCount: 2
Fore
SplineSet
136 1259 m 1
 136 1466 l 1
 316 1466 l 1
 316 1259 l 1
 136 1259 l 1
136 0 m 1
 136 1062 l 1
 316 1062 l 1
 316 0 l 1
 136 0 l 1
EndSplineSet
EndChar

StartChar: j
Encoding: 106 106 78
Width: 455
Flags: W
HStem: -428 161<-92.0353 99.0161> 1042 20G<134 314> 1257 209<134 314>
VStem: 134 180<-233.074 1062 1257 1466>
LayerCount: 2
Fore
SplineSet
134 1257 m 1
 134 1466 l 1
 314 1466 l 1
 314 1257 l 1
 134 1257 l 1
314 -58 m 2
 314 -335.953 204 -428 39 -428 c 0
 -1 -428 -45 -423 -94 -412 c 1
 -94 -259 l 1
 -59 -264 -30 -267 -7 -267 c 0
 89.9141 -267 134 -222.582 134 -54 c 2
 134 1062 l 1
 314 1062 l 1
 314 -58 l 2
EndSplineSet
EndChar

StartChar: k
Encoding: 107 107 79
Width: 1024
Flags: W
HStem: 0 21G<136 316 781.072 1016> 1042 20G<722.278 975> 1446 20G<136 316>
VStem: 136 180<0 421 630 1466> 742 233<829 1062> 794 222<0 222>
DStem2: 316 630 443 543 0.716829 0.697249<0 30.3766 207.853 606.581> 569 668 443 543 0.556135 -0.831092<33.8135 680.3>
LayerCount: 2
Fore
SplineSet
136 0 m 1xf4
 136 1466 l 1
 316 1466 l 1
 316 630 l 1
 742 1062 l 1
 975 1062 l 1xf8
 569 668 l 1
 1016 0 l 1
 794 0 l 1
 443 543 l 1
 316 421 l 1
 316 0 l 1
 136 0 l 1xf4
EndSplineSet
EndChar

StartChar: l
Encoding: 108 108 80
Width: 455
Flags: W
HStem: 0 21G<131 311> 1446 20G<131 311>
VStem: 131 180<0 1466>
LayerCount: 2
Fore
SplineSet
131 0 m 1
 131 1466 l 1
 311 1466 l 1
 311 0 l 1
 131 0 l 1
EndSplineSet
EndChar

StartChar: m
Encoding: 109 109 81
Width: 1706
Flags: W
HStem: 0 21G<135 315 766 946 1395 1574> 930 156<435.161 707.761 1068.15 1334.37> 1042 20G<135 296>
VStem: 135 180<0 806.833> 135 161<913 1062> 766 180<0 812.072> 1395 179<0 866.615>
LayerCount: 2
Fore
SplineSet
766 690 m 2xce
 766 873.995 690.8 930 578 930 c 0
 468.145 930 379.147 867.343 344 773 c 0
 325 722 315 648 315 551 c 2
 315 0 l 1
 135 0 l 1xd6
 135 1062 l 1
 296 1062 l 1xae
 296 913 l 1
 326.874 961.651 424.8 1086 618 1086 c 0
 793.151 1086 881.003 1003.94 918 900 c 1
 1002 1024 1111 1086 1246 1086 c 0
 1442.52 1086 1574 985.9 1574 729 c 2
 1574 0 l 1
 1395 0 l 1
 1395 669 l 2
 1395 855 1341 930 1206 930 c 0
 1116.31 930 946 893.4 946 617 c 2
 946 0 l 1
 766 0 l 1
 766 690 l 2xce
EndSplineSet
EndChar

StartChar: n
Encoding: 110 110 82
Width: 1139
Flags: W
HStem: 0 21G<135 315 820 1000> 882 204<434.207 736.96> 1044 20G<135 315>
VStem: 135 180<0 747.97 961 1064> 820 180<0 797.69>
LayerCount: 2
Fore
SplineSet
596 882 m 0xd8
 406 882 315 756 315 532 c 2
 315 0 l 1
 135 0 l 1
 135 1064 l 1
 315 1064 l 1xb8
 315 961 l 1
 381 1048 495 1086 600 1086 c 0
 920 1086 1000 846 1000 664 c 2
 1000 0 l 1
 820 0 l 1
 820 624 l 2
 820 796 745 882 596 882 c 0xd8
EndSplineSet
EndChar

StartChar: o
Encoding: 111 111 83
Width: 1139
Flags: W
HStem: -11 158<400.278 729.924> 928 158<401.017 726.071>
VStem: 68 185<303.339 761.138> 878 185<305.908 758.87>
LayerCount: 2
Fore
SplineSet
566 -11 m 0
 246.365 -11 68 189.597 68 531 c 0
 68 866.654 244.475 1086 566 1086 c 0
 873.91 1086 1063 874.017 1063 546 c 0
 1063 115.931 820.5 -11 566 -11 c 0
566 928 m 0
 358.336 928 253 772.984 253 531 c 0
 253 201.303 440.8 147 566 147 c 0
 774.984 147 878 293.001 878 537 c 0
 878 858.453 690.8 928 566 928 c 0
EndSplineSet
EndChar

StartChar: p
Encoding: 112 112 84
Width: 1139
Flags: W
HStem: -10 165<445.302 727.839> 927 159<431.208 726.378>
VStem: 122 180<-390 133 325.11 775.269 957 1076> 871 172<312.658 761.896>
LayerCount: 2
Fore
SplineSet
1043 529 m 0
 1043 217.71 874.83 -10 593 -10 c 0
 475 -10 378 38 302 133 c 1
 302 -390 l 1
 122 -390 l 1
 122 1076 l 1
 289 1076 l 1
 289 957 l 1
 317.64 994.232 407 1086 584 1086 c 0
 881.008 1086 1043 852 1043 529 c 0
569 927 m 0
 461.095 927 300 851.732 300 537 c 0
 300 329.873 410.8 155 577 155 c 0
 694.6 155 871 223.727 871 544 c 0
 871 740 784 927 569 927 c 0
EndSplineSet
EndChar

StartChar: q
Encoding: 113 113 85
Width: 1139
Flags: W
HStem: -10 165<402.213 684.041> 927 159<403.983 698.726>
VStem: 87 172<312.61 761.973> 828 180<-390 133 323.636 775.362 957 1076>
LayerCount: 2
Fore
SplineSet
546 1086 m 0
 723 1086 812.36 994.232 841 957 c 1
 841 1076 l 1
 1008 1076 l 1
 1008 -390 l 1
 828 -390 l 1
 828 133 l 1
 752 38 655 -10 537 -10 c 0
 255.465 -10 87 217.36 87 529 c 0
 87 848.309 248.544 1086 546 1086 c 0
553 155 m 0
 716.216 155 830 326.519 830 537 c 0
 830 851.942 668.6 927 561 927 c 0
 348 927 259 744 259 544 c 0
 259 223.842 435.4 155 553 155 c 0
EndSplineSet
EndChar

StartChar: r
Encoding: 114 114 86
Width: 682
Flags: W
HStem: 0 21G<133 313> 900 177<400.409 661.449> 1042 20G<133 295>
VStem: 133 180<0 798.166> 133 162<947 1062>
LayerCount: 2
Fore
SplineSet
518 900 m 0xc8
 395 900 313 802.212 313 556 c 2
 313 0 l 1
 133 0 l 1xd0
 133 1062 l 1
 295 1062 l 1xa8
 295 947 l 1
 326.288 1008.22 415.773 1077 533 1077 c 0
 598 1077 657 1061 710 1028 c 1
 648 861 l 1
 604 887 561 900 518 900 c 0xc8
EndSplineSet
EndChar

StartChar: s
Encoding: 115 115 87
Width: 1024
Flags: W
HStem: -11 162<333.735 688.638> 925 161<330.862 667.263>
VStem: 63 178<244.515 358> 93 186<698.114 876.482> 729 176<764 864.388> 760 185<216.092 397.26>
LayerCount: 2
Fore
SplineSet
945 325 m 0xd4
 945 123.4 764.481 -11 517 -11 c 0
 247.252 -11 79.4862 118.951 63 358 c 1
 241 358 l 1
 260.391 218.628 351.53 151 516 151 c 0
 651.986 151 760 213 760 306 c 0xe4
 760 477 476.519 445.93 279 520 c 0
 130.481 574.838 93 698.786 93 780 c 0
 93 987 271.394 1086 484 1086 c 0
 834.709 1086 905 867.08 905 764 c 1
 729 764 l 1xd8
 713.546 873.267 645 925 499 925 c 0
 375.25 925 279 882 279 778 c 0
 279 687 364.805 672.674 517 644 c 0
 728.399 604.051 945 568.18 945 325 c 0xd4
EndSplineSet
EndChar

StartChar: t
Encoding: 116 116 88
Width: 569
Flags: W
HStem: -13 166<362.374 531.161> 922 140<18 168 347 497>
VStem: 168 179<164.227 922 1062 1433>
LayerCount: 2
Fore
SplineSet
347 301 m 2
 347 207.379 352.6 153 449 153 c 0
 466 153 492 156 528 161 c 1
 554 2 l 1
 506 -8 458 -13 411 -13 c 0
 202.65 -13 168 100 168 311 c 2
 168 922 l 1
 18 922 l 1
 18 1062 l 1
 168 1062 l 1
 168 1433 l 1
 347 1433 l 1
 347 1062 l 1
 497 1062 l 1
 497 922 l 1
 347 922 l 1
 347 301 l 2
EndSplineSet
EndChar

StartChar: u
Encoding: 117 117 89
Width: 1139
Flags: W
HStem: -10 211<379.949 700.406> 1065 20G<104 284 789 969>
VStem: 104 180<301.634 1085> 789 180<0 64 290.897 1085>
LayerCount: 2
Fore
SplineSet
284 461 m 2
 284 253 422.422 201 534 201 c 0
 704 201 789 286 789 456 c 2
 789 1085 l 1
 969 1085 l 1
 969 0 l 1
 789 0 l 1
 789 64 l 1
 745.901 15.5808 661.52 -10 541 -10 c 0
 255 -10 103.136 164.249 104 412 c 2
 104 1085 l 1
 284 1085 l 1
 284 461 l 2
EndSplineSet
EndChar

StartChar: v
Encoding: 118 118 90
Width: 1024
Flags: W
HStem: 0 21G<421.411 606.552> 1042 20G<26 223.667 802.686 1000>
VStem: 26 190<872 1062> 810 190<872 1062>
DStem2: 216 1062 26 1062 0.354787 -0.934947<0 849.268> 520 269 599 0 0.353246 0.93553<0 844.317>
LayerCount: 2
Fore
SplineSet
429 0 m 1
 26 1062 l 1
 216 1062 l 1
 520 269 l 1
 810 1062 l 1
 1000 1062 l 1
 599 0 l 1
 429 0 l 1
EndSplineSet
EndChar

StartChar: w
Encoding: 119 119 91
Width: 1479
Flags: W
HStem: 0 21G<324.879 524.41 969.415 1168.65> 1042 20G<6 197.686 642.51 837.809 1282.63 1463>
VStem: 6 186<876 1062> 1288 175<887 1062>
DStem2: 192 1062 6 1062 0.29263 -0.956226<0 848.17> 424 246 519 0 0.261117 0.965307<0 633.703> 832 1062 740 817 0.27643 -0.961034<210.022 849.718> 1069 246 1163 0 0.271848 0.96234<0 844.804>
LayerCount: 2
Fore
SplineSet
331 0 m 1
 6 1062 l 1
 192 1062 l 1
 424 246 l 1
 648 1062 l 1
 832 1062 l 1
 1069 246 l 1
 1288 1062 l 1
 1463 1062 l 1
 1163 0 l 1
 975 0 l 1
 901 265 l 1
 798 623 744 807 740 817 c 1
 519 0 l 1
 331 0 l 1
EndSplineSet
EndChar

StartChar: x
Encoding: 120 120 92
Width: 1024
Flags: W
HStem: 0 21G<15 245.983 774.492 1009> 1042 20G<44 281.5 751.489 981>
VStem: 15 218<0 218> 44 225<837 1062> 766 215<847 1062> 788 221<0 221>
DStem2: 15 0 233 0 0.577377 0.816478<125.868 125.868 846.086 1300.71> 607 562 505 419 0.573773 -0.819014<58.5942 564.139>
LayerCount: 2
Fore
SplineSet
15 0 m 1xe4
 396 552 l 1
 44 1062 l 1
 269 1062 l 1
 499 694 l 1
 766 1062 l 1
 981 1062 l 1xd8
 607 562 l 1
 1009 0 l 1
 788 0 l 1
 505 419 l 1
 233 0 l 1
 15 0 l 1xe4
EndSplineSet
EndChar

StartChar: y
Encoding: 121 121 93
Width: 1024
Flags: W
HStem: -422 168<127 360.39> 1042 20G<33 233.922 819.008 1006>
VStem: 33 194<868 1062> 826 180<882 1062>
DStem2: 227 1062 33 1062 0.354204 -0.935168<0 910.733> 525 201 602 -1 0.355264 0.934766<0 911.768>
LayerCount: 2
Fore
SplineSet
127 -409 m 1
 107 -240 l 1
 141 -249 177 -254 214 -254 c 0
 411.942 -254 430.716 -111.202 436 -2 c 1
 33 1062 l 1
 227 1062 l 1
 525 201 l 1
 826 1062 l 1
 1006 1062 l 1
 602 -1 l 1
 583.245 -181.051 532 -422 239 -422 c 0
 197.48 -422 156.818 -420.782 127 -409 c 1
EndSplineSet
EndChar

StartChar: z
Encoding: 122 122 94
Width: 1024
Flags: W
HStem: 0 155<262 980> 916 146<60 716>
DStem2: 40 155 262 155 0.669558 0.74276<148.642 1017.86>
LayerCount: 2
Fore
SplineSet
40 0 m 1
 40 155 l 1
 716 916 l 1
 60 916 l 1
 60 1062 l 1
 948 1062 l 1
 948 916 l 1
 262 155 l 1
 980 155 l 1
 980 0 l 1
 40 0 l 1
EndSplineSet
EndChar

StartChar: braceleft
Encoding: 123 123 95
Width: 684
Flags: W
HStem: -431 157<469.541 636> 449 163<57 181.577> 1334 157<469.541 636>
VStem: 264 169<-239.407 366.511 700.191 1302.08>
LayerCount: 2
Fore
SplineSet
57 612 m 1
 251.238 633.739 264 757.015 264 998 c 0
 264 1335 280 1491 580 1491 c 2
 636 1491 l 1
 636 1334 l 1
 605 1334 l 2
 450 1334 430 1330 430 975 c 0
 430 685 383.876 619.719 224 530 c 1
 390.711 453.717 432.221 344.093 433 80 c 0
 441.934 -181.217 400 -274 605 -274 c 2
 636 -274 l 1
 636 -431 l 1
 580 -431 l 2
 280 -431 264 -261.687 264 49 c 0
 264 315 256.792 422.779 57 449 c 1
 57 612 l 1
EndSplineSet
EndChar

StartChar: bar
Encoding: 124 124 96
Width: 532
Flags: W
VStem: 188 157<-431 1491>
LayerCount: 2
Fore
SplineSet
188 -431 m 1
 188 1491 l 1
 345 1491 l 1
 345 -431 l 1
 188 -431 l 1
EndSplineSet
EndChar

StartChar: braceright
Encoding: 125 125 97
Width: 684
Flags: W
HStem: -431 157<78 213.459> 449 163<501.423 626> 1334 157<78 213.459>
VStem: 250 169<-239.407 366.511 700.191 1302.08>
LayerCount: 2
Fore
SplineSet
626 612 m 1
 431.762 633.739 419 757.015 419 998 c 0
 419 1335 403 1491 103 1491 c 2
 47 1491 l 1
 47 1334 l 1
 78 1334 l 2
 233 1334 253 1330 253 975 c 0
 253 685 299.123 619.719 459 530 c 1
 292.289 453.717 250.779 344.093 250 80 c 0
 241.066 -181.217 283 -274 78 -274 c 2
 47 -274 l 1
 47 -431 l 1
 103 -431 l 2
 403 -431 419 -261.687 419 49 c 0
 419 315 426.207 422.778 626 449 c 1
 626 612 l 1
EndSplineSet
EndChar

StartChar: asciitilde
Encoding: 126 126 98
Width: 1196
Flags: W
HStem: 559 189<688.965 994.359> 693 189<199.435 520.196>
LayerCount: 2
Fore
SplineSet
348 693 m 0x40
 245.831 693 178.066 644.814 87 557 c 1
 87 762 l 1
 158 842 250 882 365 882 c 0x40
 558.531 882 716.304 748 852 748 c 0
 955.2 748 1055.1 825.53 1110 885 c 1
 1110 673 l 1
 1025.32 594.232 943.8 559 833 559 c 0x80
 635.211 559 509.509 693 348 693 c 0x40
EndSplineSet
EndChar

StartChar: exclamdown
Encoding: 161 161 100
Width: 680
Flags: W
HStem: 0 21G<228 452> 1059 20G<255.481 422.556> 1278 211<238 442>
VStem: 238 204<0 233.927 1278 1489> 256 166<563.382 1079>
LayerCount: 2
Fore
SplineSet
442 1278 m 1xf0
 238 1278 l 1
 238 1489 l 1
 442 1489 l 1
 442 1278 l 1xf0
452 0 m 1
 228 0 l 1
 256 1079 l 1
 422 1079 l 1xe8
 452 0 l 1
EndSplineSet
EndChar

StartChar: cent
Encoding: 162 162 101
Width: 1118
Flags: W
HStem: 1 140<463.884 557 671 817.407> 971 144<458.824 557> 1455 20G<557 671>
VStem: 114 193<320.326 797.973> 557 114<-361 1 146 971 1116 1475>
LayerCount: 2
Fore
SplineSet
975 83 m 1
 806.663 4.70371 714.329 2.99978 671 1 c 1
 671 -361 l 1
 557 -361 l 1
 557 2 l 1
 255.868 37.7989 114 249.271 114 557 c 0
 114 877.8 281.354 1083.04 557 1115 c 1
 557 1475 l 1
 671 1475 l 1
 671 1116 l 1
 793.544 1111.77 903.424 1073.76 975 1037 c 1
 975 837 l 1
 965 837 l 1
 819.578 957.594 712.767 970.838 671 977 c 1
 671 141 l 1
 704.405 144.037 820.781 158.968 965 281 c 1
 975 281 l 1
 975 83 l 1
557 971 m 1
 494.027 959.55 307 907.452 307 557 c 0
 307 209.159 494.626 156.811 557 146 c 1
 557 971 l 1
EndSplineSet
EndChar

StartChar: sterling
Encoding: 163 163 102
Width: 1118
Flags: W
HStem: 0 207<89 173.914> 0 171<261 1031> 613 138<130 291 483 847> 1264 206<915.436 1001> 1351 167<577.692 914.922>
VStem: 291 192<367.766 613 751 1243.96>
LayerCount: 2
Fore
SplineSet
483 552 m 2x2c
 483 330 322.215 217.854 261 182 c 1
 261 171 l 1
 1031 171 l 1
 1031 0 l 1x6c
 89 0 l 1
 89 207 l 1
 252.574 255.63 291 397.598 291 613 c 1
 130 613 l 1
 130 751 l 1
 291 751 l 1
 291 1071 l 2
 291 1339.85 459.022 1518 708 1518 c 0xac
 788.727 1518 837.68 1516.06 1001 1470 c 1
 1001 1264 l 1
 991 1264 l 1x34
 903.328 1324.7 806.458 1351 727 1351 c 0
 553.448 1351 483 1232.29 483 1052 c 2
 483 751 l 1
 847 751 l 1
 847 613 l 1
 483 613 l 1
 483 552 l 2x2c
EndSplineSet
EndChar

StartChar: currency
Encoding: 164 164 103
Width: 1118
Flags: W
HStem: 326 138<439.442 679.559> 858 138<439.806 680.386>
VStem: 225 143<534.583 784.978> 752 144<536.981 787.252>
DStem2: 172 1157 65 1051 0.707506 -0.706707<0 314.207 937.866 1251.49> 65 273 170 164 0.706708 0.707505<0 313.631 936.585 1249.46>
LayerCount: 2
Fore
SplineSet
896 661 m 0
 896 608.403 880.942 545.285 843 486 c 1
 1057 272 l 1
 951 166 l 1
 737 378 l 1
 673.867 340.121 630.8 326 560 326 c 0
 490 326 426.063 353.336 385 379 c 1
 170 164 l 1
 65 273 l 1
 277 486 l 1
 239.533 545.506 225 612.815 225 661 c 0
 225 729.902 248.613 788.326 278 835 c 1
 65 1051 l 1
 172 1157 l 1
 386 944 l 1
 444.82 981.644 507.741 996 560 996 c 0
 630.4 996 692.362 970.786 736 945 c 1
 948 1157 l 1
 1057 1052 l 1
 843 836 l 1
 877.954 779.686 896 731 896 661 c 0
560 464 m 0
 659.638 464 752 547.413 752 661 c 0
 752 772.423 663.498 858 560 858 c 0
 460.361 858 368 774.587 368 661 c 0
 368 549.577 456.502 464 560 464 c 0
EndSplineSet
EndChar

StartChar: yen
Encoding: 165 165 104
Width: 1118
Flags: W
HStem: 0 21G<465 653> 440 138<125 465 653 993>
VStem: 56 210<1279 1489> 465 188<0 440 578 657> 858 201<1288 1489>
DStem2: 266 1489 56 1489 0.442898 -0.896572<0 703.122> 560 850 651 678 0.449415 0.893323<0 704.759>
LayerCount: 2
Fore
SplineSet
1059 1489 m 1
 651 678 l 1
 651 578 l 1
 993 578 l 1
 993 440 l 1
 653 440 l 1
 653 0 l 1
 465 0 l 1
 465 440 l 1
 125 440 l 1
 125 578 l 1
 467 578 l 1
 467 657 l 1
 56 1489 l 1
 266 1489 l 1
 560 850 l 1
 858 1489 l 1
 1059 1489 l 1
EndSplineSet
EndChar

StartChar: brokenbar
Encoding: 166 166 105
Width: 783
Flags: W
VStem: 308 167<-392 406 758 1556>
LayerCount: 2
Fore
SplineSet
475 758 m 1
 308 758 l 1
 308 1556 l 1
 475 1556 l 1
 475 758 l 1
475 -392 m 1
 308 -392 l 1
 308 406 l 1
 475 406 l 1
 475 -392 l 1
EndSplineSet
EndChar

StartChar: section
Encoding: 167 167 106
Width: 1118
Flags: W
HStem: -385 165<278.352 692.275> -327 194<172 280.406> 1268 194<836.018 946> 1355 164<421.288 840.196>
VStem: 119 189<445.861 702.527> 148 192<1053.42 1281.39> 776 193<-147.764 83.3835> 810 188<430.123 688.913>
DStem2: 492 369 460 192 0.955543 -0.294853<-174.454 214.509>
LayerCount: 2
Fore
SplineSet
667 315 m 1x09
 700.067 335.349 810 411 810 555 c 0
 810 710.945 707.24 744.844 549 788 c 2
 450 819 l 1
 323.928 741.417 308 624.302 308 579 c 0
 308 443.739 385.135 401.653 492 369 c 2
 667 315 l 1x09
490 -385 m 0x92
 367.915 -385 262.974 -360.082 172 -327 c 1
 172 -133 l 1
 182 -133 l 1x42
 244.649 -166.167 369.824 -220 509 -220 c 0
 617.884 -220 776 -183.2 776 -36 c 0
 776 75.8701 711.013 120.568 594 154 c 2
 460 192 l 2
 286.683 241.939 119 307.619 119 533 c 0x8a
 119 610.727 144.313 751.714 318 858 c 1
 318 865 l 1
 249.492 902.062 148 977.8 148 1147 c 0
 148 1320.36 268.122 1519 628 1519 c 0x94
 755.2 1519 848.369 1496.75 946 1462 c 1
 946 1268 l 1
 936 1268 l 1x24
 764.557 1353.72 660.306 1355 607 1355 c 0
 470.159 1355 340 1302.05 340 1176 c 0
 340 1035.6 429.831 999.906 657 942 c 0
 863.431 886.616 998 805.274 998 601 c 0x15
 998 516.171 972.559 381.135 799 277 c 1
 799 270 l 1
 871.876 231.049 969 158 969 -10 c 0
 969 -160 865.729 -385 490 -385 c 0x92
EndSplineSet
EndChar

StartChar: dieresis
Encoding: 168 168 107
Width: 1118
Flags: W
HStem: 1304 195<253 454 666 867>
VStem: 253 201<1304 1499> 666 201<1304 1499>
LayerCount: 2
Fore
SplineSet
867 1304 m 1
 666 1304 l 1
 666 1499 l 1
 867 1499 l 1
 867 1304 l 1
454 1304 m 1
 253 1304 l 1
 253 1499 l 1
 454 1499 l 1
 454 1304 l 1
EndSplineSet
EndChar

StartChar: copyright
Encoding: 169 169 108
Width: 1902
Flags: W
HStem: -210 110<697.445 1205.56> 180 147<833.888 1160.54> 255 179<1198.62 1274> 889 181<1197.94 1274> 996 147<831.454 1159.17> 1409 110<697.445 1205.56>
VStem: 86 117<390.494 919.32> 531 185<454.683 870.14> 1701 115<390.494 919.32>
LayerCount: 2
Fore
SplineSet
1816 655 m 0x8780
 1816 416 1732 212 1562 44 c 0
 1394 -126 1190 -210 951 -210 c 0
 712 -210 508 -126 340 44 c 0
 170 212 86 416 86 655 c 0
 86 894 170 1097 340 1266 c 0
 508 1435 712 1519 951 1519 c 0
 1190 1519 1394 1435 1562 1266 c 0
 1732 1097 1816 894 1816 655 c 0x8780
1701 655 m 0
 1701 864 1628 1042 1482 1188 c 0
 1335 1336 1159 1409 952 1409 c 0
 745 1409 569 1336 422 1188 c 0
 276 1042 203 864 203 655 c 0
 203 446 276 268 422 121 c 0
 569 -26 745 -100 952 -100 c 0
 1159 -100 1335 -26 1482 121 c 0
 1628 268 1701 446 1701 655 c 0
986 327 m 0xcf80
 1124 327 1238 416 1258 434 c 1
 1274 434 l 1
 1274 255 l 1xa780
 1136 194 1076 180 982 180 c 0
 781 180 531 276 531 660 c 0
 531 973 718 1143 982 1143 c 0xcf80
 1099 1143 1202 1106 1274 1070 c 1
 1274 889 l 1
 1258 889 l 1x9780
 1203 937 1095 996 986 996 c 0
 878 996 716 948 716 660 c 0
 716 375 878 327 986 327 c 0xcf80
EndSplineSet
EndChar

StartChar: ordfeminine
Encoding: 170 170 109
Width: 1010
Flags: W
HStem: 541 155<326.944 602.653> 1045 139<397.302 708> 1304 170<189 346.777> 1365 154<252.971 663.031>
VStem: 114 172<736.854 960.643> 708 166<566 657 768.866 1045 1184 1319.56>
LayerCount: 2
Fore
SplineSet
483 1519 m 0xdc
 777.519 1519 874 1389 874 1194 c 2
 874 566 l 1
 708 566 l 1
 708 657 l 1
 657 618 l 2
 559.465 548.332 471.742 541 404 541 c 0
 238.177 541 114 661.554 114 839 c 0
 114 1115 340.185 1166.27 708 1184 c 1
 708 1203 l 2
 708 1332.6 631.142 1365 482 1365 c 0xdc
 424.633 1365 367.55 1360.61 204 1304 c 1
 189 1304 l 1
 189 1474 l 1xec
 221.161 1483.98 365.4 1519 483 1519 c 0xdc
461 696 m 0
 509.189 696 586.339 702.459 708 802 c 1
 708 1045 l 1
 499.86 1030.48 286 1030.58 286 849 c 0
 286 770.3 322.913 696 461 696 c 0
EndSplineSet
EndChar

StartChar: guillemotleft
Encoding: 171 171 110
Width: 1174
Flags: W
HStem: 162 196<417 613> 191 188<855 1043> 925 188<855 1043> 946 196<417 613>
VStem: 103 179<518.5 786.5> 555 171<524.5 780.5>
DStem2: 103 697 282 652 0.753491 0.657458<105.289 547.988> 282 652 103 608 0.75276 -0.658296<0 442.702> 555 695 726 652 0.759476 0.650535<101.897 520.247> 726 652 555 610 0.758708 -0.651431<0 418.351>
LayerCount: 2
Fore
SplineSet
1043 191 m 1x6c
 555 610 l 1
 555 695 l 1
 1043 1113 l 1
 1043 925 l 1
 726 652 l 1
 1043 379 l 1
 1043 191 l 1x6c
613 162 m 1x9c
 103 608 l 1
 103 697 l 1
 613 1142 l 1
 613 946 l 1
 282 652 l 1
 613 358 l 1
 613 162 l 1x9c
EndSplineSet
EndChar

StartChar: logicalnot
Encoding: 172 172 111
Width: 1490
Flags: W
HStem: 602 160<157 1152>
VStem: 1152 171<57 602>
LayerCount: 2
Fore
SplineSet
1323 57 m 1
 1152 57 l 1
 1152 602 l 1
 157 602 l 1
 157 762 l 1
 1323 762 l 1
 1323 57 l 1
EndSplineSet
EndChar

StartChar: registered
Encoding: 174 174 113
Width: 1902
Flags: W
HStem: -210 110<697.445 1205.56> 570 126<815 938> 1005 125<815 1088.77> 1409 110<697.445 1205.56>
VStem: 86 117<390.494 919.32> 650 165<215 570 696 1005> 1120 182<743.283 969.647> 1221 227<215 442> 1701 115<390.494 919.32>
DStem2: 1102 615 938 570 0.65421 -0.756313<0 380.376>
LayerCount: 2
Fore
SplineSet
1816 655 m 0xfc80
 1816 416 1732 212 1562 44 c 0
 1394 -126 1190 -210 951 -210 c 0
 712 -210 508 -126 340 44 c 0
 170 212 86 416 86 655 c 0
 86 894 170 1097 340 1266 c 0
 508 1435 712 1519 951 1519 c 0
 1190 1519 1394 1435 1562 1266 c 0
 1732 1097 1816 894 1816 655 c 0xfc80
1701 655 m 0
 1701 864 1628 1042 1482 1188 c 0
 1335 1336 1159 1409 952 1409 c 0
 745 1409 569 1336 422 1188 c 0
 276 1042 203 864 203 655 c 0
 203 446 276 268 422 121 c 0
 569 -26 745 -100 952 -100 c 0
 1159 -100 1335 -26 1482 121 c 0
 1628 268 1701 446 1701 655 c 0
1302 879 m 0xfe80
 1302 773.4 1252.99 676.419 1102 615 c 1
 1448 215 l 1
 1221 215 l 1xfd80
 938 570 l 1
 815 570 l 1
 815 215 l 1
 650 215 l 1
 650 1130 l 1
 929 1130 l 2
 1005.96 1130 1302 1146.49 1302 879 c 0xfe80
913 696 m 2
 1073.76 696 1120 764.8 1120 868 c 0xfe80
 1120 991.248 1024.14 1005 930 1005 c 2
 815 1005 l 1
 815 696 l 1
 913 696 l 2
EndSplineSet
EndChar

StartChar: macron
Encoding: 175 175 114
Width: 1118
Flags: W
HStem: 1659 130<-16 1134>
LayerCount: 2
Fore
SplineSet
1134 1659 m 1
 -16 1659 l 1
 -16 1789 l 1
 1134 1789 l 1
 1134 1659 l 1
EndSplineSet
EndChar

StartChar: degree
Encoding: 176 176 115
Width: 964
Flags: W
HStem: 755 152<349.939 615.24> 1363 152<347.264 615.19>
VStem: 101 157<999.407 1270.51> 706 157<998.393 1272.09>
LayerCount: 2
Fore
SplineSet
482 1515 m 0
 694.666 1515 863 1354.17 863 1135 c 0
 863 916.525 695.311 755 482 755 c 0
 270.225 755 101 914.493 101 1135 c 0
 101 1353.47 268.689 1515 482 1515 c 0
482 907 m 0
 616.4 907 706 1012.99 706 1135 c 0
 706 1268.77 606.777 1363 482 1363 c 0
 350.628 1363 258 1262.09 258 1135 c 0
 258 999.239 361.651 907 482 907 c 0
EndSplineSet
EndChar

StartChar: plusminus
Encoding: 177 177 116
Width: 1490
Flags: W
HStem: 159 158<162 662 828 1328> 739 158<162 662 828 1328>
VStem: 662 166<317 739 897 1402>
LayerCount: 2
Fore
SplineSet
1328 159 m 1
 162 159 l 1
 162 317 l 1
 662 317 l 1
 662 739 l 1
 162 739 l 1
 162 897 l 1
 662 897 l 1
 662 1402 l 1
 828 1402 l 1
 828 897 l 1
 1328 897 l 1
 1328 739 l 1
 828 739 l 1
 828 317 l 1
 1328 317 l 1
 1328 159 l 1
EndSplineSet
EndChar

StartChar: uni00B2
Encoding: 178 178 117
Width: 1010
Flags: W
HStem: 566 144<373 866> 1279 179<191 275.873> 1371 148<285.899 580.107>
VStem: 619 185<1079.01 1332.28>
DStem2: 332 832 373 710 0.79022 0.612824<-42.3655 339.944>
LayerCount: 2
Fore
SplineSet
481 1519 m 0xb0
 738.306 1519 804 1353.71 804 1239 c 0
 804 1064.2 684.346 945.307 496 802 c 2
 373 710 l 1
 866 710 l 1
 866 566 l 1
 185 566 l 1
 185 718 l 1
 332 832 l 2
 438.933 914.928 619 1055 619 1227 c 0
 619 1342.2 529 1371 457 1371 c 0xb0
 351.9 1371 246.611 1310.59 206 1279 c 1
 191 1279 l 1
 191 1458 l 1xd0
 268.232 1491.1 376.744 1519 481 1519 c 0xb0
EndSplineSet
EndChar

StartChar: uni00B3
Encoding: 179 179 118
Width: 1010
Flags: W
HStem: 542 139<277.74 617.602> 600 175<184 266.491> 968 139<334 600.126> 1283 175<199 280.486> 1380 139<299.482 606.211>
VStem: 641 173<1148.75 1344.86> 665 172<727.724 932.398>
LayerCount: 2
Fore
SplineSet
640 1047 m 1x2c
 740.933 1026.05 837 959.4 837 828 c 0
 837 713.6 767.528 542 474 542 c 0xaa
 394.347 542 289.628 553.327 184 600 c 1
 184 775 l 1
 201 775 l 1x62
 250.221 729.716 358.044 681 471 681 c 0
 551.772 681 665 710 665 826 c 0xa2
 665 936.57 590.641 968 474 968 c 2
 334 968 l 1
 334 1107 l 1
 459 1107 l 2
 564.318 1107 641 1152.04 641 1249 c 0
 641 1301.4 616.769 1380 472 1380 c 0xac
 371.188 1380 258.106 1321.74 216 1283 c 1
 199 1283 l 1
 199 1458 l 1x34
 279.996 1491.91 380.98 1519 492 1519 c 0
 737.142 1519 814 1377.52 814 1281 c 0
 814 1145.4 719.71 1081.57 640 1055 c 1
 640 1047 l 1x2c
EndSplineSet
EndChar

StartChar: acute
Encoding: 180 180 119
Width: 1118
Flags: W
LayerCount: 2
Fore
SplineSet
871 1676 m 1
 598 1302 l 1
 449 1302 l 1
 628 1676 l 1
 871 1676 l 1
EndSplineSet
EndChar

StartChar: mu
Encoding: 181 181 120
Width: 1163
Flags: W
HStem: -17 181<419.676 742.49> 0 21G<855 1027>
VStem: 136 188<-412 115 233.737 1117> 839 188<233.644 1117> 855 172<0 116>
LayerCount: 2
Fore
SplineSet
578 164 m 0xa8
 690.464 164 769.354 198.825 839 275 c 1
 839 1117 l 1
 1027 1117 l 1xb0
 1027 0 l 1
 855 0 l 1x68
 855 116 l 1
 849 116 l 1
 738.82 0.310537 660.521 -17 578 -17 c 0
 476.19 -17 417.838 11.0173 324 115 c 1
 324 -412 l 1
 136 -412 l 1
 136 1117 l 1
 324 1117 l 1
 324 275 l 1
 388.431 199.063 474.358 164 578 164 c 0xa8
EndSplineSet
EndChar

StartChar: paragraph
Encoding: 182 182 121
Width: 1118
Flags: W
HStem: 1359 130<655 842>
VStem: 57 598<843.193 1260.84> 515 140<-363 593> 842 140<-363 1359>
LayerCount: 2
Fore
SplineSet
57 1050 m 0xd0
 57 1339.52 249.566 1489 560 1489 c 2
 982 1489 l 1
 982 -363 l 1
 842 -363 l 1
 842 1359 l 1
 655 1359 l 1
 655 -363 l 1
 515 -363 l 1
 515 593 l 1xb0
 240.398 599.013 57 775.343 57 1050 c 0xd0
EndSplineSet
EndChar

StartChar: periodcentered
Encoding: 183 183 122
Width: 724
Flags: W
HStem: 832 285<243 482>
VStem: 243 239<832 1117>
LayerCount: 2
Fore
SplineSet
482 832 m 1
 243 832 l 1
 243 1117 l 1
 482 1117 l 1
 482 832 l 1
EndSplineSet
EndChar

StartChar: cedilla
Encoding: 184 184 123
Width: 1118
Flags: W
HStem: -423 150<296.153 575.469> -399 160<289 437.64>
VStem: 614 159<-236.596 20>
LayerCount: 2
Fore
SplineSet
614 -107 m 0xa0
 614 -56.2 613.418 -68.8702 610 20 c 1
 767 20 l 1
 769.643 -11.7217 773 -60.9227 773 -89 c 0
 773 -355.241 591.214 -423 466 -423 c 0xa0
 430.6 -423 356.701 -419.06 289 -399 c 1
 289 -239 l 1
 298 -239 l 1x60
 343.392 -258.859 389.585 -273 440 -273 c 0
 561.378 -273 614 -226.636 614 -107 c 0xa0
EndSplineSet
EndChar

StartChar: uni0E01
Encoding: 3585 3585 124
Width: 1376
VWidth: 2045
Flags: W
HStem: 0 21G<241 421.027 998 1178> 744 178<422 512> 1101 178<462.499 813.601>
VStem: 241 180<0 744> 998 180<0 912.322>
LayerCount: 2
Fore
SplineSet
101 744 m 1
 241 744 l 1
998 744 m 2
 998 937 847 1101 639 1101 c 0
 484 1101 394 1024 328 922 c 9
 512 922 l 1
 512 744 l 1
 422 744 l 1
 421 0 l 1
 241 0 l 1
 241 744 l 1
 101 744 l 1
 101 1058 358 1279 639 1279 c 0
 939 1279 1178 1038 1178 744 c 2
 1178 0 l 1
 998 0 l 1
 998 744 l 2
EndSplineSet
EndChar

StartChar: uni0E02
Encoding: 3586 3586 125
Width: 1352
VWidth: 2045
Flags: W
HStem: 0 178<382 470 651 973> 689 133<236.286 388.504> 1091 178<449 562.983> 1234 20G<973 1153>
VStem: 89 134<836.726 984> 403 136<834.361 986.904> 470 181<178 628.667> 629 180<773.458 1026.77> 973 180<178 1254>
LayerCount: 2
Fore
SplineSet
470 489 m 2xda80
 470 762 629 722 629 896 c 0
 629 1023 538 1091 449 1091 c 1
 470 1072 539 1019 539 911 c 0
 539 789 440 689 313 689 c 0
 217 689 89 749 89 939 c 0
 89 1086 232 1269 449 1269 c 0
 644 1269 809 1117 809 904 c 0xed80
 809 637 651 688 651 489 c 2
 651 178 l 1
 973 178 l 1
 973 1254 l 1
 1153 1254 l 1
 1153 0 l 1
 382 0 l 1
 382 178 l 1
 470 178 l 1
 470 489 l 2xda80
314 1000 m 0
 263 1000 223 959 223 912 c 0
 223 866 259 822 314 822 c 0
 370 822 403 867 403 912 c 0
 403 959 366 1000 314 1000 c 0
EndSplineSet
EndChar

StartChar: uni0E03
Encoding: 3587 3587 126
Width: 1376
VWidth: 2045
Flags: W
HStem: 0 178<433 524 704 1026> 586 133<195.866 347.124> 897 132<225.131 348.069> 1238 16G<222.5 345.217 564.902 645 1026 1206>
VStem: 29 152<732.658 880.942> 361 136<734.217 884.628> 524 180<178 592.402> 681 180<769.196 1030.25> 1026 180<178 1254>
LayerCount: 2
Fore
SplineSet
524 444 m 2xfe80
 524 694 681 757 681 900 c 0
 681 1020 596 1079 553 1100 c 1
 451 1042 l 1
 345 1103 l 1
 284 1099 244 1070 224 1015 c 1
 247 1024 272 1029 290 1029 c 0
 360 1029 497 964 497 815 c 0
 497 676 389 586 271 586 c 0
 162 586 32 671 29 867 c 0
 29 1079 134 1227 311 1258 c 1
 453 1175 l 1
 601 1257 l 1
 689 1233 861 1147 861 913 c 0xfd80
 861 665 704 624 704 449 c 2
 704 178 l 1
 1026 178 l 1
 1026 1254 l 1
 1206 1254 l 1
 1206 0 l 1
 433 0 l 1
 433 178 l 1
 524 178 l 1
 524 444 l 2xfe80
271 897 m 0
 219 897 181 856 181 809 c 0
 181 757 225 719 271 719 c 0
 322 719 361 763 361 809 c 0
 361 855 323 897 271 897 c 0
EndSplineSet
EndChar

StartChar: uni0E04
Encoding: 3588 3588 127
Width: 1407
VWidth: 2045
Flags: W
HStem: 0 21G<161 348.235 1040 1220> 463 133<610.119 762.178> 774 133<609.684 762.191> 1101 178<517.166 860.725>
VStem: 161 180<332 915.402> 776 136<608.111 761.323> 1040 180<0 923.518>
DStem2: 341 332 532 528 0.34017 0.940364<0 249.284>
LayerCount: 2
Fore
SplineSet
912 685 m 0
 912 561 807 462 686 463 c 0
 623 463 572 485 532 528 c 1
 341 0 l 1
 161 0 l 1
 161 744 l 2
 161 1110 449 1279 691 1279 c 0
 975 1279 1220 1062 1220 744 c 2
 1220 0 l 1
 1040 0 l 1
 1040 743 l 2
 1040 963 882 1101 691 1101 c 0
 481 1101 341 942 341 744 c 2
 341 332 l 1
 482 779 l 2
 495 820 568 907 686 907 c 0
 817 907 912 806 912 685 c 0
686 774 m 0
 635 774 596 733 596 685 c 0
 596 632 641 596 686 596 c 0
 734 596 776 633 776 685 c 0
 776 733 738 774 686 774 c 0
EndSplineSet
EndChar

StartChar: uni0E05
Encoding: 3589 3589 128
Width: 1426
VWidth: 2045
Flags: W
HStem: 0 21G<166 354.121 1066 1246> 429 134<624.424 777.44> 742 134<624.029 778.657> 1234 20G<379.5 504.2 908.067 1028.5>
VStem: 166 178<314 1000.75> 791 136<576.545 727.774> 1066 180<0 1010.42>
DStem2: 344 314 547 495 0.376226 0.926528<0 244.075> 473 1254 485 1072 0.841879 -0.539666<77.8621 277.95> 707 1104 707 927 0.839764 0.542951<0 201.023>
LayerCount: 2
Fore
SplineSet
927 652 m 0
 927 522 820 429 701 429 c 0
 638 430 587 452 547 495 c 1
 346 0 l 1
 166 0 l 1
 166 825 l 2
 166 1060 286 1218 473 1254 c 1
 707 1104 l 1
 939 1254 l 1
 1118 1222 1246 1053 1246 825 c 2
 1246 0 l 1
 1066 0 l 1
 1066 823 l 2
 1066 988 1035 1028 939 1075 c 1
 707 927 l 1
 485 1072 l 1
 467 1070 344 1038 344 825 c 2
 344 314 l 1
 497 746 l 2
 516 799 586 876 704 876 c 0
 822 876 927 782 927 652 c 0
701 742 m 0
 654 742 611 704 611 652 c 0
 611 601 655 563 701 563 c 0
 753 563 791 605 791 652 c 0
 791 703 749 742 701 742 c 0
EndSplineSet
EndChar

StartChar: uni0E06
Encoding: 3590 3590 129
Width: 1576
VWidth: 2045
Flags: W
HStem: -8 177<450.566 603.793> 347 177<449.814 605.15> 586 133<272.063 424.124> 897 132<301.477 425.585> 1234 20G<288.5 421.217 640.902 715 1218 1398>
VStem: 98 160<731.955 884.054> 258 178<182.741 333.476> 438 136<734.101 884.737> 758 180<773.185 1031.16> 1218 180<178 1254>
DStem2: 794 415 794 237 0.872892 -0.487914<86.8486 485.742>
LayerCount: 2
Fore
SplineSet
938 923 m 0
 938 657 796 682 794 415 c 1
 1218 178 l 1
 1218 1254 l 1
 1398 1254 l 1
 1398 0 l 1
 1218 0 l 1
 794 237 l 17
 786 123 689 -8 526 -8 c 0
 378 -8 258 109 258 258 c 0
 258 407 378 524 526 524 c 0
 561 524 592 519 620 508 c 1
 656 779 758 760 758 900 c 0
 758 1020 677 1077 630 1100 c 1
 527 1042 l 1
 421 1103 l 1
 362 1099 321 1070 300 1015 c 1
 326 1024 349 1029 366 1029 c 0
 438 1029 574 964 574 815 c 0
 574 676 466 586 348 586 c 0
 238 586 99 682 98 867 c 0
 98 1041 190 1223 387 1258 c 1
 529 1175 l 1
 677 1257 l 1
 753 1236 938 1153 938 923 c 0
526 347 m 0
 472 347 436 308 436 258 c 0
 436 210 474 169 526 169 c 0
 578 169 616 210 616 258 c 0
 616 308 580 347 526 347 c 0
348 897 m 0
 295 897 258 855 258 809 c 0
 258 758 302 719 348 719 c 0
 394 719 438 757 438 809 c 0
 438 856 400 897 348 897 c 0
EndSplineSet
EndChar

StartChar: uni0E07
Encoding: 3591 3591 130
Width: 1031
VWidth: 2045
Flags: W
HStem: 0 21G<644.755 845> 814 134<540.709 663.723> 1127 133<541.701 696.378>
VStem: 395 134<961.146 1114.51> 665 180<219 819> 709 136<960.042 1113.53>
DStem2: 196 681 87 571 0.711401 -0.702786<0 658.334>
LayerCount: 2
Fore
SplineSet
619 1260 m 0xf8
 742 1260 845 1161 845 1036 c 2
 845 0 l 1xf4
 665 0 l 1
 87 571 l 1
 196 681 l 1
 665 219 l 1
 665 819 l 1
 648 816 633 814 620 814 c 0
 491 814 395 918 395 1038 c 0
 395 1160 495 1260 619 1260 c 0xf8
620 1127 m 0
 567 1127 529 1086 529 1037 c 0
 529 988 568 948 620 948 c 0
 671 948 709 989 709 1037 c 0
 709 1085 672 1127 620 1127 c 0
EndSplineSet
EndChar

StartChar: uni0E08
Encoding: 3592 3592 131
Width: 1288
VWidth: 2045
Flags: W
HStem: 0 21G<753.876 948.226> 431 134<494.946 648.011> 744 133<494.016 647.021> 1098 178<444.183 766.601>
VStem: 112 180<786 942.918> 346 134<578.363 729.533> 920 180<640.118 942.144>
DStem2: 849 356 944 0 0.206744 0.978395<0 471.13>
LayerCount: 2
Fore
SplineSet
606 1098 m 0
 430 1098 292 960 292 786 c 1
 112 786 l 17
 112 1056 330 1276 606 1276 c 0
 882 1276 1100 1054 1100 786 c 0
 1100 754 1095 716 1086 672 c 2
 944 0 l 1
 758 0 l 1
 665 451 l 1
 636 438 605 431 572 431 c 0
 441 431 346 535 346 655 c 0
 346 784 452 877 570 877 c 0
 723 877 783 750 790 706 c 2
 849 356 l 1
 910 712 l 2
 917 751 920 776 920 786 c 0
 921 962 776 1098 606 1098 c 0
571 744 m 0
 524 744 480 706 480 654 c 0
 480 607 519 565 571 565 c 0
 622 565 660 606 660 654 c 0
 660 708 617 744 571 744 c 0
EndSplineSet
EndChar

StartChar: uni0E09
Encoding: 3593 3593 132
Width: 1466
VWidth: 2045
Flags: W
HStem: -8 134<1040.28 1195.18> 350 134<298.29 420.65> 662 133<297.558 451.23> 1101 178<495.385 842.299>
VStem: 149 136<498.838 647.821> 421 180<178 354> 465 136<496.223 647.409> 1028 180<420 911.997> 1208 135<138.162 290.067>
DStem2: 601 178 601 0 0.869993 0.493064<0 255.43>
LayerCount: 2
Fore
SplineSet
668 1101 m 0xfd80
 461 1101 352 943 323 851 c 1
 152 904 l 17
 216 1099 404 1279 668 1279 c 0
 969 1279 1208 1037 1208 743 c 2
 1208 420 l 1
 1255 402 1343 338 1343 216 c 0
 1343 90 1241 -8 1118 -8 c 0
 986 -8 913 90 898 172 c 1
 601 0 l 1xfb80
 421 0 l 1
 421 354 l 1xfd80
 408 351 393 350 375 350 c 0
 194 350 149 484 149 573 c 0
 149 700 251 795 375 795 c 0
 505 795 601 692 601 572 c 2xfb80
 601 178 l 1
 1028 420 l 1
 1028 743 l 2
 1028 937 873 1101 668 1101 c 0xfd80
1118 305 m 0
 1072 305 1028 268 1028 215 c 0
 1028 167 1067 126 1118 126 c 0
 1170 126 1208 168 1208 215 c 0
 1208 266 1164 305 1118 305 c 0
375 662 m 0
 323 662 285 620 285 573 c 0
 285 520 330 484 375 484 c 0
 423 484 465 521 465 573 c 0
 465 619 429 662 375 662 c 0
EndSplineSet
EndChar

StartChar: uni0E0A
Encoding: 3594 3594 133
Width: 1355
VWidth: 2045
Flags: W
HStem: 0 178<372 460 641 963> 689 133<226.635 380.294> 1091 178<439 552.983>
VStem: 79 134<836.509 983.922> 393 136<835.273 988.447> 460 181<178 628.667> 619 180<773.458 1026.77> 963 180<178 843.582> 1073 180<1171.92 1362>
LayerCount: 2
Fore
SplineSet
799 904 m 0xfa
 799 637 640 688 640 489 c 2
 641 178 l 1
 963 178 l 1
 963 804 l 2xf5
 963 826 948 840 917 846 c 1
 917 1024 l 1
 973 1071 1073 1185 1073 1362 c 1
 1253 1362 l 1xf080
 1253 1250 1233 1160 1194 1093 c 0
 1154 1025 1120 975 1091 942 c 1
 1126 901 1143 855 1143 804 c 2
 1143 0 l 1
 372 0 l 1
 372 178 l 1
 460 178 l 1
 460 489 l 2xf5
 460 762 619 722 619 896 c 0
 619 1023 528 1091 439 1091 c 1
 463 1069 l 2
 507 1025 529 972 529 911 c 0
 529 781 425 689 303 689 c 0
 207 689 79 749 79 939 c 0
 79 1086 222 1269 439 1269 c 0
 634 1269 799 1117 799 904 c 0xfa
304 1000 m 0
 258 1000 213 963 213 912 c 0
 213 864 252 822 304 822 c 0
 357 822 393 866 393 912 c 0xf8
 393 959 356 1000 304 1000 c 0
EndSplineSet
EndChar

StartChar: uni0E0B
Encoding: 3595 3595 134
Width: 1440
VWidth: 2045
Flags: W
HStem: 0 178<477 565 747 1068> 586 133<235.26 390.458> 897 132<266.961 391.036> 1238 20G<265.5 387.217 606.902 689>
VStem: 71 152<732.173 880.846> 404 134<731.228 885.313> 565 182<178 593.193> 724 180<773.573 1029.93> 1068 180<178 845.713> 1178 180<1166.8 1362>
LayerCount: 2
Fore
SplineSet
314 897 m 0xfc
 255 897 223 850 223 809 c 0
 223 763 259 719 314 719 c 0
 370 719 404 764 404 809 c 0
 404 851 373 897 314 897 c 0xfc
1023 1024 m 1
 1105 1095 1178 1207 1178 1362 c 1
 1358 1362 l 1xfc40
 1358 1251 1338 1161 1298 1092 c 0
 1258 1024 1224 974 1196 942 c 1
 1231 901 1248 855 1248 804 c 2
 1248 0 l 1
 477 0 l 1
 477 178 l 1
 565 178 l 1
 565 444 l 2xfe80
 565 695 724 760 724 900 c 0
 724 1020 643 1077 596 1100 c 1
 494 1042 l 1
 388 1103 l 1
 328 1099 287 1070 266 1015 c 1
 291 1024 315 1029 333 1029 c 0
 402 1029 538 964 538 815 c 0
 538 677 434 586 314 586 c 0
 192 586 72 683 71 867 c 0
 71 1078 178 1226 353 1258 c 1
 495 1175 l 1
 643 1257 l 1
 735 1233 904 1146 904 908 c 0xfd
 904 670 747 620 747 446 c 2
 747 178 l 1
 1068 178 l 1
 1068 804 l 2xfe80
 1068 826 1053 840 1023 846 c 1
 1023 1024 l 1
EndSplineSet
EndChar

StartChar: uni0E0C
Encoding: 3596 3596 135
Width: 1924
VWidth: 2045
Flags: W
HStem: -8 134<383.341 536.409 918.585 1069.79> 305 133<417.046 538.326 917.476 994> 744 178<416 507> 1101 178<460.803 808.106> 1234 20G<1557 1737>
VStem: 235 181<433 744> 235 136<139.514 292.706> 551 136<139.145 290.122> 769 136<139.443 292.813> 994 180<438 913.651> 1557 180<177 1254>
DStem2: 1174 376 1217 175 0.887369 -0.461061<130.83 431.613>
LayerCount: 2
Fore
SplineSet
769 216 m 0xede0
 769 340 871 438 994 438 c 9
 994 744 l 2
 994 940 838 1101 635 1101 c 0
 447 1101 352 971 322 922 c 1
 507 922 l 1
 507 744 l 1
 416 744 l 1
 416 433 l 1xf5e0
 428 436 443 438 461 438 c 0
 585 438 687 340 687 216 c 0
 687 95 588 -8 461 -8 c 0
 335 -8 236 96 237 214 c 1
 235 214 l 1xf3e0
 235 744 l 1
 95 744 l 1
 95 1036 333 1279 635 1279 c 0xf5e0
 933 1279 1174 1038 1174 744 c 2
 1174 376 l 1
 1557 177 l 1
 1557 1254 l 1
 1737 1254 l 1
 1737 0 l 1
 1557 0 l 1
 1217 175 l 1
 1200 83 1116 -8 994 -8 c 0
 866 -8 769 95 769 216 c 0xede0
994 305 m 0
 948 305 905 268 905 215 c 0
 905 161 950 126 994 126 c 0
 1045 126 1084 167 1084 215 c 0
 1084 268 1040 305 994 305 c 0
461 305 m 0
 410 305 371 263 371 215 c 0xe3e0
 371 167 410 126 461 126 c 0
 508 126 551 163 551 215 c 0
 551 267 507 305 461 305 c 0
95 744 m 1
 235 744 l 1xe5e0
EndSplineSet
EndChar

StartChar: uni0E0D
Encoding: 3597 3597 136
Width: 1924
VWidth: 2045
Flags: W
HStem: -577 163<1311 1474.97> -207 134<1066.75 1220.08> -8 134<375.699 526.409> 0 178<1164 1547> 305 133<405.573 528.326> 744 178<405 497> 1101 178<450.812 797.913> 1234 20G<1547 1727>
VStem: 225 180<433 744> 225 136<138.713 292.706> 541 136<139.145 290.122> 921 133<-372.042 -221.616> 984 180<178 913.651> 1547 180<178 1254>
LayerCount: 2
Fore
SplineSet
1311 -414 m 1xcc34
 1496 -422 1582 -270 1631 -154 c 1
 1774 -249 l 1
 1715 -374 1642 -460 1554 -507 c 0
 1468 -553 1375 -577 1277 -577 c 0
 1110 -577 1039 -525 1004 -488 c 0
 949 -430 921 -368 921 -301 c 0
 924 -165 1018 -73 1145 -73 c 0
 1270 -73 1377 -179 1369 -294 c 0
 1365 -349 1346 -389 1311 -414 c 1xcc34
1144 -207 m 0
 1092 -207 1054 -249 1054 -296 c 0
 1054 -343 1092 -385 1144 -385 c 0
 1194 -385 1235 -343 1235 -296 c 0
 1235 -245 1190 -207 1144 -207 c 0
625 1279 m 0xeea4
 922 1279 1164 1037 1164 744 c 2
 1164 178 l 1
 1547 178 l 1
 1547 1254 l 1
 1727 1254 l 1xddac
 1727 0 l 1
 984 0 l 25
 984 744 l 2
 984 940 828 1101 625 1101 c 0
 438 1101 340 969 314 922 c 1
 497 922 l 1
 497 744 l 1
 405 744 l 1
 405 433 l 1xdeac
 416 436 432 438 451 438 c 0
 575 438 677 340 677 216 c 0
 677 95 578 -8 451 -8 c 0
 324 -8 225 94 225 214 c 2xee64
 225 744 l 1
 85 744 l 1
 85 1036 323 1279 625 1279 c 0xeea4
451 305 m 0
 400 305 361 263 361 215 c 0
 361 167 400 126 451 126 c 0xec64
 498 126 541 163 541 215 c 0
 541 267 497 305 451 305 c 0
85 744 m 1
 225 744 l 1xcca4
EndSplineSet
Substitution2: "Thai Descender Removal Single Substitution" uni0E0D.descless
EndChar

StartChar: uni0E0E
Encoding: 3598 3598 137
Width: 1473
VWidth: 2045
Flags: W
HStem: -526 133<530.255 684.375> -214 133<530.932 684.856> -8 134<256.341 409.034> 305 133<254.875 377.206> 744 178<558 646> 1101 178<578.96 924.026>
VStem: 106 136<139.042 290.703> 382 136<-380.717 -228.357> 422 136<142.884 292.504> 1113 180<-260 909.216>
AnchorPoint: "BelowBase" 1104 -625 basechar 0
LayerCount: 2
Fore
SplineSet
753 1279 m 0xfec0
 1066 1279 1293 1023 1293 744 c 2
 1293 -302 l 1
 997 -595 l 1
 814 -414 l 1
 764 -464 718 -526 606 -526 c 0
 486 -526 382 -428 382 -304 c 0xff40
 382 -175 487 -81 608 -81 c 0
 712 -81 765 -146 814 -193 c 1
 920 -89 l 1
 1032 -198 l 1
 925 -304 l 1
 997 -375 l 1
 1113 -260 l 1
 1113 744 l 2
 1113 934 961 1101 754 1101 c 0
 603 1101 489 1014 442 922 c 1
 646 922 l 1
 646 744 l 1
 558 744 l 1
 558 216 l 2
 558 89 454 -8 332 -8 c 0
 205 -8 106 93 106 216 c 0
 106 343 209 438 332 438 c 0
 350 438 365 436 378 433 c 1
 378 744 l 1
 213 744 l 1
 213 1036 451 1279 753 1279 c 0xfec0
607 -214 m 0
 559 -214 518 -252 518 -304 c 0
 518 -355 559 -393 607 -393 c 0
 653 -393 698 -357 698 -304 c 0
 698 -251 653 -214 607 -214 c 0
332 305 m 0
 286 305 242 267 242 215 c 0
 242 161 288 126 332 126 c 0
 379 126 422 163 422 215 c 0xfec0
 422 267 378 305 332 305 c 0
213 744 m 1
 378 744 l 1
EndSplineSet
EndChar

StartChar: uni0E0F
Encoding: 3599 3599 138
Width: 1486
VWidth: 2045
Flags: W
HStem: -526 133<301.481 457.24> -214 133<301.765 456.659> -8 134<256.341 409.034> 305 133<254.875 377.206> 744 178<558 646> 1101 178<577.693 924.026>
VStem: 106 136<139.042 290.703> 155 134<-380.723 -226.132> 378 180<433 744> 422 136<142.884 292.504> 1113 180<-260 909.216>
AnchorPoint: "BelowBase" 1065 -625 basechar 0
LayerCount: 2
Fore
SplineSet
1113 744 m 2xfda0
 1113 934 961 1101 754 1101 c 0
 567 1101 478 980 442 922 c 9
 646 922 l 1
 646 744 l 1
 558 744 l 1xfda0
 558 216 l 2
 558 89 454 -8 332 -8 c 0
 205 -8 106 93 106 216 c 0xfe60
 106 343 209 438 332 438 c 0
 350 438 365 436 378 433 c 1
 378 744 l 1
 213 744 l 1
 213 1036 451 1279 753 1279 c 0
 1066 1279 1293 1023 1293 744 c 2
 1293 -302 l 1
 997 -595 l 1
 881 -480 l 1
 768 -595 l 1
 585 -414 l 1
 536 -465 494 -526 379 -526 c 0
 254 -526 155 -427 155 -304 c 0
 155 -178 256 -81 379 -81 c 0
 485 -81 535 -145 585 -193 c 1
 692 -88 l 1
 803 -199 l 1
 696 -305 l 1
 768 -375 l 1
 881 -260 l 1
 997 -375 l 1
 1113 -260 l 1
 1113 744 l 2xfda0
379 -214 m 0
 326 -214 289 -255 289 -304 c 0
 289 -352 327 -393 379 -393 c 0
 432 -393 469 -354 469 -304 c 0
 469 -250 428 -214 379 -214 c 0
332 305 m 0
 286 305 242 267 242 215 c 0
 242 161 288 126 332 126 c 0
 379 126 422 163 422 215 c 0xfe60
 422 267 378 305 332 305 c 0
213 744 m 1
 378 744 l 1xfca0
EndSplineSet
EndChar

StartChar: uni0E10
Encoding: 3600 3600 139
Width: 1245
VWidth: 2045
Flags: W
HStem: -807 134<51.0592 202.73> -521 133<715.818 838.433> -494 134<50.5561 203.051> -210 134<716.701 869.465> 0 21G<678.985 907.012> 244 134<456.953 612.939> 557 133<459.827 611.747> 744 178<363 847.513> 1101 178<502.326 846.672>
VStem: -98 134<-659.602 -506.925> 311 134<390.966 544.305> 569 134<-373.115 -222.999> 858 180<583.656 733.901> 883 136<-375.988 -223.591>
DStem2: 794 285 903 0 0.196694 0.980465<0 386.942>
LayerCount: 2
Fore
SplineSet
793 -76 m 0xdff4
 922 -76 1019 -179 1019 -299 c 2
 1019 -603 l 25
 744 -875 l 1
 628 -760 l 1
 515 -873 l 1
 332 -695 l 1
 286 -741 235 -807 127 -807 c 0
 -1 -807 -98 -704 -98 -583 c 0
 -98 -463 -3 -360 127 -360 c 0xbff4
 237 -360 286 -428 332 -474 c 1
 439 -369 l 1
 550 -477 l 1
 444 -583 l 1
 515 -654 l 1
 628 -541 l 1
 744 -656 l 1
 839 -562 l 1
 839 -518 l 1
 824 -520 808 -521 793 -521 c 0
 669 -521 569 -423 569 -299 c 0
 569 -180 663 -76 793 -76 c 0xdff4
794 -210 m 0
 742 -210 703 -251 703 -298 c 0
 703 -345 742 -388 794 -388 c 0xdff4
 848 -388 883 -342 883 -298 c 0
 883 -251 846 -210 794 -210 c 0
126 -494 m 0xbff0
 74 -494 36 -536 36 -583 c 0
 36 -634 80 -673 126 -673 c 0
 173 -673 216 -635 216 -583 c 0
 216 -535 177 -494 126 -494 c 0xbff0
762 922 m 2
 891 922 1038 819 1038 694 c 0
 1038 681 1037 667 1034 653 c 2
 903 0 l 1
 683 0 l 25
 630 264 l 1
 600 251 568 244 535 244 c 0
 409 244 311 344 311 468 c 0
 311 589 408 690 535 690 c 0
 685 690 747 565 755 519 c 2
 794 285 l 1
 857 655 l 2
 858 659 858 663 858 667 c 0x9ff8
 858 710 820 744 767 744 c 2
 136 744 l 1
 136 1043 380 1279 675 1279 c 0
 892 1279 1054 1162 1142 1013 c 1
 986 924 l 1
 960 969 862 1101 675 1101 c 0
 488 1101 391 968 363 922 c 1
 762 922 l 2
536 557 m 0
 484 557 445 516 445 467 c 0
 445 414 490 378 536 378 c 0
 584 378 625 416 625 467 c 0
 625 518 585 557 536 557 c 0
EndSplineSet
Substitution2: "Thai Descender Removal Single Substitution" uni0E10.descless
EndChar

StartChar: uni0E11
Encoding: 3601 3601 140
Width: 1689
VWidth: 2045
Flags: W
HStem: 0 21G<566 843.484 1334 1514> 586 133<238.385 390.434> 897 132<268.148 391.494> 1087 177<1177.85 1320.17>
VStem: 72 152<733.661 950.773> 404 134<731.343 885.29> 566 180<187 594.051> 724 180<773.284 1030.25> 1334 180<0 1073.03>
DStem2: 746 187 837 0 0.308395 0.951258<0 1006.01>
LayerCount: 2
Fore
SplineSet
1334 995 m 2xfe80
 1334 1044 1295 1087 1238 1087 c 0
 1216 1087 1188 1084 1180 1058 c 2
 837 0 l 1
 566 0 l 1
 566 444 l 2xfe80
 566 698 724 757 724 900 c 0
 724 1020 639 1079 596 1100 c 1
 494 1042 l 1
 389 1103 l 1
 328 1099 287 1070 267 1015 c 1
 288 1023 310 1029 334 1029 c 0
 401 1029 538 966 538 815 c 0
 538 677 433 586 314 586 c 0
 191 586 72 687 72 871 c 0
 72 1082 179 1227 354 1258 c 1
 496 1175 l 1
 644 1257 l 1
 732 1233 904 1147 904 913 c 0xfd80
 904 662 746 628 746 444 c 2
 746 187 l 1
 1064 1140 l 2
 1073 1167 1129 1264 1271 1264 c 0
 1357 1264 1514 1197 1514 996 c 2
 1514 0 l 1
 1334 0 l 1
 1334 995 l 2xfe80
314 897 m 0
 258 897 224 853 224 808 c 0
 224 762 261 719 314 719 c 0
 367 719 404 760 404 808 c 0
 404 858 368 897 314 897 c 0
EndSplineSet
EndChar

StartChar: uni0E12
Encoding: 3602 3602 141
Width: 1957
VWidth: 2045
Flags: W
HStem: -8 134<987.871 1142.89> 305 133<990.468 1066> 749 133<631.565 786.395> 1234 20G<379.5 504.2 908.067 1028.5 1587 1767>
VStem: 166 178<208 1000.75> 485 134<583.228 736.58> 799 137<583.472 734.334> 842 134<138.765 291.304> 1066 180<438 1010.42> 1587 180<180 1254>
DStem2: 344 208 349 0 0.718803 0.695213<0 361.246> 473 1254 485 1072 0.841879 -0.539666<77.8621 277.95> 707 1104 707 927 0.839764 0.542951<0 201.023> 1246 372 1287 166 0.871371 -0.490625<136.795 391.337>
LayerCount: 2
Fore
SplineSet
842 216 m 0xfdc0
 842 346 946 438 1066 438 c 1
 1066 823 l 2
 1066 988 1035 1028 939 1075 c 1
 707 927 l 1
 485 1072 l 1
 467 1070 344 1038 344 825 c 2
 344 208 l 1
 598 465 l 1
 496 523 485 606 485 660 c 0
 485 784 585 882 709 882 c 0
 833 882 932 787 936 659 c 0xfec0
 936 598 913 546 867 501 c 2
 349 0 l 1
 166 0 l 1
 166 825 l 2
 166 1060 286 1218 473 1254 c 1
 707 1104 l 1
 939 1254 l 1
 1118 1222 1246 1053 1246 825 c 2
 1246 372 l 1
 1587 180 l 1
 1587 1254 l 1
 1767 1254 l 1
 1767 0 l 1
 1587 0 l 1
 1287 166 l 1
 1276 123 1219 -8 1066 -8 c 0
 939 -8 842 93 842 216 c 0xfdc0
1065 305 m 0
 1017 305 976 267 976 216 c 0xfdc0
 976 163 1017 126 1066 126 c 0
 1118 126 1156 168 1156 215 c 0
 1156 262 1117 305 1065 305 c 0
709 749 m 0
 656 749 619 705 619 659 c 0
 619 612 655 571 709 571 c 0
 763 571 799 612 799 659 c 0xfec0
 799 705 762 749 709 749 c 0
EndSplineSet
EndChar

StartChar: uni0E13
Encoding: 3603 3603 142
Width: 1948
VWidth: 2045
Flags: W
HStem: -8 134<374.931 528.93 1523.13 1676.39> 305 133<410.048 528.62> 744 178<409 497> 1101 178<452.803 799.276> 1234 20G<1511 1691>
VStem: 229 180<433 744> 229 134<139.114 292.958> 543 134<139.363 291.98> 986 180<177 914.094> 1511 180<420 1254> 1691 136<139.261 290.618>
LayerCount: 2
Fore
SplineSet
627 1279 m 0xf5e0
 923 1279 1166 1041 1166 744 c 2
 1166 177 l 1
 1511 420 l 9
 1511 1254 l 1
 1691 1254 l 1xede0
 1691 420 l 1
 1748 395 1827 334 1827 216 c 0
 1827 95 1728 -8 1601 -8 c 0
 1443 -8 1392 128 1386 151 c 1
 1166 0 l 1
 986 0 l 1
 986 744 l 2
 986 941 828 1101 627 1101 c 0
 439 1101 344 971 314 922 c 1
 497 922 l 1
 497 744 l 1
 409 744 l 1
 409 433 l 1xf5e0
 420 436 435 438 453 438 c 0
 581 438 677 337 677 216 c 0
 677 96 582 -8 453 -8 c 0
 327 -8 229 95 229 214 c 2xf3e0
 229 744 l 1
 87 744 l 1
 87 1036 325 1279 627 1279 c 0xf5e0
1600 305 m 0
 1553 305 1511 267 1511 215 c 0
 1511 164 1553 126 1600 126 c 0
 1648 126 1691 164 1691 215 c 0
 1691 267 1647 305 1600 305 c 0
453 305 m 0
 400 305 363 264 363 216 c 0xe3e0
 363 167 398 126 453 126 c 0
 507 126 543 168 543 215 c 0
 543 261 506 305 453 305 c 0
87 744 m 1
 227 744 l 1
EndSplineSet
EndChar

StartChar: uni0E14
Encoding: 3604 3604 143
Width: 1410
VWidth: 2045
Flags: W
HStem: 0 21G<161 361.484 1040 1220> 744 133<614.255 767.304> 1101 178<517.166 860.725>
VStem: 161 180<210 915.402> 467 134<577.484 730.283> 781 136<577.747 731.298> 1040 180<0 923.518>
DStem2: 341 210 341 0 0.715507 0.698605<0 344.942>
LayerCount: 2
Fore
SplineSet
690 744 m 0
 642 744 601 706 601 654 c 0
 601 605 637 566 690 566 c 0
 744 566 781 607 781 654 c 0
 781 701 742 744 690 744 c 0
691 877 m 0
 810 877 917 783 917 650 c 0
 917 592 894 540 849 496 c 2
 341 0 l 17
 161 0 l 1
 161 744 l 2
 161 1110 449 1279 691 1279 c 0
 975 1279 1220 1062 1220 744 c 2
 1220 0 l 1
 1040 0 l 1
 1040 743 l 2
 1040 963 882 1101 691 1101 c 0
 481 1101 341 945 341 744 c 2
 341 210 l 1
 579 460 l 1
 478 522 467 591 467 655 c 0
 467 785 571 877 691 877 c 0
EndSplineSet
EndChar

StartChar: uni0E15
Encoding: 3605 3605 144
Width: 1400
VWidth: 2045
Flags: W
HStem: 0 21G<156 359.905 1036 1216> 734 133<611.565 766.358> 1234 20G<406 484.2 888.067 1009>
VStem: 156 178<208 1009.2> 465 134<568.453 721.58> 779 136<568.4 720.989> 1036 180<0 1025.37>
DStem2: 334 208 339 0 0.72258 0.691287<0 343.601> 453 1254 465 1072 0.841879 -0.539666<76.6096 277.95> 687 1104 687 927 0.839764 0.542951<0 200.431>
LayerCount: 2
Fore
SplineSet
689 734 m 0
 636 734 599 690 599 644 c 0
 599 597 635 556 689 556 c 0
 743 556 779 597 779 644 c 0
 779 690 742 734 689 734 c 0
919 1254 m 1
 1099 1222 1216 1052 1216 825 c 2
 1216 0 l 1
 1036 0 l 1
 1036 823 l 2
 1036 979 1025 1024 919 1075 c 1
 687 927 l 1
 465 1072 l 1
 433 1069 403 1049 375 1011 c 0
 348 973 334 911 334 825 c 2
 334 208 l 25
 578 450 l 1
 486 505 465 572 465 645 c 0
 465 769 565 867 689 867 c 0
 812 867 915 772 915 640 c 0
 915 580 892 529 847 486 c 2
 339 0 l 1
 156 0 l 1
 156 825 l 2
 156 1168 359 1236 453 1254 c 1
 687 1104 l 1
 919 1254 l 1
EndSplineSet
EndChar

StartChar: uni0E16
Encoding: 3606 3606 145
Width: 1370
VWidth: 2045
Flags: W
HStem: -8 134<395.465 546.392> 305 133<426.088 548.308> 744 178<425 517> 1101 178<470.812 817.913>
VStem: 245 180<433 744> 245 136<138.713 292.504> 561 136<139.261 289.566> 1004 180<0 913.651>
LayerCount: 2
Fore
SplineSet
470 305 m 0xf7
 423 305 381 267 381 215 c 0
 381 164 423 126 470 126 c 0
 518 126 561 164 561 215 c 0
 561 267 517 305 470 305 c 0xf7
105 744 m 1
 245 744 l 1xfb
645 1279 m 0
 942 1279 1184 1037 1184 744 c 2
 1184 0 l 1
 1004 0 l 1
 1004 744 l 2
 1004 940 848 1101 645 1101 c 0
 458 1101 360 969 334 922 c 1
 517 922 l 1
 517 744 l 1
 425 744 l 1
 425 433 l 1xfb
 436 436 452 438 471 438 c 0
 595 438 697 340 697 216 c 0
 697 95 598 -8 471 -8 c 0
 344 -8 245 94 245 214 c 2xf7
 245 744 l 1
 105 744 l 1
 105 1036 343 1279 645 1279 c 0
EndSplineSet
EndChar

StartChar: uni0E17
Encoding: 3607 3607 146
Width: 1487
VWidth: 2045
Flags: W
HStem: 0 21G<366 553.133 1118 1298> 814 134<244.5 365.477> 1087 177<918.514 1104.8> 1127 133<245.616 397.469>
VStem: 95 136<961.029 1114.5> 366 180<353 819> 410 136<959.99 1113.94> 1118 180<0 1070.84>
DStem2: 546 353 546 0 0.335936 0.941885<0 835.426>
LayerCount: 2
Fore
SplineSet
320 1260 m 0xdd
 443 1260 546 1162 546 1036 c 2xdb
 546 353 l 17xdd
 802 1125 l 2
 809 1145 865 1264 1040 1264 c 0
 1149 1264 1298 1192 1298 995 c 2
 1298 0 l 1
 1118 0 l 1
 1118 995 l 2
 1118 1028 1102 1087 999 1087 c 0
 955 1087 928 1072 918 1043 c 2
 546 0 l 1xeb
 366 0 l 1
 366 819 l 1
 349 816 334 814 320 814 c 0
 192 814 95 917 95 1038 c 0
 95 1161 196 1260 320 1260 c 0xdd
321 1127 m 0
 273 1127 231 1089 231 1037 c 0
 231 984 275 948 321 948 c 0
 367 948 410 984 410 1037 c 0
 410 1089 369 1127 321 1127 c 0
EndSplineSet
EndChar

StartChar: uni0E18
Encoding: 3608 3608 147
Width: 1228
VWidth: 2045
Flags: W
HStem: 0 178<219 309 489 814> 744 178<489 803.545> 1111 168<459.222 802.707>
VStem: 309 180<178 744> 814 180<178 731.669>
LayerCount: 2
Fore
SplineSet
722 922 m 2
 874 922 994 798 994 653 c 2
 994 0 l 1
 219 0 l 1
 219 178 l 1
 309 178 l 1
 309 744 l 25
 96 744 l 1
 96 1043 340 1279 635 1279 c 0
 850 1279 1015 1160 1102 1013 c 1
 946 924 l 1
 944 929 843 1111 643 1111 c 0
 548 1111 402 1089 323 922 c 1
 722 922 l 2
814 653 m 2
 814 694 797 744 727 744 c 2
 489 744 l 25
 489 178 l 1
 814 178 l 1
 814 653 l 2
EndSplineSet
EndChar

StartChar: uni0E19
Encoding: 3609 3609 148
Width: 1451
VWidth: 2045
Flags: W
HStem: -8 134<1021.4 1176.86> 814 134<234.5 355.477> 1127 133<235.616 387.469>
VStem: 85 136<961.029 1114.5> 356 180<178 819> 400 136<959.99 1113.94> 1011 180<423 1254> 1189 136<138.763 291.579>
DStem2: 536 178 536 0 0.888744 0.458405<0 301.144>
LayerCount: 2
Fore
SplineSet
1100 305 m 0xf1
 1053 305 1009 267 1009 215 c 0
 1009 164 1052 126 1100 126 c 0
 1151 126 1189 168 1189 215 c 0
 1189 266 1145 305 1100 305 c 0xf1
1099 -8 m 0
 968 -8 894 93 880 168 c 1
 536 0 l 1xf5
 356 0 l 1
 356 819 l 1xf8
 339 816 324 814 310 814 c 0
 182 814 85 917 85 1038 c 0
 85 1161 186 1260 310 1260 c 0
 433 1260 536 1162 536 1036 c 2xf4
 536 178 l 1
 1011 423 l 1
 1011 1254 l 1
 1191 1254 l 1
 1191 418 l 1xfa
 1303 369 1325 286 1325 216 c 0
 1325 93 1225 -8 1099 -8 c 0
311 1127 m 0
 263 1127 221 1089 221 1037 c 0
 221 984 265 948 311 948 c 0
 357 948 400 984 400 1037 c 0
 400 1089 359 1127 311 1127 c 0
EndSplineSet
EndChar

StartChar: uni0E1A
Encoding: 3610 3610 149
Width: 1420
VWidth: 2045
Flags: W
HStem: 0 178<270 361 539 1041> 814 134<239.5 360.477> 1127 133<240.616 391.898>
VStem: 90 136<961.029 1114.5> 361 178<178 819> 405 135<960.223 1110.66> 1041 180<178 1254>
LayerCount: 2
Fore
SplineSet
315 1260 m 0xfa
 436 1260 540 1167 540 1036 c 2xf6
 539 178 l 1
 1041 178 l 1
 1041 1254 l 1
 1221 1254 l 1
 1221 0 l 1
 270 0 l 1
 270 178 l 1
 361 178 l 25
 361 819 l 1
 344 816 329 814 315 814 c 0
 187 814 90 917 90 1038 c 0
 90 1161 191 1260 315 1260 c 0xfa
316 1127 m 0
 268 1127 226 1089 226 1037 c 0
 226 984 270 948 316 948 c 0
 362 948 405 985 405 1037 c 0
 405 1088 363 1127 316 1127 c 0
EndSplineSet
EndChar

StartChar: uni0E1B
Encoding: 3611 3611 150
Width: 1420
VWidth: 2045
Flags: W
HStem: 0 178<270 361 540 1041> 814 134<239.5 360.523> 1127 133<240.616 390.675>
VStem: 90 136<961.029 1114.5> 361 179<178 819> 405 135<960.223 1112.33> 1041 180<178 1832>
AnchorPoint: "AboveBase" 927 1339 basechar 0
LayerCount: 2
Fore
SplineSet
315 1260 m 0xfa
 443 1260 540 1158 540 1036 c 2xf6
 540 178 l 1
 1041 178 l 1
 1041 1832 l 1
 1221 1832 l 1
 1221 0 l 1
 270 0 l 1
 270 178 l 1
 361 178 l 25
 361 819 l 1
 346 816 330 814 315 814 c 0
 187 814 90 917 90 1038 c 0
 90 1161 191 1260 315 1260 c 0xfa
316 1127 m 0
 268 1127 226 1089 226 1037 c 0
 226 984 270 948 316 948 c 0
 362 948 405 985 405 1037 c 0
 405 1088 363 1127 316 1127 c 0
EndSplineSet
EndChar

StartChar: uni0E1C
Encoding: 3612 3612 151
Width: 1373
VWidth: 2045
Flags: W
HStem: 0 21G<186 382.313 995.687 1192> 396 266<556 822> 814 134<366.619 487.518> 1127 133<336.375 488.912>
VStem: 186 180<264 819> 186 136<960.223 1111.05> 502 136<961.378 1112.83> 1012 180<264 1254>
DStem2: 366 264 366 0 0.630152 0.776472<0 306.033> 689 662 689 396 0.630152 -0.776472<206.542 512.575>
LayerCount: 2
Fore
SplineSet
638 1038 m 0xf7
 638 917 539 814 412 814 c 0
 397 814 381 816 366 819 c 1
 366 264 l 1
 689 662 l 1
 1012 264 l 1
 1012 1254 l 1
 1192 1254 l 1
 1192 0 l 1
 1012 0 l 1
 689 396 l 1
 366 0 l 1xfb
 186 0 l 25
 186 1036 l 2
 186 1168 298 1260 402 1260 c 0
 545 1260 638 1154 638 1038 c 0xf7
412 948 m 0
 460 948 502 987 502 1037 c 0
 502 1076 475 1127 402 1127 c 0
 370 1127 322 1092 322 1037 c 0xf7
 322 985 365 948 412 948 c 0
EndSplineSet
EndChar

StartChar: uni0E1D
Encoding: 3613 3613 152
Width: 1373
VWidth: 2045
Flags: W
HStem: 0 21G<186 382.313 995.687 1192> 396 266<556 822> 814 134<366.619 487.518> 1127 133<334.858 489.634>
VStem: 186 180<264 819> 186 136<960.223 1114.34> 502 136<961.378 1113.9> 1012 180<264 1832>
DStem2: 366 264 366 0 0.630152 0.776472<0 306.033> 689 662 689 396 0.630152 -0.776472<206.542 512.575>
AnchorPoint: "AboveBase" 903 1339 basechar 0
LayerCount: 2
Fore
SplineSet
638 1038 m 0xf7
 638 917 539 814 412 814 c 0
 397 814 381 816 366 819 c 1
 366 264 l 1
 689 662 l 1
 1012 264 l 1
 1012 1832 l 1
 1192 1832 l 1
 1192 0 l 1
 1012 0 l 1
 689 396 l 1
 366 0 l 1xfb
 186 0 l 25
 186 1036 l 2
 186 1163 290 1260 412 1260 c 0
 537 1260 638 1158 638 1038 c 0xf7
412 948 m 0
 460 948 502 987 502 1037 c 0
 502 1089 459 1127 412 1127 c 0
 364 1127 322 1089 322 1037 c 0xf7
 322 985 365 948 412 948 c 0
EndSplineSet
EndChar

StartChar: uni0E1E
Encoding: 3614 3614 153
Width: 1552
VWidth: 2045
Flags: W
HStem: 0 21G<356 542.863 1183.14 1370> 814 134<234.5 355.523> 953 301<653.5 1070.5> 1127 133<235.616 387.469>
VStem: 85 136<961.029 1114.5> 356 180<453 819> 400 136<959.99 1113.94> 1190 180<454 1254>
DStem2: 534 453 536 0 0.324553 0.945868<0 579.712> 920 1254 863 953 0.324553 -0.945868<266.207 844.323>
LayerCount: 2
Fore
SplineSet
310 1260 m 0xdd
 433 1260 536 1162 536 1036 c 2
 534 453 l 1
 804 1254 l 1
 920 1254 l 1
 1190 454 l 1
 1190 1254 l 1
 1370 1254 l 1
 1370 0 l 1
 1190 0 l 1
 863 953 l 1
 536 0 l 1xeb
 356 0 l 1
 356 819 l 1
 341 816 325 814 310 814 c 0
 182 814 85 917 85 1038 c 0
 85 1161 186 1260 310 1260 c 0xdd
311 1127 m 0xdb
 263 1127 221 1089 221 1037 c 0
 221 984 265 948 311 948 c 0
 357 948 400 984 400 1037 c 0
 400 1089 359 1127 311 1127 c 0xdb
EndSplineSet
EndChar

StartChar: uni0E1F
Encoding: 3615 3615 154
Width: 1552
VWidth: 2045
Flags: W
HStem: 0 21G<356 542.863 1183.14 1370> 814 134<234.5 355.523> 953 301<653.5 1070.5> 1127 133<235.616 387.669>
VStem: 85 136<961.029 1114.5> 356 180<453 819> 400 136<959.99 1113.53> 1190 180<454 1832>
DStem2: 534 453 536 0 0.324553 0.945868<0 579.712> 920 1254 863 953 0.324553 -0.945868<266.207 844.323>
AnchorPoint: "AboveBase" 1015 1339 basechar 0
LayerCount: 2
Fore
SplineSet
310 1260 m 0xdd
 434 1260 536 1161 536 1036 c 2
 534 453 l 1
 804 1254 l 1
 920 1254 l 1
 1190 454 l 1
 1190 1832 l 1
 1370 1832 l 1
 1370 0 l 1
 1190 0 l 1
 863 953 l 1
 536 0 l 1xeb
 356 0 l 1
 356 819 l 1
 341 816 325 814 310 814 c 0
 182 814 85 917 85 1038 c 0
 85 1161 186 1260 310 1260 c 0xdd
311 1127 m 0xdb
 263 1127 221 1089 221 1037 c 0
 221 984 265 948 311 948 c 0
 357 948 400 984 400 1037 c 0
 400 1089 359 1127 311 1127 c 0xdb
EndSplineSet
EndChar

StartChar: uni0E20
Encoding: 3616 3616 155
Width: 1465
VWidth: 2045
Flags: W
HStem: -8 134<235.708 388.198> 305 133<234.366 356.615> 744 178<537 626> 1101 178<568.236 904.605>
VStem: 86 136<139.482 292.833> 357 180<433 744> 401 136<142.11 292.777> 1092 180<0 913.086>
LayerCount: 2
Fore
SplineSet
86 216 m 0xfb
 86 340 187 438 312 438 c 0
 331 438 346 436 357 433 c 1
 357 744 l 1
 193 744 l 1
 193 1038 436 1279 732 1279 c 0
 1036 1279 1272 1033 1272 744 c 2
 1272 0 l 1
 1092 0 l 1
 1092 744 l 2
 1092 950 926 1101 733 1101 c 0
 597 1101 482 1023 421 922 c 1
 626 922 l 1
 626 744 l 1
 537 744 l 1xfd
 537 216 l 2
 537 87 432 -8 312 -8 c 0
 181 -8 86 96 86 216 c 0xfb
312 305 m 0
 265 305 222 268 222 216 c 0
 222 164 264 126 312 126 c 0
 359 126 401 164 401 216 c 0xfb
 401 268 358 305 312 305 c 0
EndSplineSet
EndChar

StartChar: uni0E21
Encoding: 3617 3617 156
Width: 1422
VWidth: 2045
Flags: W
HStem: -8 134<262.716 414.031> 305 133<260.963 383.206> 814 134<262.509 381.104> 1127 133<262.963 414.727>
VStem: 113 136<139.282 293.033 961.345 1114.21> 384 178<433 819> 428 134<139.164 201 960.223 1110.66> 1036 180<168 1254>
DStem2: 562 369 562 201 0.920645 -0.3904<65.5872 514.856>
LayerCount: 2
Fore
SplineSet
338 1260 m 0xfd
 458 1260 562 1167 562 1036 c 2
 562 369 l 1
 1036 168 l 1
 1036 1254 l 1
 1216 1254 l 1
 1216 0 l 1
 1036 0 l 1
 562 201 l 17xfb
 557 99 470 -8 338 -8 c 0
 210 -8 113 95 113 216 c 0
 113 341 215 438 337 438 c 0
 356 438 371 436 384 433 c 1
 382 819 l 1
 367 816 352 814 338 814 c 0
 208 814 114 918 114 1038 c 0
 114 1159 211 1260 338 1260 c 0xfd
338 305 m 0
 291 305 249 268 249 216 c 0
 249 164 290 126 338 126 c 0
 390 126 428 168 428 215 c 0
 428 266 384 305 338 305 c 0
338 1127 m 0
 290 1127 249 1090 249 1037 c 0
 249 985 291 948 339 948 c 0
 387 948 428 985 428 1037 c 0
 428 1090 387 1127 338 1127 c 0
EndSplineSet
EndChar

StartChar: uni0E22
Encoding: 3618 3618 157
Width: 1321
VWidth: 2045
Flags: W
HStem: 0 178<408 937> 520 178<425.9 682> 816 133<380.294 533.89> 1127 133<384.207 534.277>
VStem: 126 172<755.856 888> 228 180<178 504.75> 548 136<961.463 1114.62> 937 180<178 1254>
LayerCount: 2
Fore
SplineSet
298 888 m 1xfb
 298 772 369 698 479 698 c 2
 682 698 l 1
 682 520 l 1
 487 520 l 2
 473 520 408 491 408 427 c 2
 408 178 l 1
 937 178 l 1
 937 1254 l 1
 1117 1254 l 1
 1117 0 l 1
 228 0 l 1
 228 465 l 2xf7
 228 521 245 565 280 597 c 1
 257 607 226 638 186 691 c 0
 146 743 126 809 126 888 c 0
 126 1080 246 1268 460 1260 c 0
 590 1256 684 1160 684 1038 c 0
 684 921 589 811 460 816 c 0
 383 819 329 843 298 888 c 1xfb
460 1127 m 0
 413 1127 368 1091 368 1038 c 0
 368 985 410 949 459 949 c 0
 512 949 548 988 548 1038 c 0
 548 1089 507 1127 460 1127 c 0
EndSplineSet
EndChar

StartChar: uni0E23
Encoding: 3619 3619 158
Width: 1172
VWidth: 2045
Flags: W
HStem: -8 134<519.842 672.662> 305 133<518.327 640.393> 744 178<312 629.914> 1101 178<451.326 795.408>
VStem: 370 136<139.282 292.833> 641 180<433 726.66> 685 136<138.465 292.272>
LayerCount: 2
Fore
SplineSet
596 305 m 0xfa
 549 305 506 268 506 216 c 0
 506 164 548 126 596 126 c 0
 647 126 685 168 685 215 c 0
 685 266 641 305 596 305 c 0xfa
370 216 m 0
 370 340 472 438 595 438 c 0
 614 438 630 436 641 433 c 1
 641 653 l 2
 641 726 587 744 548 744 c 2
 85 744 l 1
 85 1043 329 1279 624 1279 c 0
 841 1279 1003 1162 1091 1013 c 1
 935 924 l 1
 907 971 811 1101 624 1101 c 0
 437 1101 340 968 312 922 c 1
 544 922 l 2
 659 922 821 843 821 653 c 2xfc
 821 216 l 2
 821 91 720 -8 595 -8 c 0
 467 -8 370 95 370 216 c 0
EndSplineSet
EndChar

StartChar: uni0E24
Encoding: 3620 3620 159
Width: 1367
VWidth: 2045
Flags: W
HStem: -8 134<415.465 566.392> 305 133<446.088 568.308> 744 178<445 537> 1101 178<490.812 837.913>
VStem: 265 180<433 744> 265 136<138.713 292.504> 581 136<139.261 289.566> 1024 180<-551 913.651>
LayerCount: 2
Fore
SplineSet
490 305 m 0xf7
 443 305 401 267 401 215 c 0
 401 164 443 126 490 126 c 0
 538 126 581 164 581 215 c 0
 581 267 537 305 490 305 c 0xf7
125 744 m 1
 265 744 l 1xfb
665 1279 m 0
 962 1279 1204 1037 1204 744 c 2
 1204 -551 l 1
 1024 -551 l 1
 1024 744 l 2
 1024 940 868 1101 665 1101 c 0
 478 1101 380 969 354 922 c 1
 537 922 l 1
 537 744 l 1
 445 744 l 1
 445 433 l 1xfb
 456 436 472 438 491 438 c 0
 615 438 717 340 717 216 c 0
 717 95 618 -8 491 -8 c 0
 364 -8 265 94 265 214 c 2xf7
 265 744 l 1
 125 744 l 1
 125 1036 363 1279 665 1279 c 0
EndSplineSet
EndChar

StartChar: uni0E25
Encoding: 3621 3621 160
Width: 1385
VWidth: 2045
Flags: W
HStem: -8 134<398.358 551.409> 305 133<430.771 553.326> 675 178<489.016 815.896> 1101 178<473.025 813.456>
VStem: 105 180<744 914.537> 250 180<433 618.83> 250 136<138.259 292.272> 566 136<139.261 290.122> 1003 180<0 491.314 718 909.23>
LayerCount: 2
Fore
SplineSet
250 495 m 2xf580
 250 716 407 853 645 853 c 0
 742 853 820 836 878 803 c 0
 936 770 978 741 1003 718 c 9
 1003 744 l 2
 1003 949 840 1101 645 1101 c 0
 447 1101 285 942 285 744 c 1
 105 744 l 1xf980
 105 1041 348 1279 645 1279 c 0
 929 1279 1183 1056 1183 744 c 2
 1183 0 l 1
 1003 0 l 1
 1003 317 l 2
 1003 523 839 675 645 675 c 0
 490 675 430 603 430 496 c 2
 430 433 l 1xf580
 442 436 457 438 476 438 c 0
 600 438 702 340 702 216 c 0
 702 95 603 -8 476 -8 c 0
 351 -8 250 92 250 214 c 2xf380
 250 495 l 2xf580
476 305 m 0
 430 305 386 266 386 215 c 0xf380
 386 168 424 126 476 126 c 0
 523 126 566 164 566 215 c 0
 566 267 522 305 476 305 c 0
EndSplineSet
EndChar

StartChar: uni0E26
Encoding: 3622 3622 161
Width: 1504
VWidth: 2045
Flags: W
HStem: -8 134<265.708 418.198> 305 133<264.366 386.615> 744 178<567 656> 1101 178<598.236 930.247>
VStem: 116 136<139.482 292.833> 387 180<433 744> 431 136<142.11 292.777> 1122 180<-550 911.435>
LayerCount: 2
Fore
SplineSet
116 216 m 0xfb
 116 340 217 438 342 438 c 0
 361 438 376 436 387 433 c 1
 387 744 l 1
 223 744 l 1
 223 1038 466 1279 762 1279 c 0
 1066 1279 1302 1033 1302 744 c 2
 1302 -550 l 1
 1122 -551 l 1
 1122 744 l 2
 1122 935 965 1101 763 1101 c 0
 627 1101 512 1023 451 922 c 1
 656 922 l 1
 656 744 l 1
 567 744 l 1xfd
 567 216 l 2
 567 87 462 -8 342 -8 c 0
 211 -8 116 96 116 216 c 0xfb
342 305 m 0
 295 305 252 268 252 216 c 0
 252 164 294 126 342 126 c 0
 389 126 431 164 431 216 c 0xfb
 431 268 388 305 342 305 c 0
EndSplineSet
EndChar

StartChar: uni0E27
Encoding: 3623 3623 162
Width: 1174
VWidth: 2045
Flags: W
HStem: -8 134<697.048 852.274> 305 133<699.693 819.92> 1096 180<401.767 699.61>
VStem: 98 181<829 968.546> 551 134<138.562 291.98> 821 180<433 968.546> 865 136<138.259 292.272>
LayerCount: 2
Fore
SplineSet
550 1096 m 0xfc
 398 1096 279 978 279 829 c 1
 98 829 l 17
 98 1066 289 1276 550 1276 c 0
 810 1276 1001 1066 1001 829 c 2xfc
 1001 216 l 2xfa
 1001 89 897 -8 775 -8 c 0
 649 -8 551 92 551 216 c 0
 551 337 646 438 777 438 c 0
 795 438 810 436 821 433 c 1
 821 829 l 2
 821 980 697 1096 550 1096 c 0xfc
775 305 m 0
 722 305 685 261 685 215 c 0
 685 168 721 126 775 126 c 0
 829 126 865 168 865 215 c 0xfa
 865 261 828 305 775 305 c 0
EndSplineSet
EndChar

StartChar: uni0E28
Encoding: 3624 3624 163
Width: 1398
VWidth: 2045
Flags: W
HStem: 0 21G<161 348.375 1040 1220> 453 133<610.119 762.178> 764 133<610.586 760.991> 1088 180<514.678 859.258>
VStem: 161 180<322 903.556> 776 136<598.227 751.639> 1040 180<0 816.847> 1129 178<1145.2 1338>
DStem2: 341 322 341 0 0.345957 0.93825<0 249.975>
LayerCount: 2
Fore
SplineSet
896 757 m 1xfe
 907 733 912 706 912 675 c 0
 912 551 807 452 686 453 c 0
 623 453 572 475 532 518 c 1
 341 0 l 1
 161 0 l 1
 161 734 l 2
 161 1095 442 1268 691 1268 c 0
 867 1268 961 1209 1065 1109 c 1
 1108 1178 1129 1254 1129 1338 c 1
 1307 1338 l 1xfd
 1307 1163 1232 1025 1173 953 c 1
 1204 886 1220 813 1220 734 c 2
 1220 0 l 1
 1040 0 l 1
 1040 733 l 2
 1040 765 1037 794 1030 820 c 1
 982 789 937 768 896 757 c 1xfe
943 976 m 1
 878 1051 796 1088 696 1088 c 0
 471 1089 341 916 341 734 c 2
 341 322 l 1
 482 769 l 2
 488 789 546 896 686 897 c 0
 799 898 885 925 943 976 c 1
686 764 m 0
 635 764 596 723 596 675 c 0
 596 622 641 586 687 586 c 0
 734 586 776 624 776 675 c 0
 776 723 738 764 686 764 c 0
EndSplineSet
EndChar

StartChar: uni0E29
Encoding: 3625 3625 164
Width: 1505
VWidth: 2045
Flags: W
HStem: 0 178<290 381 559 1081> 384 163<941 1078.28> 755 133<695.791 848.748> 814 134<259.5 380.477> 1127 133<260.616 412.761>
VStem: 110 136<961.029 1114.5> 381 178<178 597 733 819> 425 136<960.223 1113.53> 1081 180<178 411 808 1254>
LayerCount: 2
Fore
SplineSet
773 888 m 0xee80
 899 888 1005 780 998 669 c 0
 994 614 975 573 941 547 c 1
 991 545 1038 556 1081 580 c 9
 1081 1254 l 1
 1261 1254 l 1
 1261 808 l 1
 1403 713 l 1
 1362 627 1315 560 1261 511 c 1
 1261 0 l 1
 290 0 l 1
 290 178 l 1
 381 178 l 1
 381 819 l 1xee80
 364 816 349 814 335 814 c 0
 207 814 110 917 110 1038 c 0
 110 1161 211 1260 335 1260 c 0
 460 1260 561 1161 561 1036 c 2xdd80
 559 733 l 1
 569 767 618 888 773 888 c 0xee80
1081 411 m 17
 1023 393 962 384 899 384 c 0
 778 386 690 416 634 474 c 0
 595 516 570 557 559 597 c 1
 559 178 l 1
 1081 178 l 1
 1081 411 l 17
773 755 m 0
 719 755 683 713 683 666 c 0
 683 618 721 577 773 577 c 0
 825 577 863 618 863 666 c 0
 863 713 827 755 773 755 c 0
336 1127 m 0
 288 1127 246 1089 246 1037 c 0
 246 984 290 948 336 948 c 0
 382 948 425 985 425 1037 c 0xdd80
 425 1088 383 1127 336 1127 c 0
EndSplineSet
EndChar

StartChar: uni0E2A
Encoding: 3626 3626 165
Width: 1385
VWidth: 2045
Flags: W
HStem: -8 134<398.358 551.409> 305 133<430.771 553.326> 675 178<491.983 813.11> 1101 178<473.025 814.937>
VStem: 105 180<744 914.537> 250 180<433 618.83> 250 136<138.259 292.272> 566 136<139.261 290.122> 1003 180<0 491.757 709 814.734> 1098 178<1110 1300>
LayerCount: 2
Fore
SplineSet
1000 817 m 1xf180
 977 800 951 785 922 773 c 1
 953 756 980 735 1003 709 c 1
 1003 744 l 2
 1003 781 1002 806 1000 817 c 1xf180
645 1279 m 0
 811 1279 953 1204 1049 1098 c 1
 1082 1161 1098 1229 1098 1300 c 1
 1276 1300 l 1xf940
 1276 1151 1233 1036 1153 927 c 1
 1173 869 1183 808 1183 744 c 2
 1183 0 l 1
 1003 0 l 1
 1003 317 l 2
 1003 524 837 675 645 675 c 0
 490 675 430 603 430 496 c 2
 430 433 l 1xf580
 442 436 457 438 476 438 c 0
 600 438 702 340 702 216 c 0
 702 95 603 -8 476 -8 c 0
 351 -8 250 92 250 214 c 2xf3
 250 495 l 2xf5
 250 716 407 853 645 853 c 0
 760 853 845 887 935 954 c 1
 907 989 819 1101 645 1101 c 0
 447 1101 285 942 285 744 c 1
 105 744 l 1xf9
 105 1041 348 1279 645 1279 c 0
476 305 m 0
 430 305 386 266 386 215 c 0xf3
 386 168 424 126 476 126 c 0
 523 126 566 164 566 215 c 0
 566 267 522 305 476 305 c 0
EndSplineSet
EndChar

StartChar: uni0E2B
Encoding: 3627 3627 166
Width: 1507
VWidth: 2045
Flags: W
HStem: 0 21G<366 556.446 1120 1300> 777 181<998.608 1100.86> 814 134<244.5 365.477> 1127 133<245.616 397.469 993.337 1157.8>
VStem: 95 136<961.029 1114.5> 366 180<316 819> 410 136<959.99 1113.94> 851 136<969.515 1125.27> 1120 180<0 757.686> 1166 134<971.14 1123.73>
DStem2: 546 316 546 0 0.462946 0.886387<0 619.511>
LayerCount: 2
Fore
SplineSet
1076 1137 m 0xd940
 1026 1137 987 1101 987 1048 c 0
 987 994 1026 958 1076 958 c 0
 1128 958 1166 999 1166 1048 c 0
 1166 1101 1123 1137 1076 1137 c 0xd940
1076 1270 m 0
 1195 1270 1300 1179 1300 1048 c 0xbd40
 1300 975 1271 917 1215 874 c 1
 1272 825 1300 752 1300 655 c 2
 1300 0 l 1
 1120 0 l 1
 1120 670 l 2
 1120 709 1098 777 1009 777 c 0
 971 777 942 757 921 718 c 2
 546 0 l 1xdb80
 366 0 l 1
 366 819 l 1xdd
 349 816 334 814 320 814 c 0
 192 814 95 917 95 1038 c 0
 95 1161 196 1260 320 1260 c 0
 443 1260 546 1162 546 1036 c 2xbb
 546 316 l 1xbd
 782 783 l 2
 812 841 849 885 895 915 c 1
 866 952 851 997 851 1048 c 0
 851 1171 952 1270 1076 1270 c 0
321 1127 m 0
 273 1127 231 1089 231 1037 c 0
 231 984 275 948 321 948 c 0
 367 948 410 984 410 1037 c 0xbb
 410 1089 369 1127 321 1127 c 0
EndSplineSet
EndChar

StartChar: uni0E2C
Encoding: 3628 3628 167
Width: 1654
VWidth: 2045
Flags: W
HStem: 0 21G<366 553.721 1192.28 1380> 814 134<244.5 365.523> 847 271<678.5 1065.5> 1127 133<245.616 395.644 1071.93 1199.21> 1430 134<1078.39 1230.3>
VStem: 95 136<961.029 1114.5> 366 180<430 819> 410 136<959.99 1112.33> 928 136<1266.19 1417.66> 1200 180<432 1122>
DStem2: 544 430 546 0 0.36016 0.932891<0 507.508> 930 1118 873 847 0.36016 -0.932891<232.284 737.206>
AnchorPoint: "AboveBase" 828 1339 basechar 0
LayerCount: 2
Fore
SplineSet
1154 1564 m 0xbdc0
 1267 1564 1328 1485 1343 1462 c 1
 1430 1548 l 1
 1556 1421 l 1
 1380 1246 l 1
 1380 0 l 1
 1200 0 l 1
 873 847 l 1
 546 0 l 1xbdc0
 366 0 l 1
 366 819 l 1
 351 816 335 814 320 814 c 0xdec0
 192 814 95 917 95 1038 c 0
 95 1161 196 1260 320 1260 c 0
 447 1260 546 1158 546 1036 c 2
 544 430 l 1
 814 1118 l 1
 930 1118 l 1
 1200 432 l 1
 1200 1122 l 1
 1186 1119 1171 1118 1154 1118 c 0
 1032 1118 928 1215 928 1341 c 0
 928 1464 1026 1564 1154 1564 c 0xbdc0
1154 1430 m 0
 1102 1430 1064 1388 1064 1340 c 0
 1064 1293 1102 1252 1153 1252 c 0
 1205 1252 1244 1293 1244 1340 c 0
 1244 1388 1206 1430 1154 1430 c 0
321 1127 m 0
 273 1127 231 1089 231 1037 c 0
 231 984 275 948 321 948 c 0xddc0
 367 948 410 984 410 1037 c 0
 410 1089 369 1127 321 1127 c 0
EndSplineSet
EndChar

StartChar: uni0E2D
Encoding: 3629 3629 168
Width: 1364
VWidth: 2045
Flags: W
HStem: 0 178<516 995> 454 133<518.265 639.435> 765 134<486.071 638.642> 1101 178<463.803 807.168>
VStem: 96 180<744 904.403> 337 179<178 457> 337 136<597.974 752.363> 652 134<599.076 752.201> 995 180<178 915.288>
LayerCount: 2
Fore
SplineSet
786 676 m 0xfb80
 786 552 686 454 562 454 c 0
 547 454 532 455 518 457 c 1
 516 178 l 1xfd80
 995 178 l 1
 995 743 l 2
 995 945 833 1101 635 1101 c 0
 438 1101 276 941 276 744 c 1
 96 744 l 1
 96 1043 340 1279 635 1279 c 0
 933 1279 1175 1040 1175 743 c 2
 1175 0 l 1
 337 0 l 1
 337 678 l 2
 337 796 432 899 562 899 c 0
 692 899 786 795 786 676 c 0xfb80
562 587 m 0
 615 587 652 628 652 676 c 0
 652 726 616 765 562 765 c 0
 507 765 473 724 473 676 c 0xfb80
 473 628 509 587 562 587 c 0
EndSplineSet
EndChar

StartChar: uni0E2E
Encoding: 3630 3630 169
Width: 1298
VWidth: 2045
Flags: W
HStem: 0 178<381 898> 306 133<381.454 504.569> 617 133<349.338 504.305> 800 160<333.388 752.084> 1104 175<346.312 710.588>
VStem: 114 213<979.892 1076.53> 201 180<178 309> 201 136<450.99 604.889> 517 136<453.969 604.924> 898 180<178 875.983>
LayerCount: 2
Fore
SplineSet
327 1023 m 0xfcc0
 327 972 441 960 534 960 c 0
 622 960 702 978 773 1014 c 1
 708 1075 626 1105 526 1104 c 0
 393 1102 327 1075 327 1023 c 0xfcc0
653 528 m 0
 653 403 550 306 427 306 c 0
 410 306 395 307 381 309 c 1
 381 178 l 1xfac0
 898 178 l 1
 898 743 l 2
 898 790 889 835 871 878 c 1
 775 825 653 799 506 800 c 0
 218 800 115 957 114 1019 c 0xfcc0
 113 1124 234 1279 545 1279 c 0
 731 1279 869 1173 919 1123 c 1
 962 1170 992 1221 1008 1276 c 1
 1160 1194 l 1
 1133 1120 1086 1051 1018 987 c 1
 1058 912 1078 830 1078 743 c 2
 1078 0 l 1
 201 0 l 1
 201 528 l 2xf9c0
 201 652 302 750 427 750 c 0
 551 750 653 652 653 528 c 0
426 439 m 0
 472 439 517 475 517 528 c 0
 517 576 478 617 426 617 c 0
 375 617 337 576 337 528 c 0xf9c0
 337 475 380 439 426 439 c 0
EndSplineSet
EndChar

StartChar: uni0E2F
Encoding: 3631 3631 170
Width: 1295
VWidth: 2045
Flags: W
HStem: 0 21G<919 1099> 719 174<353 729.321> 1118 134<263.314 416.611>
VStem: 116 134<954.618 1106.06> 430 136<951.611 1104.5> 919 180<0 853 1081 1254>
LayerCount: 2
Fore
SplineSet
340 1252 m 0
 472 1252 566 1149 566 1027 c 0
 566 978 547 935 511 899 c 1
 531 894 547 893 562 893 c 0
 757 893 919 1054 919 1252 c 2
 919 1254 l 1
 1099 1254 l 1
 1099 0 l 1
 919 0 l 1
 919 853 l 1
 863 798 731 719 503 719 c 0
 203 719 116 919 116 1023 c 0
 116 1147 208 1252 340 1252 c 0
341 1118 m 0
 289 1118 250 1078 250 1029 c 0
 250 985 285 940 341 940 c 0
 398 940 430 987 430 1029 c 0
 430 1080 389 1118 341 1118 c 0
EndSplineSet
EndChar

StartChar: uni0E30
Encoding: 3632 3632 171
Width: 1158
VWidth: 2045
Flags: W
HStem: 45 163<489 648.818> 417 133<245.734 397.162> 665 163<489 646.547> 1036 133<244.426 400.014>
VStem: 99 133<250.432 402.539 870.783 1023.48> 412 135<250.526 404.117 870.435 1023.11>
LayerCount: 2
Fore
SplineSet
503 828 m 2
 674 828 758 965 810 1089 c 1
 951 994 l 1
 883 847 751 665 452 665 c 0
 173 665 99 839 99 941 c 0
 99 1076 197 1169 322 1169 c 0
 448 1169 547 1063 547 961 c 0
 547 908 530 857 489 828 c 1
 503 828 l 2
322 1036 m 0
 269 1036 232 995 232 946 c 0
 232 897 270 858 322 858 c 0
 374 858 412 899 412 946 c 0
 412 993 376 1036 322 1036 c 0
501 208 m 0
 672 208 756 342 810 470 c 1
 951 375 l 1
 885 233 753 45 456 45 c 0
 138 45 99 256 99 322 c 0
 99 462 204 550 322 550 c 0
 448 550 547 444 547 342 c 0
 547 283 526 236 489 208 c 1
 501 208 l 0
322 417 m 0
 273 417 232 379 232 327 c 0
 232 274 274 238 322 238 c 0
 369 238 412 274 412 327 c 0
 412 379 369 417 322 417 c 0
EndSplineSet
EndChar

StartChar: uni0E31
Encoding: 3633 3633 172
Width: 0
VWidth: 2045
Flags: W
HStem: 1378 163<-422 -221.261> 1749 133<-667.398 -514.31>
VStem: -813 133<1584.48 1736.61> -500 135<1583.04 1736.21>
AnchorPoint: "AboveMark" -339 2070 basemark 0
AnchorPoint: "AboveBase" -278 1339 mark 0
LayerCount: 2
Fore
SplineSet
-422 1541 m 1
 -258 1536 -120 1609 -3 1802 c 1
 139 1707 l 1
 -42 1405 -304 1378 -454 1378 c 0
 -759 1378 -813 1582 -813 1654 c 0
 -813 1789 -715 1882 -590 1882 c 0
 -461 1882 -365 1776 -365 1673 c 0
 -365 1616 -386 1567 -422 1541 c 1
-590 1749 m 0
 -646 1749 -680 1704 -680 1659 c 0
 -680 1612 -643 1571 -590 1571 c 0
 -538 1571 -500 1612 -500 1659 c 0
 -500 1704 -534 1749 -590 1749 c 0
EndSplineSet
EndChar

StartChar: uni0E32
Encoding: 3634 3634 173
Width: 1169
VWidth: 2045
Flags: W
HStem: 0 21G<798 978> 1096 180<379.184 674.08>
VStem: 75 181<829 972.029> 798 180<0 971.255>
LayerCount: 2
Fore
SplineSet
526 1276 m 0
 777 1276 978 1073 978 829 c 2
 978 0 l 1
 798 0 l 1
 798 829 l 2
 798 983 673 1096 526 1096 c 0
 369 1096 256 974 256 829 c 1
 75 829 l 1
 75 1075 277 1276 526 1276 c 0
EndSplineSet
EndChar

StartChar: uni0E34
Encoding: 3636 3636 175
Width: 0
VWidth: 2045
Flags: W
HStem: 1726 174<-872.833 -540.154>
DStem2: -939 1636 -1229 1507 0.995651 -0.0931658<0 516.33>
AnchorPoint: "AboveMark" -250 2070 basemark 0
AnchorPoint: "AboveBase" -163 1339 mark 0
LayerCount: 2
Fore
SplineSet
-425 1587 m 1
 -447 1616 -536 1720 -709 1726 c 0
 -744 1726 -900 1694 -939 1636 c 9
 -425 1587 l 1
-1229 1507 m 17
 -1143 1807 -880 1900 -712 1900 c 0
 -470 1900 -208 1736 -171 1408 c 1
 -1229 1507 l 17
EndSplineSet
EndChar

StartChar: uni0E35
Encoding: 3637 3637 176
Width: 0
VWidth: 2045
Flags: W
HStem: 1723 174<-872.833 -540.819>
VStem: -328 157<1741 2040>
DStem2: -939 1633 -1229 1504 0.995651 -0.0931658<0 516.33>
AnchorPoint: "AboveBase" -159 1339 mark 0
AnchorPoint: "AboveMark" -250 2070 basemark 0
LayerCount: 2
Fore
SplineSet
-1229 1504 m 1
 -1143 1804 -880 1897 -712 1897 c 0
 -559 1897 -427 1824 -328 1741 c 9
 -328 2040 l 1
 -171 2040 l 1
 -171 1405 l 1
 -1229 1504 l 1
-425 1584 m 1
 -447 1613 -536 1717 -709 1723 c 0
 -744 1723 -900 1691 -939 1633 c 9
 -425 1584 l 1
EndSplineSet
EndChar

StartChar: uni0E36
Encoding: 3638 3638 177
Width: 0
VWidth: 2045
Flags: W
HStem: 1721 174<-872.833 -585.866> 1971 133<-438.944 -285.326>
VStem: -588 135<1881 1956.81> -273 136<1805.36 1958.78>
DStem2: -939 1631 -1229 1502 0.995651 -0.0931658<0 516.33>
AnchorPoint: "AboveBase" -174 1339 mark 0
AnchorPoint: "AboveMark" -363 2070 basemark 0
LayerCount: 2
Fore
SplineSet
-137 1882 m 0
 -137 1759 -231 1695 -273 1677 c 1
 -217 1601 -183 1510 -171 1403 c 1
 -1229 1502 l 1
 -1143 1802 -880 1895 -712 1895 c 0
 -663 1895 -612 1886 -588 1881 c 1
 -588 2002 -493 2104 -363 2104 c 0
 -239 2104 -137 2007 -137 1882 c 0
-363 1971 m 0
 -415 1971 -453 1928 -453 1881 c 0
 -453 1828 -407 1793 -363 1793 c 0
 -314 1793 -273 1832 -273 1881 c 0
 -273 1927 -309 1971 -363 1971 c 0
-425 1582 m 1
 -447 1611 -536 1715 -709 1721 c 0
 -744 1721 -900 1689 -939 1631 c 9
 -425 1582 l 1
EndSplineSet
EndChar

StartChar: uni0E37
Encoding: 3639 3639 178
Width: 0
VWidth: 2045
Flags: W
HStem: 1728 174<-872.833 -565.811>
VStem: -564 157<1879 2045> -328 157<1746 2045>
DStem2: -939 1638 -1229 1509 0.995651 -0.0931658<0 516.33>
AnchorPoint: "AboveMark" -368 2070 basemark 0
AnchorPoint: "AboveBase" -175 1339 mark 0
LayerCount: 2
Fore
SplineSet
-1229 1509 m 1
 -1143 1809 -880 1902 -712 1902 c 0
 -662 1902 -615 1894 -564 1879 c 1
 -564 2045 l 1
 -407 2045 l 1
 -407 1806 l 17
 -377 1785 -351 1765 -328 1746 c 1
 -328 2045 l 1
 -171 2045 l 1
 -171 1410 l 1
 -1229 1509 l 1
-425 1589 m 1
 -447 1618 -536 1722 -709 1728 c 0
 -744 1728 -900 1696 -939 1638 c 9
 -425 1589 l 1
EndSplineSet
EndChar

StartChar: uni0E38
Encoding: 3640 3640 179
Width: 0
VWidth: 2045
Flags: W
HStem: -532 133<-458.681 -338.863> -221 134<-460.532 -307.081>
VStem: -610 136<-383.774 -233.289> -338 180<-755 -529> -294 136<-386.504 -235.239>
AnchorPoint: "BelowBase" -159 -88 mark 0
LayerCount: 2
Fore
SplineSet
-384 -87 m 0xf0
 -252 -87 -158 -194 -158 -308 c 2xe8
 -158 -755 l 1
 -338 -755 l 9
 -338 -529 l 1
 -354 -531 -369 -532 -384 -532 c 0
 -509 -532 -610 -434 -610 -310 c 0
 -610 -188 -514 -87 -384 -87 c 0xf0
-384 -221 m 0
 -436 -221 -474 -261 -474 -309 c 0
 -474 -358 -433 -399 -384 -399 c 0
 -338 -399 -294 -361 -294 -309 c 0
 -294 -261 -332 -221 -384 -221 c 0
EndSplineSet
Substitution2: "Thai Sara U Mai Ek Reordering" uni0E48.low
Substitution2: "Thai Sara U Mai Tho Reordering" uni0E49.low
Substitution2: "Thai Sara U Mai Tri Reordering" uni0E4A.low
Substitution2: "Thai Sara U Mai Chattawa Reordering" uni0E4B.low
Substitution2: "Thai Sara U Thanthakhat Reordering" uni0E4C.low
Substitution2: "Thai Sara U Nikhahit Reordering" uni0E4D
EndChar

StartChar: uni0E39
Encoding: 3641 3641 180
Width: 0
VWidth: 2045
Flags: W
HStem: -775 156<-494 -331> -532 133<-795.028 -674.618> -221 134<-796.398 -642.67>
VStem: -945 136<-386.112 -233.654> -674 180<-619 -529> -630 136<-386.504 -234.438> -331 180<-619 -85>
AnchorPoint: "BelowBase" -112 -85 mark 0
LayerCount: 2
Fore
SplineSet
-720 -87 m 0xfa
 -587 -87 -494 -192 -494 -308 c 2xf6
 -494 -619 l 1
 -331 -619 l 1
 -331 -85 l 1
 -151 -85 l 1
 -151 -775 l 1
 -674 -775 l 25
 -674 -529 l 1
 -689 -531 -704 -532 -720 -532 c 0
 -846 -532 -945 -432 -945 -310 c 0
 -945 -190 -851 -87 -720 -87 c 0xfa
-720 -221 m 0
 -768 -221 -809 -256 -809 -309 c 0
 -809 -364 -764 -399 -720 -399 c 0
 -673 -399 -630 -361 -630 -309 c 0
 -630 -261 -666 -221 -720 -221 c 0
EndSplineSet
Substitution2: "Thai Sara UU Mai Ek Reordering" uni0E48.low
Substitution2: "Thai Sara UU Mai Tho Reordering" uni0E49.low
Substitution2: "Thai Sara UU Mai Tri Reordering" uni0E4A.low
Substitution2: "Thai Sara UU Mai Chattawa Reordering" uni0E4B.low
Substitution2: "Thai Sara UU Thanthakhat Reordering" uni0E4C.low
Substitution2: "Thai Sara UU Nikhahit Reordering" uni0E4D
EndChar

StartChar: uni0E3A
Encoding: 3642 3642 181
Width: 0
VWidth: 2045
Flags: W
HStem: -438 356<-488.489 -253.23>
VStem: -552 360<-376.849 -143.31>
AnchorPoint: "BelowBase" -185 -86 mark 0
LayerCount: 2
Fore
SplineSet
-370 -438 m 0
 -469 -438 -552 -360 -552 -258 c 0
 -552 -158 -471 -82 -370 -82 c 0
 -266 -82 -192 -162 -192 -258 c 0
 -192 -360 -271 -438 -370 -438 c 0
EndSplineSet
Substitution2: "Thai Phinthu Maitaikhu Reordering" uni0E47
Substitution2: "Thai Phinthu Mai Ek Reordering" uni0E48.low
Substitution2: "Thai Phinthu Mai Tho Reordering" uni0E49.low
Substitution2: "Thai Phinthu Mai Tri Reordering" uni0E4A.low
Substitution2: "Thai Phinthu Mai Chattawa Reordering" uni0E4B.low
Substitution2: "Thai Phinthu Thanthakhat Reordering" uni0E4C.low
Substitution2: "Thai Phinthu Nikhahit Reordering" uni0E4D
EndChar

StartChar: uni0E3F
Encoding: 3647 3647 182
Width: 1364
VWidth: 2045
Flags: W
HStem: 0 172<345 550 707 945.044> 669 174<345 550 707 908.803> 1278 172<345 550 707 895.146>
VStem: 165 180<172 669 843 1278> 550 157<-131 0 172 669 843 1276 1450 1598> 994 191<922.608 1195.24> 1055 201<274.158 566.426>
LayerCount: 2
Fore
SplineSet
980 772 m 1xfc
 1139 728 1256 605 1256 420 c 0xfa
 1256 252 1180 0 707 0 c 9
 707 -131 l 1
 550 -131 l 1
 550 0 l 1
 165 0 l 1
 165 1450 l 1
 550 1450 l 1
 550 1598 l 1
 707 1598 l 1
 707 1450 l 1
 1133 1448 1185 1191 1185 1080 c 0
 1185 1004 1152 856 980 772 c 1xfc
707 843 m 17
 806 846 994 852 994 1056 c 0xfc
 994 1265 816 1271 707 1276 c 1
 707 843 l 17
707 172 m 17
 861 172 1055 194 1055 420 c 0xfa
 1055 619 900 664 707 669 c 1
 707 172 l 17
550 172 m 25
 550 669 l 1
 345 669 l 1
 345 172 l 1
 550 172 l 25
550 841 m 25
 550 1278 l 1
 345 1278 l 1
 345 843 l 1
 550 841 l 25
EndSplineSet
EndChar

StartChar: uni0E40
Encoding: 3648 3648 183
Width: 706
VWidth: 2045
Flags: W
HStem: -8 134<336.226 487.697> 305 133<368.41 487.25> 1234 20G<188 368>
VStem: 188 180<433 1254> 188 134<139.915 293.19> 502 134<139.363 292.639>
LayerCount: 2
Fore
SplineSet
412 305 m 0xec
 356 305 322 260 322 215 c 0
 322 168 361 126 412 126 c 0
 464 126 502 168 502 215 c 0
 502 260 468 305 412 305 c 0xec
412 -8 m 0
 282 -8 188 97 188 214 c 2xec
 188 1254 l 1
 368 1254 l 1
 368 433 l 1xf4
 380 436 395 438 412 438 c 0
 539 438 636 338 636 216 c 0
 636 96 541 -8 412 -8 c 0
EndSplineSet
EndChar

StartChar: uni0E41
Encoding: 3649 3649 184
Width: 1277
VWidth: 2045
Flags: W
HStem: -8 134<316.226 467.697 903.699 1054.58> 305 133<348.41 467.25 933.526 1056.33> 1234 20G<168 348 753 933>
VStem: 168 180<433 1254> 168 134<139.915 293.19> 482 134<139.363 292.639> 753 180<433 1254> 753 136<138.313 292.969> 1069 136<140.216 290.122>
LayerCount: 2
Fore
SplineSet
979 305 m 0xe580
 932 305 889 269 889 215 c 0
 889 168 928 126 979 126 c 0
 1024 126 1069 164 1069 215 c 0
 1069 267 1025 305 979 305 c 0xe580
979 -8 m 0
 852 -8 753 93 753 214 c 2xe580
 753 1254 l 1
 933 1254 l 1
 933 433 l 1xe680
 944 436 960 438 979 438 c 0
 1103 438 1205 340 1205 216 c 0
 1205 97 1108 -8 979 -8 c 0
392 305 m 0
 336 305 302 260 302 215 c 0xec80
 302 168 341 126 392 126 c 0
 444 126 482 168 482 215 c 0
 482 260 448 305 392 305 c 0
392 -8 m 0
 262 -8 168 97 168 214 c 2xec80
 168 1254 l 1
 348 1254 l 1
 348 433 l 1xf480
 360 436 375 438 392 438 c 0
 519 438 616 338 616 216 c 0
 616 96 521 -8 392 -8 c 0
EndSplineSet
EndChar

StartChar: uni0E42
Encoding: 3650 3650 185
Width: 852
VWidth: 2045
Flags: W
HStem: -8 134<462.877 614.93> 305 133<495.387 615.258> 1542 178<-14 302.358> 1899 178<124.63 468.708>
VStem: 315 180<433 1530.65> 315 134<139.915 293.19> 629 134<139.38 291.626>
LayerCount: 2
Fore
SplineSet
217 1720 m 2xfa
 345 1720 495 1635 495 1452 c 2
 495 433 l 1xfa
 506 436 521 438 539 438 c 0
 658 438 763 346 763 216 c 0
 763 95 668 -8 539 -8 c 0
 409 -8 315 97 315 214 c 2xf6
 315 1452 l 2
 315 1509 279 1542 222 1542 c 2
 -242 1542 l 1
 -242 1836 -1 2077 298 2077 c 0
 512 2077 678 1959 765 1811 c 1
 609 1722 l 1
 580 1772 485 1899 298 1899 c 0
 111 1899 15 1769 -14 1720 c 1
 217 1720 l 2xfa
539 305 m 0
 483 305 449 260 449 215 c 0xf6
 449 169 485 126 539 126 c 0
 593 126 629 170 629 215 c 0
 629 260 595 305 539 305 c 0
EndSplineSet
EndChar

StartChar: uni0E43
Encoding: 3651 3651 186
Width: 909
VWidth: 2045
Flags: W
HStem: -8 134<520.474 673.579> 305 133<552.549 675.326> 1384 133<-4.55222 149.402> 1695 128<26.3934 150.671> 1903 178<54.8067 302.408>
VStem: -186 169<1531.43 1817.97> 163 136<1529.59 1680.68> 372 180<433 1833.2> 372 136<143.033 292.969> 688 136<140.216 290.122>
LayerCount: 2
Fore
SplineSet
74 1695 m 0xfe40
 27 1695 -17 1659 -17 1606 c 0
 -17 1559 21 1517 74 1517 c 0
 131 1517 163 1564 163 1606 c 0
 163 1657 122 1695 74 1695 c 0xfe40
598 305 m 0
 551 305 508 269 508 215 c 0xfec0
 508 168 547 126 598 126 c 0
 643 126 688 164 688 215 c 0
 688 267 644 305 598 305 c 0
598 -8 m 0
 473 -8 372 92 372 214 c 2xfec0
 372 1719 l 2
 372 1831 275 1903 186 1903 c 0
 110 1903 66 1883 26 1823 c 1
 28 1823 l 2
 42 1823 71 1831 100 1831 c 0
 187 1831 299 1762 299 1606 c 0
 299 1487 204 1384 73 1384 c 0
 -28 1384 -186 1463 -186 1676 c 0
 -186 1954 10 2081 188 2081 c 0
 397 2081 552 1914 552 1719 c 2
 552 433 l 1xff40
 564 436 579 438 598 438 c 0
 722 438 824 340 824 216 c 0
 824 97 727 -8 598 -8 c 0
EndSplineSet
EndChar

StartChar: uni0E44
Encoding: 3652 3652 187
Width: 903
VWidth: 2045
Flags: W
HStem: -8 134<520.474 673.579> 305 133<552.549 675.326>
VStem: -90 157<1745 2119.08> 372 180<433 1846> 372 136<143.033 292.969> 688 136<140.216 290.122>
DStem2: 67 1745 76 1521 0.679852 0.733349<0 281.423>
LayerCount: 2
Fore
SplineSet
598 -8 m 0xf4
 473 -8 372 92 372 214 c 2xec
 372 1846 l 1xf4
 76 1521 l 1
 -90 1521 l 1
 -90 1997 l 2
 -90 2050 -110 2097 -149 2136 c 1
 -47 2238 l 1
 29 2177 67 2096 67 1997 c 2
 67 1745 l 1
 372 2074 l 1xec
 552 2074 l 25
 552 433 l 1
 564 436 579 438 598 438 c 0
 722 438 824 340 824 216 c 0
 824 97 727 -8 598 -8 c 0xf4
598 305 m 0
 551 305 508 269 508 215 c 0
 508 168 547 126 598 126 c 0
 643 126 688 164 688 215 c 0
 688 267 644 305 598 305 c 0
EndSplineSet
EndChar

StartChar: uni0E45
Encoding: 3653 3653 188
Width: 1090
VWidth: 2045
Flags: W
HStem: 1096 180<253.179 546.883>
VStem: -52 181<829 973.19> 671 180<-551 969.32>
LayerCount: 2
Fore
SplineSet
399 1276 m 0
 654 1276 851 1068 851 829 c 2
 851 -551 l 1
 671 -551 l 1
 671 829 l 2
 671 975 554 1096 399 1096 c 0
 243 1096 129 974 129 829 c 1
 -52 829 l 1
 -52 1078 154 1276 399 1276 c 0
EndSplineSet
EndChar

StartChar: uni0E46
Encoding: 3654 3654 189
Width: 1648
VWidth: 2045
Flags: W
HStem: 571 133<453.075 606.435> 882 132<483.467 607.184> 1237 21G<503 657.111 893.169 978>
VStem: 281 160<716.644 868.842> 620 136<718.332 868.075> 1055 180<-551 1007.92>
LayerCount: 2
Fore
SplineSet
928 1257 m 1
 1028 1235 1235 1125 1235 870 c 2
 1235 -551 l 1
 1055 -551 l 1
 1055 870 l 2
 1055 1008 960 1081 881 1100 c 1
 771 1033 l 1
 659 1103 l 1
 600 1103 542 1069 483 1000 c 1
 496 1005 525 1014 553 1014 c 0
 612 1014 756 956 756 800 c 0
 756 658 647 571 531 571 c 0
 426 571 284 651 281 852 c 0
 281 1014 382 1201 624 1258 c 1
 773 1168 l 1
 928 1257 l 1
531 882 m 0
 479 882 441 843 441 794 c 0
 441 738 486 704 531 704 c 0
 573 704 620 736 620 794 c 0
 620 846 578 882 531 882 c 0
EndSplineSet
EndChar

StartChar: uni0E47
Encoding: 3655 3655 190
Width: 0
VWidth: 2045
Flags: W
HStem: 1367 112<-496.532 -372.775> 1476 131<-832.501 -702.259> 1612 112<-496.215 -372.383> 1769 119<-928.373 -322.393>
VStem: -1095 131<1521.27 1732.81> -614 113<1512.52 1607.8> -367 113<1483.66 1606.03>
AnchorPoint: "AboveBase" -272 1339 mark 0
LayerCount: 2
Fore
SplineSet
-832 1367 m 1xbe
 -1064 1396 -1095 1531 -1095 1622 c 0
 -1095 1833 -919 1888 -782 1888 c 0
 -720 1888 -658 1876 -552 1876 c 0
 -390 1876 -297 1918 -273 2001 c 1
 -171 1941 l 1
 -206 1820 -325 1759 -529 1758 c 0
 -648 1758 -696 1769 -768 1769 c 0
 -942 1769 -964 1698 -964 1619 c 0
 -964 1557 -942 1521 -899 1512 c 1
 -899 1581 -855 1607 -815 1607 c 0x7e
 -721 1607 -682 1526 -611 1512 c 1
 -613 1523 -614 1534 -614 1545 c 0
 -616 1647 -531 1724 -434 1724 c 0
 -338 1724 -254 1648 -254 1545 c 0
 -254 1468 -306 1367 -453 1367 c 0xbe
 -644 1367 -695 1476 -786 1476 c 0x7e
 -824 1476 -834 1454 -834 1411 c 0
 -834 1398 -833 1383 -832 1367 c 1xbe
-434 1612 m 0
 -469 1612 -501 1585 -501 1545 c 0
 -501 1509 -474 1479 -434 1479 c 0xbe
 -394 1479 -367 1510 -367 1545 c 0
 -367 1583 -399 1612 -434 1612 c 0
EndSplineSet
Substitution2: "Thai Mark High Variant" uni0E47.high
Substitution2: "Thai Phinthu Maitaikhu Reordering" uni0E3A
EndChar

StartChar: uni0E48
Encoding: 3656 3656 191
Width: 0
VWidth: 2045
Flags: W
HStem: 2128 330<-485 -305>
VStem: -485 180<2128 2458>
AnchorPoint: "AboveMark" -395 2070 mark 0
LayerCount: 2
Fore
SplineSet
-485 2128 m 17
 -485 2458 l 1
 -305 2458 l 1
 -305 2128 l 1
 -485 2128 l 17
EndSplineSet
MultipleSubs2: "Thai Tone Nikhahit Attachment" uni0E4D uni0E48
Substitution2: "Thai Tone Low Variant" uni0E48.low
Substitution2: "Thai Sara U Mai Ek Reordering" uni0E38
Substitution2: "Thai Sara UU Mai Ek Reordering" uni0E39
Substitution2: "Thai Phinthu Mai Ek Reordering" uni0E3A
EndChar

StartChar: uni0E49
Encoding: 3657 3657 192
Width: 0
VWidth: 2045
Flags: W
HStem: 2437 90<-556.813 -452.487>
VStem: -649 91<2331.92 2434.99> -451 90<2331.85 2435.94> -202 125<2352.93 2517>
AnchorPoint: "AboveMark" -419 2070 mark 0
LayerCount: 2
Back
SplineSet
-527 2637 m 0
 -421 2637 -347 2555 -347 2459 c 0
 -347 2401 -367 2353 -406 2315 c 2
 -473 2243 l 1
 -391 2258 -316 2296 -249 2359 c 0
 -182 2422 -149 2510 -149 2625 c 1
 8 2625 l 1
 14 2309 -251 2087 -529 2087 c 2
 -678 2087 l 1
 -678 2241 l 1
 -576 2297 l 1
 -701 2321 -707 2433 -707 2460 c 0
 -707 2557 -632 2637 -527 2637 c 0
-527 2525 m 0
 -570 2525 -594 2492 -594 2459 c 0
 -594 2419 -562 2392 -527 2392 c 0
 -489 2392 -460 2424 -460 2459 c 0
 -460 2488 -484 2525 -527 2525 c 0
EndSplineSet
Fore
SplineSet
-505 2527 m 0
 -420 2527 -361 2461 -361 2384 c 0
 -361 2338 -377 2300 -408 2269 c 2
 -462 2212 l 1
 -396 2224 -336 2254 -282 2304 c 0
 -229 2355 -202 2425 -202 2517 c 1
 -77 2517 l 1
 -72 2264 -284 2087 -506 2087 c 2
 -626 2087 l 1
 -626 2210 l 1
 -544 2255 l 1
 -644 2274 -649 2364 -649 2385 c 0
 -649 2463 -589 2527 -505 2527 c 0
-505 2437 m 0
 -539 2437 -558 2411 -558 2384 c 0
 -558 2352 -533 2331 -505 2331 c 0
 -474 2331 -451 2356 -451 2384 c 0
 -451 2408 -470 2437 -505 2437 c 0
EndSplineSet
MultipleSubs2: "Thai Tone Nikhahit Attachment" uni0E4D uni0E49
Substitution2: "Thai Tone Low Variant" uni0E49.low
Substitution2: "Thai Sara U Mai Tho Reordering" uni0E38
Substitution2: "Thai Sara UU Mai Tho Reordering" uni0E39
Substitution2: "Thai Phinthu Mai Tho Reordering" uni0E3A
EndChar

StartChar: uni0E4A
Encoding: 3658 3658 193
Width: 0
VWidth: 2045
Flags: W
HStem: 2100 90<-731.641 -627.251> 2296 90<-722.457 -627.181> 2429 102<-718.017 -556.548 -464.07 -309.032>
VStem: -849 116<2192.81 2355.31> -626 91<2190.8 2295.13> -289 103<2264.06 2410.87> -80 102<2339.12 2492>
AnchorPoint: "AboveMark" -458 2070 mark 0
LayerCount: 2
Back
SplineSet
-127 2304 m 1
 -58 2357 14 2455 14 2590 c 1
 142 2590 l 17
 142 2289 -120 2100 -329 2100 c 5
 -329 2227 l 1
 -329 2227 -247 2278 -247 2369 c 0
 -247 2471 -322 2511 -358 2511 c 0
 -412 2511 -451 2489 -471 2446 c 1
 -572 2446 l 1
 -613 2489 -649 2511 -678 2511 c 0
 -723 2510 -764 2484 -790 2449 c 1
 -771 2454 -752 2457 -735 2457 c 0
 -630 2457 -555 2376 -555 2278 c 0
 -555 2181 -630 2100 -735 2100 c 0
 -832 2100 -947 2172 -947 2348 c 0
 -947 2559 -772 2638 -678 2638 c 0
 -609 2638 -556 2617 -520 2574 c 1
 -485 2617 -432 2638 -363 2638 c 0
 -253 2638 -119 2535 -119 2369 c 0
 -119 2344 -122 2323 -127 2304 c 1
-735 2345 m 0
 -773 2345 -802 2313 -802 2278 c 0
 -802 2245 -774 2212 -735 2212 c 0
 -697 2212 -668 2243 -668 2278 c 0
 -668 2317 -701 2345 -735 2345 c 0
EndSplineSet
Fore
SplineSet
-193 2263 m 1
 -138 2306 -80 2384 -80 2492 c 1
 22 2492 l 17
 22 2251 -187 2100 -354 2100 c 1
 -354 2202 l 1
 -354 2202 -289 2243 -289 2315 c 0
 -289 2397 -349 2429 -378 2429 c 0
 -421 2429 -452 2411 -468 2377 c 1
 -549 2377 l 1
 -582 2411 -610 2429 -634 2429 c 0
 -670 2428 -702 2407 -723 2379 c 1
 -708 2383 -693 2386 -679 2386 c 0
 -595 2386 -535 2321 -535 2243 c 0
 -535 2165 -595 2100 -679 2100 c 0
 -757 2100 -849 2158 -849 2299 c 0
 -849 2467 -709 2531 -634 2531 c 0
 -578 2531 -536 2514 -507 2479 c 1
 -479 2514 -437 2531 -382 2531 c 0
 -294 2531 -186 2448 -186 2315 c 0
 -186 2295 -189 2279 -193 2263 c 1
-679 2296 m 0
 -710 2296 -733 2271 -733 2243 c 0
 -733 2216 -710 2190 -679 2190 c 0
 -649 2190 -626 2215 -626 2243 c 0
 -626 2274 -652 2296 -679 2296 c 0
EndSplineSet
MultipleSubs2: "Thai Tone Nikhahit Attachment" uni0E4D uni0E4A
Substitution2: "Thai Tone Low Variant" uni0E4A.low
Substitution2: "Thai Sara U Mai Tri Reordering" uni0E38
Substitution2: "Thai Sara UU Mai Tri Reordering" uni0E39
Substitution2: "Thai Phinthu Mai Tri Reordering" uni0E3A
EndChar

StartChar: uni0E4B
Encoding: 3659 3659 194
Width: 0
VWidth: 2045
Flags: W
HStem: 2247 144<-550 -430 -286 -166>
VStem: -430 144<2127 2247 2391 2510>
AnchorPoint: "AboveMark" -357 2070 mark 0
LayerCount: 2
Back
SplineSet
-117 2277 m 1
 -267 2277 l 1
 -267 2127 l 1
 -448 2127 l 1
 -448 2277 l 1
 -598 2277 l 1
 -598 2457 l 1
 -448 2457 l 1
 -448 2606 l 1
 -267 2606 l 1
 -267 2457 l 1
 -117 2457 l 1
 -117 2277 l 1
EndSplineSet
Fore
SplineSet
-166 2247 m 1
 -286 2247 l 1
 -286 2127 l 1
 -430 2127 l 1
 -430 2247 l 1
 -550 2247 l 1
 -550 2391 l 1
 -430 2391 l 1
 -430 2510 l 1
 -286 2510 l 1
 -286 2391 l 1
 -166 2391 l 1
 -166 2247 l 1
EndSplineSet
MultipleSubs2: "Thai Tone Nikhahit Attachment" uni0E4D uni0E4B
Substitution2: "Thai Tone Low Variant" uni0E4B.low
Substitution2: "Thai Sara U Mai Chattawa Reordering" uni0E38
Substitution2: "Thai Sara UU Mai Chattawa Reordering" uni0E39
Substitution2: "Thai Phinthu Mai Chattawa Reordering" uni0E3A
EndChar

StartChar: uni0E4C
Encoding: 3660 3660 195
Width: 0
VWidth: 2045
Flags: W
HStem: 2138 106<-629.069 -499.428> 2371 124<-392 -76.0891> 2387 108<-628.008 -497.217>
VStem: -743 107<2250.56 2380.74> -492 109<2250.6 2370.56>
AnchorPoint: "AboveMark" -387 2070 mark 0
LayerCount: 2
Back
SplineSet
-611 2450 m 4xb8
 -658 2450 -701 2414 -701 2361 c 4
 -701 2309 -658 2271 -611 2271 c 4
 -564 2271 -521 2309 -521 2361 c 4
 -521 2414 -564 2450 -611 2450 c 4xb8
-835 2360 m 4
 -835 2492 -731 2584 -610 2584 c 6xb8
 -140 2582 l 6
 -76 2582 -29 2601 0 2640 c 5
 110 2531 l 5
 43 2462 -41 2428 -140 2428 c 6
 -396 2430 l 5xd8
 -389 2407 -385 2384 -385 2362 c 4
 -385 2240 -484 2138 -611 2138 c 4
 -730 2138 -835 2230 -835 2360 c 4
EndSplineSet
Fore
SplineSet
-564 2387 m 0xb8
 -602 2387 -636 2359 -636 2316 c 0
 -636 2275 -602 2244 -564 2244 c 0
 -526 2244 -492 2275 -492 2316 c 0
 -492 2359 -526 2387 -564 2387 c 0xb8
-743 2315 m 0
 -743 2421 -660 2495 -563 2495 c 2xb8
 -187 2493 l 2
 -136 2493 -98 2508 -75 2539 c 1
 13 2452 l 1
 -41 2397 -108 2370 -187 2370 c 2
 -392 2371 l 1xd8
 -386 2353 -383 2335 -383 2317 c 0
 -383 2219 -462 2138 -564 2138 c 0
 -659 2138 -743 2211 -743 2315 c 0
EndSplineSet
MultipleSubs2: "Thai Tone Nikhahit Attachment" uni0E4D uni0E4C
Substitution2: "Thai Tone Low Variant" uni0E4C.low
Substitution2: "Thai Sara U Thanthakhat Reordering" uni0E38
Substitution2: "Thai Sara UU Thanthakhat Reordering" uni0E39
Substitution2: "Thai Phinthu Thanthakhat Reordering" uni0E3A
EndChar

StartChar: uni0E4D
Encoding: 3661 3661 196
Width: 0
VWidth: 2045
Flags: W
HStem: 1375 134<-475.92 -321.482> 1688 133<-473.774 -322.226>
VStem: -622 134<1521.42 1674.67> -308 134<1522.63 1674.67>
AnchorPoint: "AboveMark" -398 2070 basemark 0
AnchorPoint: "AboveBase" -174 1339 mark 0
LayerCount: 2
Fore
SplineSet
-398 1375 m 0
 -525 1375 -622 1476 -622 1598 c 0
 -622 1718 -528 1821 -398 1821 c 0
 -268 1821 -174 1718 -174 1598 c 0
 -174 1469 -278 1375 -398 1375 c 0
-398 1688 m 0
 -449 1688 -488 1647 -488 1598 c 0
 -488 1550 -450 1509 -398 1509 c 0
 -346 1509 -308 1550 -308 1598 c 0
 -308 1647 -347 1688 -398 1688 c 0
EndSplineSet
Substitution2: "Thai Mark High Variant" uni0E4D.high
Substitution2: "Thai Sara U Nikhahit Reordering" uni0E38
Substitution2: "Thai Sara UU Nikhahit Reordering" uni0E39
Substitution2: "Thai Phinthu Nikhahit Reordering" uni0E3A
EndChar

StartChar: uni0E4E
Encoding: 3662 3662 197
Width: 0
VWidth: 2045
Flags: W
HStem: 1381 156<-560.82 -473> 1759 157<-558.885 -473> 2028 156<-290.796 -116.634>
VStem: -744 159<1560.34 1736.68> -473 157<1916 2004.62> -91 158<1916 2004.91>
AnchorPoint: "AboveBase" -140 1339 mark 0
LayerCount: 2
Fore
SplineSet
-585 1648 m 0
 -585 1581 -533 1537 -473 1537 c 1
 -473 1381 l 17
 -625 1381 -744 1499 -744 1648 c 0
 -744 1802 -620 1916 -473 1916 c 1
 -473 2072 -348 2184 -204 2184 c 0
 -60 2184 67 2074 67 1916 c 1
 -91 1916 l 1
 -91 1975 -138 2028 -204 2028 c 0
 -269 2028 -316 1974 -316 1916 c 0
 -316 1887 -305 1860 -284 1837 c 1
 -284 1726 l 1
 -393 1726 l 1
 -416 1748 -443 1759 -473 1759 c 0
 -532 1759 -585 1715 -585 1648 c 0
EndSplineSet
EndChar

StartChar: uni0E4F
Encoding: 3663 3663 198
Width: 1571
VWidth: 2045
Flags: W
HStem: -23 133<607.531 968.566> 245 133<686.417 881.99> 646 133<684.742 882.191> 914 133<607.311 967.886>
VStem: 244 134<330.183 693.599> 514 136<413.763 611.498> 918 136<414.818 608.801> 1189 134<334.408 685.882>
LayerCount: 2
Fore
SplineSet
784 -23 m 0
 485 -23 244 215 244 512 c 0
 244 809 485 1047 784 1047 c 0
 1082 1047 1323 809 1323 512 c 0
 1323 215 1081 -23 784 -23 c 0
784 914 m 0
 571 914 378 744 378 512 c 0
 378 279 572 110 784 110 c 0
 1007 110 1189 290 1189 512 c 0
 1189 737 1003 914 784 914 c 0
784 245 m 0
 629 245 514 366 514 512 c 0
 514 665 636 779 784 779 c 0
 944 779 1054 651 1054 512 c 0
 1054 372 943 245 784 245 c 0
784 646 m 0
 714 646 650 591 650 512 c 0
 650 432 714 378 784 378 c 0
 858 378 918 437 918 512 c 0
 918 586 858 646 784 646 c 0
EndSplineSet
EndChar

StartChar: uni0E50
Encoding: 3664 3664 199
Width: 1326
VWidth: 2045
Flags: W
HStem: 0 157<471.942 853.435> 737 157<470.171 852.412>
VStem: 123 180<310.138 585.55> 1023 180<309.308 585.881>
LayerCount: 2
Fore
SplineSet
663 737 m 0
 465 737 303 610 303 447 c 0
 303 289 460 157 663 157 c 0
 865 157 1023 287 1023 447 c 0
 1023 608 864 737 663 737 c 0
663 0 m 0
 345 0 123 218 123 447 c 0
 123 679 349 894 663 894 c 0
 975 894 1203 683 1203 447 c 0
 1203 216 979 0 663 0 c 0
EndSplineSet
EndChar

StartChar: uni0E51
Encoding: 3665 3665 200
Width: 1361
VWidth: 2045
Flags: W
HStem: 0 190<439.508 713.739> 369 134<561.422 715.587> 719 175<477.844 860.365>
VStem: 137 180<242.156 568.532> 412 136<202.4 356.406> 727 136<203.531 356.849> 1024 180<188.27 559.322>
LayerCount: 2
Fore
SplineSet
669 719 m 0
 463 719 317 604 317 409 c 0
 317 278 382 184 462 160 c 1
 429 193 412 233 412 281 c 0
 412 400 510 503 637 503 c 0
 764 503 863 402 863 281 c 0
 862 196 823 122 746 60 c 0
 692 20 613 0 509 0 c 0
 318 0 135 160 137 414 c 0
 137 627 333 894 668 894 c 0
 927 894 1204 711 1204 364 c 0
 1204 66 979 -82 875 -133 c 1
 776 15 l 1
 991 113 1024 252 1024 387 c 0
 1024 596 880 719 669 719 c 0
637 369 m 0
 595 369 548 337 548 280 c 0
 548 225 593 190 637 190 c 0
 684 190 727 228 727 280 c 0
 727 333 684 369 637 369 c 0
EndSplineSet
EndChar

StartChar: uni0E52
Encoding: 3666 3666 201
Width: 1454
VWidth: 2045
Flags: W
HStem: 0 177<292 1060.3> 239 133<516.179 668.637> 550 134<574.203 667.277> 719 175<576.168 810.381 970.788 1118.52> 1205 179<2 92.0558>
VStem: 114 178<177 1181.5> 358 145<384.782 655.479> 683 134<384.346 537.184> 849 93<603 679.78> 1154 181<279.546 685.559>
LayerCount: 2
Fore
SplineSet
358 533 m 0
 358 773 535 894 686 894 c 0
 764 894 831 861 887 794 c 1
 946 861 1003 894 1058 894 c 0
 1242 894 1335 747 1335 453 c 0
 1335 63 1101 0 997 0 c 2
 114 0 l 1
 114 1094 l 2
 114 1149 76 1205 2 1205 c 1
 2 1384 l 1
 241 1384 292 1194 292 1094 c 2
 292 177 l 1
 945 177 l 2
 1070 177 1154 295 1154 449 c 0
 1155 629 1124 719 1061 719 c 0
 996 719 956 680 942 603 c 1
 849 603 l 1
 831 680 775 718 681 719 c 0
 634 719 598 707 573 684 c 1
 593 684 l 2
 723 684 817 581 817 461 c 0
 817 339 722 239 593 239 c 0
 522 239 358 275 358 533 c 0
593 550 m 0
 541 550 503 509 503 461 c 0
 503 417 537 372 593 372 c 0
 649 372 683 417 683 461 c 0
 683 509 645 550 593 550 c 0
114 0 m 1
EndSplineSet
EndChar

StartChar: uni0E53
Encoding: 3667 3667 202
Width: 1398
VWidth: 2045
Flags: W
HStem: 0 133<344.229 495.091> 311 134<341.522 496.513> 719 175<376.402 621.707 849.451 1043>
VStem: 113 169<408.015 618.574> 509 134<146.735 298.706> 646 180<438 694.166> 1073 180<0 691.859>
LayerCount: 2
Fore
SplineSet
517 719 m 0
 365 719 286 608 282 452 c 0
 282 437 285 422 291 405 c 1
 334 432 374 445 413 445 c 0
 562 445 643 330 643 224 c 0
 643 90 537 0 418 0 c 0
 186 0 113 229 113 440 c 0
 113 803 372 894 517 894 c 0
 598 894 669 864 732 804 c 1
 792 864 862 894 942 894 c 0
 1117 894 1253 756 1253 586 c 2
 1253 0 l 1
 1073 0 l 1
 1073 594 l 2
 1073 665 1026 720 947 717 c 0
 850 717 828 650 826 619 c 2
 826 438 l 1
 646 438 l 1
 646 616 l 2
 646 659 606 719 517 719 c 0
418 311 m 0
 365 311 329 268 329 223 c 0
 329 176 365 133 418 133 c 0
 473 133 509 175 509 223 c 0
 509 270 472 311 418 311 c 0
EndSplineSet
EndChar

StartChar: uni0E54
Encoding: 3668 3668 203
Width: 1498
VWidth: 2045
Flags: W
HStem: 0 178<426.97 645 805.855 1294> 221 132<805 880.651> 532 134<727.906 882.685> 717 177<392.888 1248.65> 1054 20G<1311 1491>
VStem: 110 180<316.728 609.308> 554 161<365.852 518.406> 895 136<367.322 517.622> 1311 180<960.338 1074>
LayerCount: 2
Fore
SplineSet
1491 1074 m 1
 1491 879 1336 717 1131 717 c 2
 563 717 l 2
 439 717 295 669 290 452 c 0
 288 316 427 178 561 178 c 2
 645 178 l 17
 611 202 554 284 554 411 c 0
 554 569 662 666 805 666 c 0
 928 666 1031 568 1031 443 c 0
 1031 326 938 221 805 221 c 1
 823 192 856 178 903 178 c 2
 1294 178 l 1
 1294 0 l 1
 561 0 l 2
 305 0 110 201 110 447 c 0
 110 690 302 894 564 894 c 2
 1131 896 l 2
 1238 896 1311 980 1311 1074 c 1
 1491 1074 l 1
805 532 m 0
 756 532 715 493 715 443 c 0
 715 394 756 353 805 353 c 0
 851 353 895 392 895 443 c 0
 895 496 851 532 805 532 c 0
EndSplineSet
EndChar

StartChar: uni0E55
Encoding: 3669 3669 204
Width: 1489
VWidth: 2045
Flags: W
HStem: 0 178<426.97 645 805.855 1294> 221 132<805 880.651> 532 134<727.906 882.685> 717 178<599.729 754.271 884 1248.85> 1054 20G<1311 1491> 1074 134<599.257 752.084>
VStem: 110 180<316.728 613.331> 451 136<907.883 1058.96> 554 161<365.852 518.406> 767 136<908.198 1060.95> 895 136<367.322 517.622> 1311 180<960.338 1074>
LayerCount: 2
Fore
SplineSet
677 1208 m 0xff50
 804 1208 903 1107 903 985 c 0xff50
 903 954 897 924 884 895 c 9
 1131 895 l 2
 1239 895 1311 980 1311 1074 c 1
 1491 1074 l 1
 1491 879 1336 717 1131 717 c 2
 563 717 l 2
 439 717 295 669 290 452 c 0
 288 316 427 178 561 178 c 2
 645 178 l 1
 611 202 554 284 554 411 c 0
 554 569 662 666 805 666 c 0
 928 666 1031 568 1031 443 c 0xfeb0
 1031 326 938 221 805 221 c 1
 823 192 856 178 903 178 c 2
 1294 178 l 1
 1294 0 l 1
 561 0 l 2
 305 0 110 201 110 447 c 0
 110 711 318 858 474 887 c 1
 459 916 451 949 451 985 c 0
 451 1109 552 1208 677 1208 c 0xff50
677 1074 m 0
 629 1074 587 1034 587 985 c 0
 587 939 626 895 677 895 c 0
 728 895 767 939 767 985 c 0
 767 1037 721 1074 677 1074 c 0
805 532 m 0
 756 532 715 493 715 443 c 0
 715 394 756 353 805 353 c 0
 851 353 895 392 895 443 c 0xfeb0
 895 496 851 532 805 532 c 0
EndSplineSet
EndChar

StartChar: uni0E56
Encoding: 3670 3670 205
Width: 1448
VWidth: 2045
Flags: W
HStem: 0 187<373.136 866.205> 366 134<359.091 513.717> 719 175<435.689 957.164> 1279 179<76 164.659>
VStem: 189 180<822 1258.03> 213 134<201.142 352.91> 527 136<199.056 353.48> 1089 180<366.327 611.501>
LayerCount: 2
Fore
SplineSet
76 1458 m 1xfb
 310 1458 369 1274 369 1168 c 2
 369 822 l 1xfb
 460 870 585 894 744 894 c 0
 993 894 1269 740 1269 474 c 0
 1269 306 1082 0 616 0 c 0
 396 0 213 81 213 278 c 0xf7
 213 397 311 500 438 500 c 0
 566 500 663 396 663 278 c 0
 663 241 655 208 640 180 c 1
 836 180 1086 294 1089 504 c 0
 1089 563 1041 719 710 719 c 0
 367 719 192 577 189 571 c 1
 189 1168 l 2
 189 1228 145 1279 76 1279 c 1
 76 1458 l 1xfb
438 366 m 0
 391 366 347 330 347 277 c 0xf7
 347 225 391 187 438 187 c 0
 484 187 527 223 527 277 c 0
 527 332 485 366 438 366 c 0
EndSplineSet
EndChar

StartChar: uni0E57
Encoding: 3671 3671 206
Width: 1716
VWidth: 2045
Flags: W
HStem: 0 178<1276 1366.43> 0 133<367.2 518.072> 311 134<362.541 518.355> 719 175<400.303 644.624 870.033 1069.33> 1237 20G<1441.5 1488.94>
VStem: 134 171<408.207 616.271> 531 136<144.947 297.477> 669 180<438 693.363> 1096 180<178 689.856> 1389 180<205.298 1129.01>
LayerCount: 2
Fore
SplineSet
1569 293 m 2xbfc0
 1569 110 1430 -0 1276 0 c 2xbfc0
 1096 0 l 1
 1096 594 l 2
 1096 665 1049 720 970 717 c 0
 868 717 850 644 849 619 c 2
 849 438 l 1
 669 438 l 1
 669 616 l 2
 669 661 626 719 540 719 c 0
 390 719 309 609 305 452 c 0
 305 437 308 422 314 405 c 1
 358 432 400 445 440 445 c 0
 576 445 667 336 667 224 c 0
 667 95 562 0 442 0 c 0x7fc0
 210 0 134 232 134 440 c 0
 134 803 398 894 540 894 c 0
 620 894 691 864 753 804 c 1
 814 864 885 894 967 894 c 0
 1146 894 1276 751 1276 586 c 2
 1276 178 l 1
 1338 178 1389 226 1389 288 c 2
 1389 1051 l 2
 1389 1132 1415 1200 1468 1257 c 1
 1601 1130 l 1
 1580 1109 1569 1082 1569 1051 c 2
 1569 293 l 2xbfc0
441 311 m 0
 389 311 351 270 351 223 c 0
 351 176 387 133 441 133 c 0x7fc0
 488 133 531 169 531 223 c 0
 531 270 494 311 441 311 c 0
EndSplineSet
EndChar

StartChar: uni0E58
Encoding: 3672 3672 207
Width: 1548
VWidth: 2045
Flags: W
HStem: 0 150<983.76 1135.07> 258 194<465.187 600.393> 328 134<979.462 1133.32> 717 178<353.953 1248.85> 1054 20G<1311 1491>
VStem: 88 180<313.323 622.268> 839 128<223.285 316.01> 1146 134<161.22 314.706> 1311 180<960.338 1074>
LayerCount: 2
Fore
SplineSet
451 0 m 1xdf80
 239 0 84 231 88 486 c 0
 89 701 242 895 494 895 c 2
 1131 895 l 2
 1239 895 1311 980 1311 1074 c 1
 1491 1074 l 1
 1491 879 1336 717 1131 717 c 2
 494 717 l 2
 348 717 268 606 268 492 c 0
 268 408 282 348 311 311 c 1
 327 405 394 452 512 452 c 0xdf80
 637 452 801 222 839 222 c 1
 820 356 925 462 1057 462 c 0xbf80
 1176 462 1280 369 1280 239 c 0
 1280 132 1217 -0 1015 0 c 0
 739 0 601 258 532 258 c 0
 465 258 446 186 446 93 c 0
 446 64 448 32 451 0 c 1xdf80
1057 328 m 0xbf80
 1009 328 967 292 967 239 c 0
 967 190 1003 150 1057 150 c 0
 1110 150 1146 190 1146 239 c 0
 1146 293 1103 328 1057 328 c 0xbf80
EndSplineSet
EndChar

StartChar: uni0E59
Encoding: 3673 3673 208
Width: 1611
VWidth: 2045
Flags: W
HStem: -0 151<449.536 603.003> 329 133<449.488 602.133> 716 178<426.266 778.297 1042.68 1236.17>
VStem: 116 180<317.409 588.959> 616 134<164.824 317.104> 930 180<0 567.768> 1290 180<853 1245.01>
LayerCount: 2
Fore
SplineSet
605 894 m 0
 704 894 800 888 915 794 c 1
 986 861 1055 894 1122 894 c 0
 1201 894 1257 880 1290 853 c 1
 1290 1168 l 2
 1290 1250 1316 1318 1369 1373 c 1
 1503 1246 l 1
 1481 1225 1470 1199 1470 1168 c 2
 1470 705 l 1
 1290 606 l 1
 1287 615 1227 716 1125 716 c 0
 1098 716 1068 699 1037 666 c 1
 1061 642 1110 562 1110 402 c 2
 1110 0 l 1
 930 0 l 1
 930 408 l 2
 930 564 816 716 598 716 c 0
 434 716 299 612 296 449 c 0
 296 393 302 348 313 314 c 1
 333 369 398 462 526 462 c 0
 655 462 750 362 750 240 c 0
 750 102 632 -0 457 -0 c 0
 321 -0 116 114 116 447 c 0
 116 641 248 894 605 894 c 0
526 329 m 0
 468 329 436 284 436 240 c 0
 436 192 474 151 526 151 c 0
 578 151 616 192 616 240 c 0
 616 283 586 329 526 329 c 0
EndSplineSet
EndChar

StartChar: uni0E5A
Encoding: 3674 3674 209
Width: 1519
VWidth: 2045
Flags: W
HStem: 0 21G<848 1028 1145 1325> 680 173<429.415 628.511> 1118 134<213.298 366.49>
VStem: 61 139<954.062 1105.53> 380 136<954.062 1103.28> 848 180<0 835 1076.8 1254> 1145 180<0 1254>
LayerCount: 2
Fore
SplineSet
290 1118 m 0
 243 1118 200 1082 200 1029 c 0
 200 983 238 939 290 939 c 0
 341 939 380 983 380 1029 c 0
 380 1082 336 1118 290 1118 c 0
290 1252 m 0
 420 1252 517 1145 516 1030 c 0
 513 939 484 880 428 853 c 1
 708 853 848 1064 848 1254 c 1
 1028 1254 l 1
 1028 0 l 1
 848 0 l 1
 848 835 l 17
 683 680 546 679 442 680 c 0
 171 683 61 872 61 1021 c 0
 61 1147 160 1252 290 1252 c 0
1145 1254 m 1
 1325 1254 l 1
 1325 0 l 1
 1145 0 l 1
 1145 1254 l 1
EndSplineSet
EndChar

StartChar: uni0E5B
Encoding: 3675 3675 210
Width: 2515
VWidth: 2045
Flags: W
HStem: 0 178<421.171 800.039> 338 134<596.912 748.904> 417 172<2219.89 2395> 651 134<595.395 749.312> 879 178<392.702 710.847>
VStem: 82 177<342.616 731.246> 447 136<484.865 638.292> 762 192<485.948 758.273>
DStem2: 992 424 1209 468 0.464113 0.885776<-196.577 139.687>
LayerCount: 2
Fore
SplineSet
762 562 m 0xdf
 762 608 725 651 672 651 c 0
 630 651 583 620 583 562 c 0
 583 507 628 472 672 472 c 0
 717 472 762 509 762 562 c 0xdf
259 530 m 0
 259 361 350 178 599 178 c 0
 703 178 783 202 842 252 c 0
 916 317 966 375 992 424 c 2
 1156 737 l 1
 1262 737 l 1
 1387 508 l 1
 1512 737 l 1
 1619 737 l 1
 1744 508 l 1
 1868 737 l 1
 1974 737 l 1
 2099 508 l 1
 2125 563 2184 590 2275 589 c 2
 2395 589 l 1
 2395 417 l 1
 2282 417 l 2xbf
 2240 417 2197 358 2153 239 c 1
 2046 239 l 1
 1921 468 l 1
 1796 239 l 1
 1689 239 l 1
 1564 468 l 1
 1441 239 l 1
 1334 239 l 1
 1209 468 l 1
 1134 326 l 2
 1094 247 1023 170 921 94 c 0
 836 31 734 -0 617 0 c 0
 269 0 82 276 82 532 c 0
 82 867 362 1057 537 1057 c 0
 770 1057 954 901 954 689 c 0
 954 584 934 506 893 455 c 0
 832 378 758 339 671 338 c 0
 547 338 447 438 447 562 c 0
 447 682 541 785 671 785 c 0
 719 785 760 769 793 736 c 1
 770 816 673 879 541 879 c 0
 382 879 259 754 259 530 c 0
EndSplineSet
EndChar

StartChar: zerowidthjoiner
Encoding: 8205 8205 212
Width: 0
Flags: W
LayerCount: 2
Back
SplineSet
36 -275 m 1
 -36 -275 l 1
 -36 1114 l 1
 -170 978 l 1
 -219 1027 l 1
 -48 1196 l 1
 -219 1364 l 1
 -170 1413 l 1
 0 1242 l 1
 170 1413 l 1
 219 1364 l 1
 48 1196 l 1
 219 1027 l 1
 170 978 l 1
 36 1114 l 1
 36 -275 l 1
EndSplineSet
EndChar

StartChar: afii299
Encoding: 8206 8206 213
Width: 0
Flags: W
LayerCount: 2
Back
SplineSet
430 1198 m 1
 213 984 l 1
 164 1033 l 1
 301 1163 l 1
 35 1163 l 1
 35 -275 l 1
 -36 -275 l 1
 -36 1234 l 1
 301 1234 l 1
 164 1364 l 1
 213 1413 l 1
 430 1198 l 1
EndSplineSet
EndChar

StartChar: afii300
Encoding: 8207 8207 214
Width: 0
Flags: W
LayerCount: 2
Back
SplineSet
35 -275 m 1
 -36 -275 l 1
 -36 1163 l 1
 -302 1163 l 1
 -165 1033 l 1
 -214 984 l 1
 -431 1198 l 1
 -214 1413 l 1
 -165 1364 l 1
 -302 1234 l 1
 35 1234 l 1
 35 -275 l 1
EndSplineSet
EndChar

StartChar: uni2010
Encoding: 8208 8208 215
Width: 973
Flags: W
HStem: 580 165<190 815>
LayerCount: 2
Fore
SplineSet
190 745 m 1
 815 745 l 1
 815 580 l 1
 190 580 l 1
 190 745 l 1
EndSplineSet
EndChar

StartChar: endash
Encoding: 8211 8211 216
Width: 1125
Flags: W
HStem: 572 160<-4 1122>
LayerCount: 2
Fore
SplineSet
1122 572 m 1
 -4 572 l 1
 -4 732 l 1
 1122 732 l 1
 1122 572 l 1
EndSplineSet
EndChar

StartChar: emdash
Encoding: 8212 8212 217
Width: 1886
Flags: W
HStem: 572 160<-4 1866>
LayerCount: 2
Fore
SplineSet
1866 572 m 1
 -4 572 l 1
 -4 732 l 1
 1866 732 l 1
 1866 572 l 1
EndSplineSet
EndChar

StartChar: horizontalbar
Encoding: 8213 8213 218
Width: 1862
Flags: W
HStem: 572 160<110 1752>
LayerCount: 2
Fore
SplineSet
1752 572 m 1
 110 572 l 1
 110 732 l 1
 1752 732 l 1
 1752 572 l 1
EndSplineSet
EndChar

StartChar: underscoredbl
Encoding: 8215 8215 219
Width: 1118
Flags: W
HStem: -423 130<-16 1134> -212 130<-16 1134>
LayerCount: 2
Fore
SplineSet
1134 -212 m 1
 -16 -212 l 1
 -16 -82 l 1
 1134 -82 l 1
 1134 -212 l 1
1134 -423 m 1
 -16 -423 l 1
 -16 -293 l 1
 1134 -293 l 1
 1134 -423 l 1
EndSplineSet
EndChar

StartChar: quoteleft
Encoding: 8216 8216 220
Width: 450
Flags: W
LayerCount: 2
Fore
SplineSet
335 997 m 1
 197 997 l 1
 -64 1556 l 1
 178 1556 l 1
 335 997 l 1
EndSplineSet
EndChar

StartChar: quoteright
Encoding: 8217 8217 221
Width: 580
Flags: W
LayerCount: 2
Fore
SplineSet
496 1556 m 1
 235 997 l 1
 97 997 l 1
 254 1556 l 1
 496 1556 l 1
EndSplineSet
EndChar

StartChar: quotesinglbase
Encoding: 8218 8218 222
Width: 432
Flags: W
LayerCount: 2
Fore
SplineSet
386 283 m 1
 125 -276 l 1
 -13 -276 l 1
 144 283 l 1
 386 283 l 1
EndSplineSet
EndChar

StartChar: quotereversed
Encoding: 8219 8219 223
Width: 432
Flags: W
LayerCount: 2
Fore
SplineSet
335 1556 m 1
 178 997 l 1
 -64 997 l 1
 197 1556 l 1
 335 1556 l 1
EndSplineSet
EndChar

StartChar: quotedblleft
Encoding: 8220 8220 224
Width: 850
Flags: W
LayerCount: 2
Fore
SplineSet
725 997 m 1
 591 997 l 1
 330 1556 l 1
 568 1556 l 1
 725 997 l 1
331 997 m 1
 197 997 l 1
 -64 1556 l 1
 174 1556 l 1
 331 997 l 1
EndSplineSet
EndChar

StartChar: quotedblright
Encoding: 8221 8221 225
Width: 1000
Flags: W
LayerCount: 2
Fore
SplineSet
896 1556 m 1
 635 997 l 1
 501 997 l 1
 658 1556 l 1
 896 1556 l 1
502 1556 m 1
 241 997 l 1
 107 997 l 1
 264 1556 l 1
 502 1556 l 1
EndSplineSet
EndChar

StartChar: quotedblbase
Encoding: 8222 8222 226
Width: 814
Flags: W
LayerCount: 2
Fore
SplineSet
781 283 m 1
 520 -276 l 1
 386 -276 l 1
 543 283 l 1
 781 283 l 1
387 283 m 1
 126 -276 l 1
 -8 -276 l 1
 149 283 l 1
 387 283 l 1
EndSplineSet
EndChar

StartChar: dagger
Encoding: 8224 8224 227
Width: 1118
Flags: W
HStem: 1034 129<135 498 620 983>
VStem: 493 132<135 1039 1158 1556>
LayerCount: 2
Fore
SplineSet
983 1034 m 1
 620 1039 l 1
 625 135 l 1
 493 135 l 1
 498 1039 l 1
 135 1034 l 1
 135 1163 l 1
 498 1158 l 1
 493 1556 l 1
 625 1556 l 1
 620 1158 l 1
 983 1163 l 1
 983 1034 l 1
EndSplineSet
EndChar

StartChar: daggerdbl
Encoding: 8225 8225 228
Width: 1118
Flags: W
HStem: 507 129<135 498 620 983> 1049 119<135 498 620 983>
VStem: 498 122<124 512 631 1049 1168 1556>
LayerCount: 2
Fore
SplineSet
983 507 m 1
 620 512 l 1
 625 124 l 1
 493 124 l 1
 498 512 l 1
 135 507 l 1
 135 636 l 1
 498 631 l 1
 498 1049 l 1
 135 1044 l 1
 135 1173 l 1
 498 1168 l 1
 493 1556 l 1
 625 1556 l 1
 620 1168 l 1
 983 1173 l 1
 983 1044 l 1
 620 1049 l 1
 620 631 l 1
 983 636 l 1
 983 507 l 1
EndSplineSet
EndChar

StartChar: bullet
Encoding: 8226 8226 229
Width: 950
Flags: W
HStem: 311 702<299.399 634.377>
VStem: 114 703<496.399 829.373>
LayerCount: 2
Fore
SplineSet
465 1013 m 0
 663 1013 817 856 817 662 c 0
 817 473 667 311 465 311 c 0
 265 311 114 472 114 662 c 0
 114 862 275 1013 465 1013 c 0
EndSplineSet
EndChar

StartChar: ellipsis
Encoding: 8230 8230 230
Width: 1650
Flags: W
HStem: 0 223<177 381 735 939 1293 1497>
VStem: 177 204<0 223> 735 204<0 223> 1293 204<0 223>
CounterMasks: 1 70
LayerCount: 2
Fore
SplineSet
1497 0 m 1
 1293 0 l 1
 1293 223 l 1
 1497 223 l 1
 1497 0 l 1
939 0 m 1
 735 0 l 1
 735 223 l 1
 939 223 l 1
 939 0 l 1
381 0 m 1
 177 0 l 1
 177 223 l 1
 381 223 l 1
 381 0 l 1
EndSplineSet
EndChar

StartChar: perthousand
Encoding: 8240 8240 231
Width: 2848
Flags: W
HStem: -29 133<1430.39 1657.4 2274.39 2501.4> 0 21G<528 703.477> 634 133<340.39 567.399> 721 133<1431.96 1657.4 2275.96 2501.4> 1384 133<341.958 567.399>
VStem: 102 178<832.041 1316.94> 528 165<0 165> 629 178<833.225 1318.83> 1192 178<168.598 653.935> 1308 165<1324 1489> 1719 178<170.446 655.83> 2036 178<168.598 653.935> 2563 178<170.446 655.83>
DStem2: 528 0 693 0 0.464029 0.88582<76.5648 1680.93>
LayerCount: 2
Fore
SplineSet
455 1517 m 0x2d38
 666 1517 807 1396 807 1076 c 0
 807 756 666 634 455 634 c 0
 243 634 102 758 102 1075 c 0
 102 1393 243 1517 455 1517 c 0x2d38
1473 1489 m 1x4e78
 693 0 l 1
 528 0 l 1
 1308 1489 l 1
 1473 1489 l 1x4e78
1545 854 m 0x9cb8
 1756 854 1897 733 1897 413 c 0
 1897 94 1756 -29 1545 -29 c 0
 1333 -29 1192 93 1192 412 c 0
 1192 730 1333 854 1545 854 c 0x9cb8
455 767 m 0x2d38
 559 767 629 821 629 1076 c 0
 629 1333 559 1384 455 1384 c 0
 350 1384 280 1328 280 1075 c 0
 280 814 350 767 455 767 c 0x2d38
1545 104 m 0x9cb8
 1649 104 1719 158 1719 413 c 0
 1719 670 1649 721 1545 721 c 0
 1440 721 1370 665 1370 412 c 0
 1370 151 1440 104 1545 104 c 0x9cb8
2389 854 m 0
 2600 854 2741 733 2741 413 c 0
 2741 94 2600 -29 2389 -29 c 0
 2177 -29 2036 93 2036 412 c 0
 2036 730 2177 854 2389 854 c 0
2389 104 m 0
 2493 104 2563 158 2563 413 c 0
 2563 670 2493 721 2389 721 c 0
 2284 721 2214 665 2214 412 c 0
 2214 151 2284 104 2389 104 c 0
EndSplineSet
EndChar

StartChar: minute
Encoding: 8242 8242 232
Width: 602
Flags: W
LayerCount: 2
Fore
SplineSet
571 1489 m 1
 273 870 l 1
 137 870 l 1
 331 1489 l 1
 571 1489 l 1
EndSplineSet
EndChar

StartChar: second
Encoding: 8243 8243 233
Width: 972
Flags: W
LayerCount: 2
Fore
SplineSet
567 1489 m 1
 269 870 l 1
 137 870 l 1
 331 1489 l 1
 567 1489 l 1
961 1489 m 1
 663 870 l 1
 531 870 l 1
 725 1489 l 1
 961 1489 l 1
EndSplineSet
EndChar

StartChar: guilsinglleft
Encoding: 8249 8249 234
Width: 784
Flags: W
HStem: 172 199<434 633> 933 199<434 633>
VStem: 123 179<518.5 786.5>
DStem2: 123 697 302 652 0.760834 0.648947<106.987 541.177> 302 652 123 608 0.760098 -0.649809<0 434.189>
LayerCount: 2
Fore
SplineSet
633 172 m 1
 123 608 l 1
 123 697 l 1
 633 1132 l 1
 633 933 l 1
 302 652 l 1
 633 371 l 1
 633 172 l 1
EndSplineSet
EndChar

StartChar: guilsinglright
Encoding: 8250 8250 235
Width: 784
Flags: W
HStem: 172 199<151 350> 933 199<151 350>
VStem: 482 179<518.5 786.5>
DStem2: 151 1132 151 933 0.760834 -0.648947<129.14 563.33> 151 371 151 172 0.760098 0.649809<0 434.189>
LayerCount: 2
Fore
SplineSet
661 608 m 1
 151 172 l 1
 151 371 l 1
 482 652 l 1
 151 933 l 1
 151 1132 l 1
 661 697 l 1
 661 608 l 1
EndSplineSet
EndChar

StartChar: uni203E
Encoding: 8254 8254 237
Width: 1118
Flags: W
HStem: 1658 131<-48 1118>
LayerCount: 2
Fore
SplineSet
1118 1658 m 1
 -48 1658 l 1
 -48 1789 l 1
 1118 1789 l 1
 1118 1658 l 1
EndSplineSet
EndChar

StartChar: fraction
Encoding: 8260 8260 238
Width: 886
Flags: W
HStem: 0 21G<-29 146.477>
VStem: -29 165<0 165> 751 165<1324 1489>
DStem2: -29 0 136 0 0.464029 0.88582<76.5648 1680.93>
LayerCount: 2
Fore
SplineSet
916 1489 m 1
 136 0 l 1
 -29 0 l 1
 751 1489 l 1
 916 1489 l 1
EndSplineSet
EndChar

StartChar: uni207F
Encoding: 8319 8319 239
Width: 1010
Flags: W
HStem: 1368 151<421.006 671.724>
VStem: 125 171<566 1288.47 1388 1488> 718 172<566 1321.89>
LayerCount: 2
Fore
SplineSet
586 1519 m 0
 689 1519 890 1482 890 1163 c 2
 890 566 l 1
 718 566 l 1
 718 1088 l 2
 718 1275 706 1368 541 1368 c 0
 492 1368 423 1357 296 1254 c 1
 296 566 l 1
 125 566 l 1
 125 1488 l 1
 296 1488 l 1
 296 1388 l 1
 442 1513 528 1519 586 1519 c 0
EndSplineSet
EndChar

StartChar: dottedcircle
Encoding: 9676 9676 240
Width: 1255
Flags: W
HStem: 7 121<553.139 669.635> 68 121<847.139 963.782> 98 121<288.139 404.913> 234 121<1013.14 1129.78> 249 121<145.139 261.635> 445 121<24.2128 141.099 1090.45 1202.81> 679 121<39.1394 155.635 1074.21 1191.1> 868 121<145.139 261.782> 891 121<967.139 1083.64> 1011 121<334.213 451.099> 1034 121<779.139 895.782> 1079 121<560.213 677.099>
VStem: 22 121<447.213 563.782> 37 121<681.213 797.635> 143 121<251.213 367.635 870.213 987.099> 286 121<100.213 216.709> 332 121<1013.21 1129.78> 551 121<9.21281 125.635 1083.05 1195.67> 777 121<1036.21 1153.1> 845 121<70.2128 187.099> 965 121<893.213 1009.64> 1011 121<236.213 353.099> 1086 121<440.213 556.709 686.328 792.637>
LayerCount: 2
Fore
SplineSet
203 868 m 0x070240
 168 868 143 894 143 928 c 0
 143 962 167 989 203 989 c 0
 240 989 264 962 264 928 c 0
 264 894 238 868 203 868 c 0x070240
392 1011 m 0x0640c0
 357 1011 332 1037 332 1071 c 0
 332 1106 358 1132 392 1132 c 0
 426 1132 453 1108 453 1071 c 0
 453 1035 426 1011 392 1011 c 0x0640c0
618 1079 m 0x061040
 583 1079 558 1105 558 1139 c 0
 558 1174 584 1200 618 1200 c 0
 652 1200 679 1176 679 1139 c 0
 679 1103 652 1079 618 1079 c 0x061040
82 445 m 0
 47 445 22 471 22 505 c 0
 22 540 48 566 82 566 c 0
 116 566 143 542 143 505 c 0x060840
 143 469 116 445 82 445 c 0
203 249 m 0x0e0240
 168 249 143 275 143 309 c 0
 143 342 167 370 203 370 c 0
 238 370 264 343 264 309 c 0
 264 273 236 249 203 249 c 0x0e0240
346 98 m 0x260140
 311 98 286 124 286 158 c 0
 286 192 310 219 346 219 c 0
 377 219 407 197 407 158 c 0
 407 122 380 98 346 98 c 0x260140
611 7 m 0x860040
 576 7 551 33 551 67 c 0
 551 100 575 128 611 128 c 0
 646 128 672 101 672 67 c 0
 672 31 644 7 611 7 c 0x860040
905 68 m 0x460050
 870 68 845 94 845 128 c 0x860050
 845 162 869 189 905 189 c 0x460050
 942 189 966 162 966 128 c 0x860050
 966 94 940 68 905 68 c 0x460050
1071 234 m 0x160044
 1036 234 1011 260 1011 294 c 0
 1011 328 1035 355 1071 355 c 0
 1108 355 1132 328 1132 294 c 0
 1132 260 1106 234 1071 234 c 0x160044
1146 438 m 0
 1111 438 1086 464 1086 498 c 0
 1086 532 1110 559 1146 559 c 0
 1177 559 1207 537 1207 498 c 0x060042
 1207 462 1180 438 1146 438 c 0
1132 679 m 0x060044
 1097 679 1072 705 1072 739 c 0
 1072 774 1098 800 1132 800 c 0
 1166 800 1193 776 1193 739 c 0
 1193 703 1166 679 1132 679 c 0x060044
1025 891 m 0x068048
 990 891 965 917 965 951 c 0
 965 984 989 1012 1025 1012 c 0
 1060 1012 1086 985 1086 951 c 0
 1086 915 1058 891 1025 891 c 0x068048
837 1034 m 0x062060
 802 1034 777 1060 777 1094 c 0
 777 1128 801 1155 837 1155 c 0
 874 1155 898 1128 898 1094 c 0
 898 1060 872 1034 837 1034 c 0x062060
97 679 m 0
 62 679 37 705 37 739 c 0
 37 772 61 800 97 800 c 0
 132 800 158 773 158 739 c 0x060440
 158 703 130 679 97 679 c 0
EndSplineSet
EndChar

StartChar: uni0E10.descless
Encoding: 63232 63232 241
Width: 1245
VWidth: 2045
Flags: W
HStem: 0 21G<678.985 907.012> 244 134<456.953 612.939> 557 133<459.827 611.747> 744 178<363 847.513> 1101 178<502.326 846.672>
VStem: 311 134<390.966 544.305> 858 180<583.656 733.901>
DStem2: 794 285 903 0 0.196694 0.980465<0 386.942>
LayerCount: 2
Back
SplineSet
683 0 m 25
 630 264 l 1
 600 250.667 568.333 244 535 244 c 0
 473 244 420.333 266 377 310 c 0
 333 354 311 406.667 311 468 c 0
 311 528.667 333 581 377 625 c 0
 420.333 668.333 473 690 535 690 c 0
 596.333 690 649.333 668.333 694 625 c 0
 728.402 591.921 748.735 556.588 755 519 c 2
 794 285 l 1
 857 655 l 2
 861.179 679.545 853.846 700.879 835 719 c 0
 817.667 735.667 795 744 767 744 c 2
 136 744 l 1
 136 841 160 930 208 1011 c 0
 255.054 1091.39 320.721 1156.39 405 1206 c 0
 487.667 1254.67 577.667 1279 675 1279 c 0
 770.69 1279 860.69 1254.67 945 1206 c 128
 1029.2 1157.4 1094.87 1093.07 1142 1013 c 1
 986 924 l 1
 971.333 949.333 952.667 973 930 995 c 0
 858 1065.67 773 1101 675 1101 c 0
 577.667 1101 493 1065.67 421 995 c 0
 399 973.667 379.667 949.333 363 922 c 1
 762 922 l 2
 833.667 922 901 895 964 841 c 0
 1025.27 788.479 1048.61 725.813 1034 653 c 2
 903 0 l 1
 683 0 l 25
445 467 m 128
 445 442 454 421 472 404 c 0
 490.667 386.667 512 378 536 378 c 0
 560.667 378 581.667 386.667 599 404 c 128
 616.333 421.333 625 442.333 625 467 c 128
 625 491.667 616.333 512.667 599 530 c 0
 582 548 561 557 536 557 c 0
 511.333 557 490 548 472 530 c 0
 454 513 445 492 445 467 c 128
EndSplineSet
Fore
SplineSet
762 922 m 2
 891 922 1038 819 1038 694 c 0
 1038 681 1037 667 1034 653 c 2
 903 0 l 1
 683 0 l 25
 630 264 l 1
 600 251 568 244 535 244 c 0
 409 244 311 344 311 468 c 0
 311 589 408 690 535 690 c 0
 685 690 747 565 755 519 c 2
 794 285 l 1
 857 655 l 2
 858 659 858 663 858 667 c 0
 858 710 820 744 767 744 c 2
 136 744 l 1
 136 1043 380 1279 675 1279 c 0
 892 1279 1054 1162 1142 1013 c 1
 986 924 l 1
 960 969 862 1101 675 1101 c 0
 488 1101 391 968 363 922 c 1
 762 922 l 2
536 557 m 0
 484 557 445 516 445 467 c 0
 445 414 490 378 536 378 c 0
 584 378 625 416 625 467 c 0
 625 518 585 557 536 557 c 0
EndSplineSet
EndChar

StartChar: uni0E34.left
Encoding: 63233 63233 242
Width: 0
VWidth: 2045
Flags: W
HStem: 1726 174<-1202.83 -870.154>
DStem2: -1269 1636 -1559 1507 0.995651 -0.0931658<0 516.33>
LayerCount: 2
Back
SplineSet
-1396 1593 m 13
 -883 1544 l 1
 -910.333 1582.67 -949.333 1615 -1000 1641 c 0
 -1050 1667 -1105.33 1681 -1166 1683 c 0
 -1194 1683 -1235 1674 -1289 1656 c 0
 -1343.67 1638.67 -1379.33 1617.67 -1396 1593 c 13
-1686 1464 m 21
 -1650 1594 -1581.33 1692 -1480 1758 c 0
 -1380 1825.33 -1275.33 1858.33 -1166 1857 c 0
 -1032 1855 -913 1810 -809 1722 c 0
 -705 1633.33 -644.667 1514.33 -628 1365 c 1
 -1686 1464 l 21
EndSplineSet
Fore
Refer: 175 3636 N 1 0 0 1 -330 0 2
EndChar

StartChar: uni0E35.left
Encoding: 63234 63234 243
Width: 0
VWidth: 2045
Flags: W
HStem: 1723 174<-1202.83 -870.819>
VStem: -658 157<1741 2040>
DStem2: -1269 1633 -1559 1504 0.995651 -0.0931658<0 516.33>
LayerCount: 2
Back
SplineSet
-785 1701 m 13
 -785 2000 l 1
 -628 2000 l 1
 -628 1365 l 1
 -1686 1464 l 1
 -1650 1594 -1581.33 1692 -1480 1758 c 0
 -1380 1825.33 -1275.33 1858.33 -1166 1857 c 0
 -1033.33 1855 -906.333 1803 -785 1701 c 13
-1396 1593 m 13
 -883 1544 l 1
 -910.333 1582.67 -949.333 1615 -1000 1641 c 0
 -1050 1667 -1105.33 1681 -1166 1683 c 0
 -1194 1683 -1235 1674 -1289 1656 c 0
 -1343.67 1638.67 -1379.33 1617.67 -1396 1593 c 13
EndSplineSet
Fore
Refer: 176 3637 N 1 0 0 1 -330 0 2
EndChar

StartChar: uni0E36.left
Encoding: 63235 63235 244
Width: 0
VWidth: 2045
Flags: W
HStem: 1721 174<-1202.83 -915.866> 1971 133<-768.944 -615.326>
VStem: -918 135<1881 1956.81> -603 136<1805.36 1958.78>
DStem2: -1269 1631 -1559 1502 0.995651 -0.0931658<0 516.33>
LayerCount: 2
Back
SplineSet
-761 1639 m 5
 -705 1563 -671 1471.67 -659 1365 c 1
 -1717 1464 l 1
 -1679.67 1594 -1611 1692 -1511 1758 c 0
 -1410.33 1824.67 -1305.67 1857.67 -1197 1857 c 0
 -1157 1856.33 -1116.67 1851.67 -1076 1843 c 1
 -1076 1905 -1054 1957.67 -1010 2001 c 0
 -966.667 2044.33 -913.667 2066 -851 2066 c 0
 -788.333 2066 -735 2044.33 -691 2001 c 0
 -647 1957.67 -625 1905.33 -625 1844 c 0
 -625 1782.67 -647.333 1730 -692 1686 c 0
 -710.667 1666 -733.667 1650.33 -761 1639 c 5
-941 1843 m 4
 -941 1818.33 -932 1797.67 -914 1781 c 0
 -895.333 1763.67 -874.333 1755 -851 1755 c 0
 -827 1755 -805.667 1763.67 -787 1781 c 0
 -769.667 1798.33 -761 1819 -761 1843 c 0
 -761 1867 -769.667 1888.33 -787 1907 c 0
 -804.333 1924.33 -825.667 1933 -851 1933 c 0
 -875.667 1933 -896.667 1924.33 -914 1907 c 0
 -932 1889 -941 1867.67 -941 1843 c 4
-1427 1593 m 13
 -913 1544 l 1
 -941.667 1582.67 -981 1615 -1031 1641 c 0
 -1079.67 1667 -1135 1681 -1197 1683 c 0
 -1224 1683 -1265 1674 -1320 1656 c 0
 -1374.67 1638.67 -1410.33 1617.67 -1427 1593 c 13
EndSplineSet
Fore
Refer: 177 3638 N 1 0 0 1 -330 0 2
EndChar

StartChar: uni0E37.left
Encoding: 63236 63236 245
Width: 0
VWidth: 2045
Flags: W
HStem: 1728 174<-1202.83 -895.811>
VStem: -894 157<1879 2045> -658 157<1746 2045>
DStem2: -1269 1638 -1559 1509 0.995651 -0.0931658<0 516.33>
LayerCount: 2
Back
SplineSet
-864 1761 m 21
 -840 1744.33 -813.667 1724.33 -785 1701 c 1
 -785 2000 l 1
 -628 2000 l 1
 -628 1365 l 1
 -1686 1464 l 1
 -1650 1594 -1581.33 1692 -1480 1758 c 0
 -1380 1825.33 -1275.33 1858.33 -1166 1857 c 0
 -1118.67 1856.33 -1070.33 1848.67 -1021 1834 c 1
 -1021 2000 l 1
 -864 2000 l 1
 -864 1761 l 21
-1396 1593 m 13
 -883 1544 l 1
 -910.333 1582.67 -949.333 1615 -1000 1641 c 0
 -1050 1667 -1105.33 1681 -1166 1683 c 0
 -1194 1683 -1235 1674 -1289 1656 c 0
 -1343.67 1638.67 -1379.33 1617.67 -1396 1593 c 13
EndSplineSet
Fore
Refer: 178 3639 N 1 0 0 1 -330 0 2
EndChar

StartChar: uni0E48.low_left
Encoding: 63237 63237 246
Width: 0
VWidth: 2045
Flags: W
VStem: -673 180<1415 1879>
LayerCount: 2
Back
SplineSet
-820 1298 m 21
 -820 1628 l 5
 -640 1628 l 5
 -640 1298 l 5
 -820 1298 l 21
EndSplineSet
Fore
Refer: 251 63242 N 1 0 0 1 -293 0 2
EndChar

StartChar: uni0E49.low_left
Encoding: 63238 63238 247
Width: 0
VWidth: 2045
Flags: W
HStem: 1810 112<-995.502 -872.984>
VStem: -1114 113<1680.63 1805.62> -867 113<1681.67 1804.8> -556 157<1716.58 1909>
LayerCount: 2
Back
SplineSet
-808 1897 m 0
 -702 1897 -628 1815 -628 1719 c 0
 -628 1661 -648 1613 -687 1575 c 2
 -754 1503 l 1
 -672 1518 -597 1556 -530 1619 c 0
 -463 1682 -430 1770 -430 1885 c 1
 -273 1885 l 1
 -267 1569 -532 1347 -810 1347 c 2
 -959 1347 l 1
 -959 1501 l 1
 -857 1557 l 1
 -982 1581 -988 1693 -988 1720 c 0
 -988 1817 -913 1897 -808 1897 c 0
-808 1785 m 0
 -851 1785 -875 1752 -875 1719 c 0
 -875 1679 -843 1652 -808 1652 c 0
 -770 1652 -741 1684 -741 1719 c 0
 -741 1748 -765 1785 -808 1785 c 0
EndSplineSet
Fore
Refer: 252 63243 N 1 0 0 1 -407 0 2
EndChar

StartChar: uni0E4A.low_left
Encoding: 63239 63239 248
Width: 0
VWidth: 2045
Flags: W
HStem: 1377 112<-1149.46 -1023.68> 1621 112<-1140.39 -1023.68> 1787 127<-1124.61 -943.116 -810.124 -630.555>
VStem: -1298 145<1495.26 1730> -1019 113<1494.29 1615.71> -598 128<1581.81 1755.89> -337 128<1700.29 1866>
LayerCount: 2
Back
SplineSet
-313 1551 m 1
 -244 1604 -172 1702 -172 1837 c 1
 -44 1837 l 17
 -44 1536 -306 1347 -515 1347 c 1
 -515 1474 l 1
 -514.963 1474 -433 1525.1 -433 1616 c 0
 -433 1718 -508 1758 -544 1758 c 0
 -598 1758 -637 1736 -657 1693 c 1
 -758 1693 l 1
 -799 1736 -835 1758 -864 1758 c 0
 -909 1757 -950 1731 -976 1696 c 1
 -957 1701 -938 1704 -921 1704 c 0
 -816 1704 -741 1623 -741 1525 c 0
 -741 1428 -816 1347 -921 1347 c 0
 -1018 1347 -1133 1419 -1133 1595 c 0
 -1133 1806 -958 1885 -864 1885 c 0
 -795 1885 -742 1864 -706 1821 c 1
 -671 1864 -618 1885 -549 1885 c 0
 -439 1885 -305 1782 -305 1616 c 0
 -305 1591 -308 1570 -313 1551 c 1
-921 1592 m 0
 -959 1592 -988 1560 -988 1525 c 0
 -988 1492 -960 1459 -921 1459 c 0
 -883 1459 -854 1490 -854 1525 c 0
 -854 1564 -887 1592 -921 1592 c 0
EndSplineSet
Fore
Refer: 253 63244 N 1 0 0 1 -351 0 2
EndChar

StartChar: uni0E4B.low_left
Encoding: 63240 63240 249
Width: 0
VWidth: 2045
Flags: W
HStem: 1538 178<-974 -824 -643 -493>
VStem: -824 181<1387 1538 1716 1867>
LayerCount: 2
Back
SplineSet
-340 1521 m 5
 -490 1521 l 5
 -490 1371 l 5
 -671 1371 l 5
 -671 1521 l 5
 -821 1521 l 5
 -821 1701 l 5
 -671 1701 l 5
 -671 1850 l 5
 -490 1850 l 5
 -490 1701 l 5
 -340 1701 l 5
 -340 1521 l 5
EndSplineSet
Fore
Refer: 254 63245 N 1 0 0 1 -376 0 2
EndChar

StartChar: uni0E4C.low_left
Encoding: 63241 63241 250
Width: 0
VWidth: 2045
Flags: W
HStem: 1376 134<-814.463 -660.652> 1668 154<-522 -136.875> 1689 133<-812.456 -659.511>
VStem: -961 134<1524.05 1674.9> -647 136<1523.15 1667.35>
LayerCount: 2
Back
SplineSet
-779 1680 m 0xb8
 -826 1680 -869 1644 -869 1591 c 0
 -869 1539 -826 1501 -779 1501 c 0
 -732 1501 -689 1539 -689 1591 c 0
 -689 1644 -732 1680 -779 1680 c 0xb8
-1003 1590 m 0
 -1003 1722 -899 1814 -778 1814 c 2xb8
 -308 1812 l 2
 -244 1812 -197 1831 -168 1870 c 1
 -58 1761 l 1
 -125 1692 -209 1658 -308 1658 c 2
 -564 1660 l 1xd8
 -557 1637 -553 1614 -553 1592 c 0
 -553 1470 -652 1368 -779 1368 c 0
 -898 1368 -1003 1460 -1003 1590 c 0
EndSplineSet
Fore
Refer: 255 63246 N 1 0 0 1 -126 0 2
EndChar

StartChar: uni0E48.low
Encoding: 63242 63242 251
Width: 0
VWidth: 2045
Flags: W
VStem: -380 180<1415 1879>
AnchorPoint: "AboveBase" -200 1338.86 mark 0
LayerCount: 2
Fore
SplineSet
-380 1415 m 17
 -380 1879 l 1
 -200 1879 l 1
 -200 1415 l 1
 -380 1415 l 17
EndSplineSet
EndChar

StartChar: uni0E49.low
Encoding: 63243 63243 252
Width: 0
VWidth: 2045
Flags: W
HStem: 1810 112<-588.502 -465.984>
VStem: -707 113<1680.63 1805.62> -460 113<1681.67 1804.8> -149 157<1716.58 1909>
AnchorPoint: "AboveBase" -86 1339 mark 0
LayerCount: 2
Fore
SplineSet
-527 1922 m 0
 -434 1922 -347 1850 -347 1743 c 0
 -347 1686 -367 1638 -406 1600 c 2
 -473 1527 l 1
 -391 1542 -316 1581 -249 1644 c 0
 -182 1707 -149 1795 -149 1909 c 1
 8 1909 l 1
 14 1593 -249 1372 -529 1372 c 2
 -678 1372 l 1
 -678 1526 l 1
 -576 1582 l 1
 -701 1606 -707 1716 -707 1745 c 0
 -707 1851 -621 1922 -527 1922 c 0
-527 1810 m 0
 -562 1810 -594 1783 -594 1743 c 0
 -594 1707 -568 1677 -527 1677 c 0
 -484 1677 -460 1714 -460 1743 c 0
 -460 1781 -492 1810 -527 1810 c 0
EndSplineSet
EndChar

StartChar: uni0E4A.low
Encoding: 63244 63244 253
Width: 0
VWidth: 2045
Flags: W
HStem: 1377 112<-798.458 -672.684> 1621 112<-789.386 -672.684> 1787 127<-773.607 -592.116 -459.124 -279.555>
VStem: -947 145<1495.26 1730> -668 113<1494.29 1615.71> -247 128<1581.81 1755.89> 14 128<1700.29 1866>
AnchorPoint: "AboveBase" -142 1339 mark 0
LayerCount: 2
Fore
SplineSet
-127 1581 m 1
 -51 1639 14 1738 14 1866 c 1
 142 1866 l 17
 142 1573 -112 1377 -329 1377 c 1
 -329 1504 l 1
 -329 1504 -247 1554 -247 1646 c 0
 -247 1748 -322 1787 -355 1787 c 0
 -383 1787 -443 1782 -471 1723 c 1
 -572 1723 l 1
 -613 1766 -648 1787 -678 1787 c 0
 -742 1785 -784 1735 -790 1726 c 1
 -773 1731 -755 1733 -735 1733 c 0
 -627 1733 -555 1649 -555 1555 c 0
 -555 1461 -627 1377 -735 1377 c 0
 -829 1377 -947 1444 -947 1624 c 0
 -947 1836 -774 1914 -678 1914 c 0
 -609 1914 -556 1893 -520 1851 c 1
 -485 1893 -432 1914 -363 1914 c 0
 -246 1914 -119 1805 -119 1646 c 0
 -119 1621 -122 1600 -127 1581 c 1
-735 1621 m 0
 -775 1621 -802 1590 -802 1555 c 0
 -802 1520 -775 1489 -735 1489 c 0
 -697 1489 -668 1519 -668 1555 c 0
 -668 1591 -697 1621 -735 1621 c 0
EndSplineSet
EndChar

StartChar: uni0E4B.low
Encoding: 63245 63245 254
Width: 0
VWidth: 2045
Flags: W
HStem: 1538 178<-598 -448 -267 -117>
VStem: -448 181<1387 1538 1716 1867>
AnchorPoint: "AboveBase" -117 1339 mark 0
LayerCount: 2
Fore
SplineSet
-117 1538 m 1
 -267 1538 l 1
 -267 1387 l 1
 -448 1387 l 1
 -448 1538 l 1
 -598 1538 l 1
 -598 1716 l 1
 -448 1716 l 1
 -448 1867 l 1
 -267 1867 l 1
 -267 1716 l 1
 -117 1716 l 1
 -117 1538 l 1
EndSplineSet
EndChar

StartChar: uni0E4C.low
Encoding: 63246 63246 255
Width: 0
VWidth: 2045
Flags: W
HStem: 1376 134<-688.463 -534.652> 1668 154<-396 -10.8749> 1689 133<-686.456 -533.511>
VStem: -835 134<1524.05 1674.9> -521 136<1523.15 1667.35>
AnchorPoint: "AboveBase" -367 1339 mark 0
LayerCount: 2
Fore
SplineSet
-611 1689 m 0xb8
 -658 1689 -701 1651 -701 1599 c 0
 -701 1546 -658 1510 -611 1510 c 0
 -564 1510 -521 1546 -521 1599 c 0
 -521 1651 -564 1689 -611 1689 c 0xb8
-835 1600 m 0
 -835 1728 -732 1822 -610 1822 c 2xb8
 -140 1822 l 2
 -76 1821 -29 1840 0 1879 c 1
 110 1770 l 1
 43 1702 -41 1668 -140 1668 c 2
 -396 1668 l 1xd8
 -389 1644 -385 1621 -385 1598 c 0
 -385 1482 -482 1376 -611 1376 c 0
 -733 1376 -835 1471 -835 1600 c 0
EndSplineSet
EndChar

StartChar: uni0E0D.descless
Encoding: 63247 63247 256
Width: 1924
VWidth: 2045
Flags: W
HStem: -8 134<375.699 526.409> 0 178<1164 1547> 305 133<405.573 528.326> 744 178<405 497> 1101 178<450.812 797.913> 1234 20G<1547 1727>
VStem: 225 180<433 744> 225 136<138.713 292.706> 541 136<139.145 290.122> 984 180<178 913.651> 1547 180<178 1254>
LayerCount: 2
Fore
SplineSet
625 1279 m 0xbae0
 922 1279 1164 1037 1164 744 c 2
 1164 178 l 1
 1547 178 l 1
 1547 1254 l 1
 1727 1254 l 1x76e0
 1727 0 l 1
 984 0 l 25
 984 744 l 2
 984 940 828 1101 625 1101 c 0
 438 1101 340 969 314 922 c 1
 497 922 l 1
 497 744 l 1
 405 744 l 1
 405 433 l 1x7ae0
 416 436 432 438 451 438 c 0
 575 438 677 340 677 216 c 0
 677 95 578 -8 451 -8 c 0
 324 -8 225 94 225 214 c 2xb9e0
 225 744 l 1
 85 744 l 1
 85 1036 323 1279 625 1279 c 0xbae0
451 305 m 0
 400 305 361 263 361 215 c 0
 361 167 400 126 451 126 c 0xb1e0
 498 126 541 163 541 215 c 0
 541 267 497 305 451 305 c 0
85 744 m 1
 225 744 l 1x32e0
EndSplineSet
EndChar

StartChar: uni0E31.left
Encoding: 63248 63248 257
Width: 0
VWidth: 2045
Flags: W
HStem: 1378 163<-637 -436.261> 1749 133<-882.398 -729.31>
VStem: -1028 133<1584.48 1736.61> -715 135<1583.04 1736.21>
LayerCount: 2
Back
SplineSet
-782 1577 m 1
 -618 1572 -480 1645 -363 1838 c 1
 -221 1743 l 1
 -402 1441 -664 1414 -814 1414 c 0
 -1119 1414 -1173 1618 -1173 1690 c 0
 -1173 1825 -1075 1918 -950 1918 c 0
 -821 1918 -725 1812 -725 1709 c 0
 -725 1652 -746 1603 -782 1577 c 1
-950 1785 m 0
 -1006 1785 -1040 1740 -1040 1695 c 0
 -1040 1648 -1003 1607 -950 1607 c 0
 -898 1607 -860 1648 -860 1695 c 0
 -860 1740 -894 1785 -950 1785 c 0
EndSplineSet
Fore
Refer: 172 3633 N 1 0 0 1 -215 0 2
EndChar

StartChar: uni0E4D.left
Encoding: 63249 63249 258
Width: 0
VWidth: 2045
Flags: W
HStem: 1375 134<-794.92 -640.482> 1688 133<-792.774 -641.226>
VStem: -941 134<1521.42 1674.67> -627 134<1522.63 1674.67>
LayerCount: 2
Back
SplineSet
-855 1364 m 0
 -982 1364 -1079 1465 -1079 1587 c 0
 -1079 1707 -985 1810 -855 1810 c 0
 -725 1810 -631 1707 -631 1587 c 0
 -631 1458 -735 1364 -855 1364 c 0
-855 1677 m 0
 -906 1677 -945 1636 -945 1587 c 0
 -945 1539 -907 1498 -855 1498 c 0
 -803 1498 -765 1539 -765 1587 c 0
 -765 1636 -804 1677 -855 1677 c 0
EndSplineSet
Fore
Refer: 196 3661 N 1 0 0 1 -319 0 2
EndChar

StartChar: uni0E47.left
Encoding: 63250 63250 259
Width: 0
VWidth: 2045
Flags: W
HStem: 1384 112<-717.532 -593.775> 1493 131<-1053.5 -923.259> 1629 112<-717.215 -593.383> 1786 119<-1149.37 -543.393>
VStem: -1316 131<1538.27 1749.81> -835 113<1529.52 1624.8> -588 113<1500.66 1623.03>
LayerCount: 2
Back
SplineSet
-1090 1313 m 1
 -1322 1342 -1353 1477 -1353 1568 c 0
 -1353 1779 -1177 1834 -1040 1834 c 0
 -978 1834 -916 1822 -810 1822 c 0
 -648 1822 -555 1864 -531 1947 c 1
 -429 1887 l 1
 -464 1766 -583 1705 -787 1704 c 0
 -906 1704 -954 1715 -1026 1715 c 0
 -1200 1715 -1222 1644 -1222 1565 c 0
 -1222 1503 -1200 1467 -1157 1458 c 1
 -1157 1527 -1113 1553 -1073 1553 c 0
 -979 1553 -940 1472 -869 1458 c 1
 -871 1469 -872 1480 -872 1491 c 0
 -874 1593 -789 1670 -692 1670 c 0
 -596 1670 -512 1594 -512 1491 c 0
 -512 1414 -564 1313 -711 1313 c 0
 -902 1313 -953 1422 -1044 1422 c 0
 -1082 1422 -1092 1400 -1092 1357 c 0
 -1092 1344 -1091 1329 -1090 1313 c 1
-692 1558 m 0
 -727 1558 -759 1531 -759 1491 c 0
 -759 1455 -732 1425 -692 1425 c 0
 -652 1425 -625 1456 -625 1491 c 0
 -625 1529 -657 1558 -692 1558 c 0
EndSplineSet
Fore
Refer: 190 3655 N 1 0 0 1 -221 17 2
EndChar

StartChar: uni0E48.left
Encoding: 63251 63251 260
Width: 0
VWidth: 2045
Flags: W
HStem: 2128 330<-668 -488>
VStem: -668 180<2128 2458>
LayerCount: 2
Back
SplineSet
-805 1797 m 17
 -805 2127 l 1
 -625 2127 l 1
 -625 1797 l 1
 -805 1797 l 17
EndSplineSet
Fore
Refer: 191 3656 N 1 0 0 1 -183 0 2
EndChar

StartChar: uni0E4A.left
Encoding: 63253 63253 262
Width: 0
VWidth: 2045
Flags: W
HStem: 2100 90<-848.641 -744.251> 2296 90<-839.457 -744.181> 2429 102<-835.017 -673.548 -581.07 -426.032>
VStem: -966 116<2192.81 2355.31> -743 91<2190.8 2295.13> -406 103<2264.06 2410.87> -197 102<2339.12 2492>
LayerCount: 2
Back
SplineSet
-403 2295 m 1
 -334 2348 -262 2446 -262 2581 c 1
 -134 2581 l 17
 -134 2280 -396 2091 -605 2091 c 1
 -605 2218 l 1
 -604.963 2218 -523 2269.1 -523 2360 c 0
 -523 2462 -598 2502 -634 2502 c 0
 -688 2502 -727 2480 -747 2437 c 1
 -848 2437 l 1
 -889 2480 -925 2502 -954 2502 c 0
 -999 2501 -1040 2475 -1066 2440 c 1
 -1047 2445 -1028 2448 -1011 2448 c 0
 -906 2448 -831 2367 -831 2269 c 0
 -831 2172 -906 2091 -1011 2091 c 0
 -1108 2091 -1223 2163 -1223 2339 c 0
 -1223 2550 -1048 2629 -954 2629 c 0
 -885 2629 -832 2608 -796 2565 c 1
 -761 2608 -708 2629 -639 2629 c 0
 -529 2629 -395 2526 -395 2360 c 0
 -395 2335 -398 2314 -403 2295 c 1
-1011 2336 m 0
 -1049 2336 -1078 2304 -1078 2269 c 0
 -1078 2236 -1050 2203 -1011 2203 c 0
 -973 2203 -944 2234 -944 2269 c 0
 -944 2308 -977 2336 -1011 2336 c 0
EndSplineSet
Fore
Refer: 193 3658 N 1 0 0 1 -117 0 2
EndChar

StartChar: uni0E4B.left
Encoding: 63254 63254 263
Width: 0
VWidth: 2045
Flags: W
HStem: 2247 144<-768 -648 -504 -384>
VStem: -648 144<2127 2247 2391 2510>
LayerCount: 2
Back
SplineSet
-248 2274 m 5
 -398 2274 l 5
 -398 2124 l 5
 -579 2124 l 5
 -579 2274 l 5
 -729 2274 l 5
 -729 2454 l 5
 -579 2454 l 5
 -579 2603 l 5
 -398 2603 l 5
 -398 2454 l 5
 -248 2454 l 5
 -248 2274 l 5
EndSplineSet
Fore
Refer: 194 3659 N 1 0 0 1 -218 0 2
EndChar

StartChar: uni0E4C.left
Encoding: 63255 63255 264
Width: 0
VWidth: 2045
Flags: W
HStem: 2138 106<-817.069 -687.428> 2371 124<-580 -264.089> 2387 108<-816.008 -685.217>
VStem: -931 107<2250.56 2380.74> -680 109<2250.6 2370.56>
LayerCount: 2
Back
SplineSet
-809 2118 m 0xb8
 -856 2118 -899 2082 -899 2029 c 0
 -899 1977 -856 1939 -809 1939 c 0
 -762 1939 -719 1977 -719 2029 c 0
 -719 2082 -762 2118 -809 2118 c 0xb8
-1033 2028 m 0
 -1033 2160 -929 2252 -808 2252 c 2xb8
 -338 2250 l 2
 -274 2250 -227 2269 -198 2308 c 1
 -88 2199 l 1
 -155 2130 -239 2096 -338 2096 c 2
 -594 2098 l 1xd8
 -587 2075 -583 2052 -583 2030 c 0
 -583 1908 -682 1806 -809 1806 c 0
 -928 1806 -1033 1898 -1033 2028 c 0
EndSplineSet
Fore
Refer: 195 3660 N 1 0 0 1 -188 0 2
EndChar

StartChar: uni0E38.low
Encoding: 63256 63256 265
Width: 0
VWidth: 2045
Flags: W
HStem: -1069 133<-668.681 -548.863> -758 134<-670.532 -517.081>
VStem: -820 136<-920.774 -770.289> -548 180<-1292 -1066> -504 136<-923.504 -772.239>
LayerCount: 2
Back
SplineSet
-530 -621 m 4
 -466 -621 -369 -649 -369 -836 c 6
 -369 -1072 l 5
 -500 -1072 l 5
 -500 -896 l 5
 -510 -907 -521 -912 -532 -912 c 4
 -628 -912 -683 -875 -683 -782 c 4
 -683 -702 -652 -621 -530 -621 c 4
-491 -774 m 4
 -491 -712 -521 -700 -541 -700 c 4
 -585 -700 -607 -724 -607 -773 c 4
 -607 -822 -585 -846 -541 -846 c 4
 -508 -846 -491 -822 -491 -774 c 4
-290 -535 m 1
 -290 -359 l 1
 -300 -369.667 -310.667 -375 -322 -375 c 0
 -373.333 -375 -411.333 -364.333 -436 -343 c 0
 -460.667 -321.667 -473 -289 -473 -245 c 0
 -473 -193 -460 -153 -434 -125 c 0
 -408.667 -97.6667 -370.667 -84 -320 -84 c 0
 -267.333 -84 -227.333 -102.333 -200 -139 c 0
 -172.667 -174.333 -159 -227.667 -159 -299 c 2
 -159 -535 l 1
 -290 -535 l 1
-331 -163 m 0
 -375 -163 -397 -187.333 -397 -236 c 0
 -397 -284.667 -375 -309 -331 -309 c 0
 -297.667 -309 -281 -285 -281 -237 c 0
 -281 -213.667 -285.333 -195.667 -294 -183 c 0
 -303.333 -169.667 -315.667 -163 -331 -163 c 0
EndSplineSet
Fore
Refer: 179 3640 N 1 0 0 1 -210 -537 2
EndChar

StartChar: uni0E39.low
Encoding: 63257 63257 266
Width: 0
VWidth: 2045
Flags: W
HStem: -1315 156<-751 -588> -1072 133<-1052.03 -931.618> -761 134<-1053.4 -899.67>
VStem: -1202 136<-926.112 -773.654> -931 180<-1159 -1069> -887 136<-926.504 -774.438> -588 180<-1159 -625>
LayerCount: 2
Back
SplineSet
-808 -621 m 4
 -711 -621 -646 -672 -646 -836 c 6
 -646 -972 l 5
 -503 -972 l 5
 -503 -634 l 5
 -369 -634 l 5
 -369 -1072 l 5
 -777 -1072 l 5
 -777 -896 l 5
 -790 -913 -812 -913 -844 -913 c 4
 -909 -913 -960 -857 -960 -782 c 4
 -960 -683 -892 -621 -808 -621 c 4
-770 -770 m 4
 -770 -734 -780 -700 -820 -700 c 4
 -856 -700 -884 -729 -884 -773 c 4
 -884 -821 -866 -845 -829 -845 c 4
 -782 -845 -770 -806 -770 -770 c 4
-293 -97 m 1
 -159 -97 l 1
 -159 -535 l 1
 -567 -535 l 1
 -567 -359 l 1
 -571.667 -365.667 -578 -370 -586 -372 c 0
 -594 -374 -601 -375 -607 -375 c 2
 -611 -375.667 -620 -376 -634 -376 c 0
 -666 -376 -693.667 -363.333 -717 -338 c 0
 -739 -312 -750 -281 -750 -245 c 0
 -750 -197.667 -735.667 -159.333 -707 -130 c 0
 -678.333 -99.3333 -642 -84 -598 -84 c 0
 -537.333 -84 -494.667 -104.333 -470 -145 c 0
 -447.333 -178.333 -436 -229.667 -436 -299 c 2
 -436 -435 l 1
 -293 -435 l 1
 -293 -97 l 1
-610 -163 m 0
 -627.333 -163 -642.667 -170 -656 -184 c 0
 -668 -198 -674 -215.333 -674 -236 c 0
 -674 -284 -655.667 -308 -619 -308 c 0
 -599 -308 -584 -301 -574 -287 c 0
 -564.667 -273.667 -560 -255.667 -560 -233 c 0
 -560 -210.333 -564 -193 -572 -181 c 0
 -581.333 -169 -594 -163 -610 -163 c 0
EndSplineSet
Fore
Refer: 180 3641 N 1 0 0 1 -257 -540 2
EndChar

StartChar: uni0E3A.low
Encoding: 63258 63258 267
Width: 0
VWidth: 2045
Flags: W
HStem: -977 356<-672.489 -437.23>
VStem: -736 360<-915.849 -682.31>
LayerCount: 2
Back
SplineSet
-594 -732 m 4
 -594 -648 -524 -597 -460 -597 c 4
 -376 -597 -326 -673 -326 -732 c 4
 -326 -819 -404 -866 -460 -866 c 4
 -529 -866 -594 -812 -594 -732 c 4
-250 -60 m 0
 -213.333 -60 -182.333 -73.3333 -157 -100 c 0
 -129.667 -129.333 -116 -161 -116 -195 c 0
 -116 -232.333 -129.667 -264 -157 -290 c 0
 -187 -316 -218 -329 -250 -329 c 0
 -285.333 -329 -317 -316 -345 -290 c 0
 -371 -263.333 -384 -231.667 -384 -195 c 0
 -384 -157.667 -371 -126 -345 -100 c 0
 -317 -73.3333 -285.333 -60 -250 -60 c 0
EndSplineSet
Fore
Refer: 181 3642 N 1 0 0 1 -184 -539 2
EndChar

StartChar: uniF71B
Encoding: 63259 63259 268
Width: 998
VWidth: 2045
Flags: W
HStem: 1064 20G<215 829>
VStem: 215 614<60 1084>
LayerCount: 2
Fore
SplineSet
829 1084 m 1
 829 60 l 1
 215 60 l 1
 215 1084 l 1
 829 1084 l 1
EndSplineSet
EndChar

StartChar: uniF71C
Encoding: 63260 63260 269
Width: 698
VWidth: 2045
Flags: W
HStem: -423 21G<107 261.918>
LayerCount: 2
Fore
SplineSet
107 -423 m 1
 244 -154 l 1
 485 -154 l 1
 244 -423 l 1
 107 -423 l 1
EndSplineSet
EndChar

StartChar: uniF71D
Encoding: 63261 63261 270
Width: 798
VWidth: 2045
Flags: W
HStem: -236 211<183 265 531 616> -127 102<265 531>
VStem: 183 82<-236 -127> 531 85<-236 -127>
LayerCount: 2
Fore
SplineSet
616 -236 m 1xb0
 531 -236 l 1xb0
 531 -127 l 1
 265 -127 l 1x70
 265 -236 l 1
 183 -236 l 1
 183 -25 l 1
 616 -25 l 1
 616 -236 l 1xb0
EndSplineSet
EndChar

StartChar: zerowidthnonjoiner
Encoding: 8204 8204 271
Width: 0
Flags: W
LayerCount: 2
Back
SplineSet
36 1289 m 1
 36 -275 l 1
 -36 -275 l 1
 -36 1289 l 1
 36 1289 l 1
EndSplineSet
EndChar

StartChar: ff
Encoding: 64256 64256 276
Width: 1112
Flags: W
HStem: 0 21G<178 357 721 900> 922 140<19 178 357 721 900 1079> 1316 172<489.391 640 1032.39 1183> 1343 172<396.239 637.428 939.239 1180.43>
VStem: 178 179<0 922 1062 1307.38> 721 179<0 922 1062 1307.38>
LayerCount: 2
Fore
SplineSet
1044 1343 m 0xdc
 963 1347 900 1299 900 1160 c 2
 900 1062 l 1
 1079 1062 l 1
 1079 922 l 1
 900 922 l 1
 900 0 l 1
 721 0 l 1
 721 922 l 1
 357 922 l 1
 357 0 l 1
 178 0 l 1
 178 922 l 1
 19 922 l 1
 19 1062 l 1
 178 1062 l 1
 178 1175 l 2
 178 1447 355 1515 487 1515 c 0xdc
 538 1515 589 1506 640 1488 c 1
 640 1316 l 1xec
 585 1334 539 1343 501 1343 c 0
 420 1347 357 1299 357 1160 c 2
 357 1062 l 1
 721 1062 l 1
 721 1175 l 2
 721 1447 898 1515 1030 1515 c 0xdc
 1081 1515 1132 1506 1183 1488 c 1
 1183 1316 l 1xec
 1128 1334 1082 1343 1044 1343 c 0xdc
EndSplineSet
LCarets2: 1 0 
Ligature2: "'liga' Standard Ligatures lookup 0" f f
EndChar

StartChar: fi
Encoding: 64257 64257 277
Width: 992
Flags: W
HStem: 0 21G<178 357 673 853> 922 140<19 178 357 673> 1259 207<673 853> 1343 172<396.239 637.428>
VStem: 178 179<0 922 1062 1307.38> 673 180<0 922 1259 1466>
LayerCount: 2
Fore
SplineSet
673 1259 m 1xec
 673 1466 l 1
 853 1466 l 1
 853 1259 l 1
 673 1259 l 1xec
501 1343 m 0xdc
 420 1347 357 1299 357 1160 c 2
 357 1062 l 1
 853 1062 l 1
 853 0 l 1
 673 0 l 1
 673 922 l 1
 357 922 l 1
 357 0 l 1
 178 0 l 1
 178 922 l 1
 19 922 l 1
 19 1062 l 1
 178 1062 l 1
 178 1175 l 2
 178 1447 355 1515 487 1515 c 0
 538 1515 589 1506 640 1488 c 1
 640 1316 l 1
 585 1334 539 1343 501 1343 c 0xdc
EndSplineSet
LCarets2: 1 0 
Ligature2: "'liga' Standard Ligatures lookup 0" f i
EndChar

StartChar: fl
Encoding: 64258 64258 278
Width: 994
Flags: W
HStem: 0 21G<178 357 670 850> 922 140<19 178 357 536> 1343 172<422.688 666.438>
VStem: 178 179<0 922 1062 1278.03> 670 180<0 1342.26>
LayerCount: 2
Fore
SplineSet
608 1343 m 0
 466 1347 357 1299 357 1160 c 2
 357 1062 l 1
 536 1062 l 1
 536 922 l 1
 357 922 l 1
 357 0 l 1
 178 0 l 1
 178 922 l 1
 19 922 l 1
 19 1062 l 1
 178 1062 l 1
 178 1175 l 2
 178 1447 353 1515 583 1515 c 0
 672 1515 761 1484 850 1466 c 1
 850 0 l 1
 670 0 l 1
 670 1336 l 1
 648 1340 627 1343 608 1343 c 0
EndSplineSet
LCarets2: 1 0 
Ligature2: "'liga' Standard Ligatures lookup 0" f l
EndChar

StartChar: ffi
Encoding: 64259 64259 279
Width: 1535
Flags: W
HStem: 0 21G<178 357 721 900 1216 1396> 922 140<19 178 357 721 900 1216> 1259 207<1216 1396> 1316 172<489.391 640 1032.39 1183> 1343 172<396.239 637.428 939.239 1180.43>
VStem: 178 179<0 922 1062 1307.38> 721 179<0 922 1062 1307.38> 1216 180<0 922 1259 1466>
LayerCount: 2
Fore
SplineSet
1044 1343 m 0xcf
 963 1347 900 1299 900 1160 c 2
 900 1062 l 1
 1396 1062 l 1
 1396 0 l 1
 1216 0 l 1
 1216 922 l 1
 900 922 l 1
 900 0 l 1
 721 0 l 1
 721 922 l 1
 357 922 l 1
 357 0 l 1
 178 0 l 1
 178 922 l 1
 19 922 l 1
 19 1062 l 1
 178 1062 l 1
 178 1175 l 2
 178 1447 355 1515 487 1515 c 0xcf
 538 1515 589 1506 640 1488 c 1
 640 1316 l 1xd7
 585 1334 539 1343 501 1343 c 0
 420 1347 357 1299 357 1160 c 2
 357 1062 l 1
 721 1062 l 1
 721 1175 l 2
 721 1447 898 1515 1030 1515 c 0xcf
 1081 1515 1132 1506 1183 1488 c 1
 1183 1316 l 1xd7
 1128 1334 1082 1343 1044 1343 c 0xcf
1216 1259 m 1xe7
 1216 1466 l 1
 1396 1466 l 1
 1396 1259 l 1
 1216 1259 l 1xe7
EndSplineSet
LCarets2: 2 0 0 
Ligature2: "'liga' Standard Ligatures lookup 0" ff i
Ligature2: "'liga' Standard Ligatures lookup 0" f f i
EndChar

StartChar: ffl
Encoding: 64260 64260 280
Width: 1537
Flags: W
HStem: 0 21G<178 357 721 900 1213 1393> 922 140<19 178 357 721 900 1079> 1343 172<396.239 637.428 965.688 1209.44>
VStem: 178 179<0 922 1062 1307.38> 721 179<0 922 1062 1278.03> 1213 180<0 1342.26>
LayerCount: 2
Fore
SplineSet
1151 1343 m 0
 1009 1347 900 1299 900 1160 c 2
 900 1062 l 1
 1079 1062 l 1
 1079 922 l 1
 900 922 l 1
 900 0 l 1
 721 0 l 1
 721 922 l 1
 357 922 l 1
 357 0 l 1
 178 0 l 1
 178 922 l 1
 19 922 l 1
 19 1062 l 1
 178 1062 l 1
 178 1175 l 2
 178 1447 355 1515 487 1515 c 0
 538 1515 589 1506 640 1488 c 1
 640 1316 l 1
 585 1334 539 1343 501 1343 c 0
 420 1347 357 1299 357 1160 c 2
 357 1062 l 1
 721 1062 l 1
 721 1175 l 2
 721 1447 896 1515 1126 1515 c 0
 1215 1515 1304 1484 1393 1466 c 1
 1393 0 l 1
 1213 0 l 1
 1213 1336 l 1
 1191 1340 1170 1343 1151 1343 c 0
EndSplineSet
LCarets2: 2 0 0 
Ligature2: "'liga' Standard Ligatures lookup 0" ff l
Ligature2: "'liga' Standard Ligatures lookup 0" f f l
EndChar

StartChar: dotlessi
Encoding: 305 305 281
Width: 455
Flags: W
HStem: 0 21G<136 316> 1042 20G<136 316>
VStem: 136 180<0 1062>
LayerCount: 2
Fore
SplineSet
136 0 m 1
 136 1062 l 1
 316 1062 l 1
 316 0 l 1
 136 0 l 1
EndSplineSet
EndChar

StartChar: dotlessj
Encoding: 567 567 282
Width: 455
Flags: W
HStem: -428 161<-92.0353 99.0322> 1042 20G<134 314>
VStem: 134 180<-233.094 1062>
LayerCount: 2
Fore
SplineSet
314 -58 m 2
 314 -336 204 -428 39 -428 c 0
 -1 -428 -45 -423 -94 -412 c 1
 -94 -259 l 1
 -59 -264 -30 -267 -7 -267 c 0
 90 -267 134 -223 134 -54 c 2
 134 1062 l 1
 314 1062 l 1
 314 -58 l 2
EndSplineSet
EndChar
